{
.appVersion = "1352";
DisplayStrings = (

glyphs = (
{
color = 6;
glyphname = .notdef;
lastChange = "2021-12-10 05:02:04 +0000";
layers = (
{
layerId = "9AA098C0-EDBC-463F-BC21-AFCD07A070D0";
paths = (
{
closed = 1;
nodes = (
"479 0 LINE",
"488 8 LINE",
"488 621 LINE",
"479 630 LINE",
"58 630 LINE",
"50 620 LINE",
"50 9 LINE",
"58 0 LINE"
);
},
{
closed = 1;
nodes = (
"154 150 LINE",
"244 316 LINE",
"154 479 LINE",
"173 514 LINE",
"263 350 LINE",
"354 514 LINE",
"373 479 LINE",
"283 314 LINE",
"373 150 LINE",
"354 116 LINE",
"263 279 LINE",
"173 116 LINE"
);
},
{
closed = 1;
nodes = (
"67 613 LINE",
"471 613 LINE",
"471 16 LINE",
"67 16 LINE"
);
},
{
closed = 1;
nodes = (
"102 49 LINE",
"437 49 LINE",
"437 577 LINE",
"102 577 LINE"
);
}
);
userData = {
assembly = "SVTCA[0]	/* SetFreedomAndProjectionVectorToAxis */\012PUSHW[ ]	/* 1 value pushed */\0122 \012MDAP[1]	/* MoveDirectAbsPt */\012PUSHW[ ]	/* 1 value pushed */\0120 \012RCVT[ ]	/* ReadCVT */\012IF[ ]	/* If */\012PUSHW[ ]	/* 1 value pushed */\0126 \012MDAP[1]	/* MoveDirectAbsPt */\012ELSE[ ]	/* Else */\012PUSHW[ ]	/* 2 values pushed */\0126 5 \012MIAP[0]	/* MoveIndirectAbsPt */\012EIF[ ]	/* EndIf */\012PUSHW[ ]	/* 3 values pushed */\01216 6 2 \012SRP1[ ]	/* SetRefPoint1 */\012SRP2[ ]	/* SetRefPoint2 */\012IP[ ]	/* InterpolatePts */\012PUSHW[ ]	/* 3 values pushed */\01217 6 2 \012SRP1[ ]	/* SetRefPoint1 */\012SRP2[ ]	/* SetRefPoint2 */\012IP[ ]	/* InterpolatePts */\012PUSHW[ ]	/* 3 values pushed */\01218 6 2 \012SRP1[ ]	/* SetRefPoint1 */\012SRP2[ ]	/* SetRefPoint2 */\012IP[ ]	/* InterpolatePts */\012PUSHW[ ]	/* 3 values pushed */\01222 6 2 \012SRP1[ ]	/* SetRefPoint1 */\012SRP2[ ]	/* SetRefPoint2 */\012IP[ ]	/* InterpolatePts */\012PUSHW[ ]	/* 3 values pushed */\01223 6 2 \012SRP1[ ]	/* SetRefPoint1 */\012SRP2[ ]	/* SetRefPoint2 */\012IP[ ]	/* InterpolatePts */\012PUSHW[ ]	/* 3 values pushed */\01224 6 2 \012SRP1[ ]	/* SetRefPoint1 */\012SRP2[ ]	/* SetRefPoint2 */\012IP[ ]	/* InterpolatePts */\012IUP[0]	/* InterpolateUntPts */\012IUP[1]	/* InterpolateUntPts */";
};
width = 538;
}
);
note = .notdef;
},
{
glyphname = A;
lastChange = "2021-12-09 03:28:43 +0000";
layers = (
{
anchors = (
{
name = bottom;
position = "{140, 0}";
},
{
name = ogonek;
position = "{306, 0}";
},
{
name = top;
position = "{223, 591}";
}
);
layerId = "9AA098C0-EDBC-463F-BC21-AFCD07A070D0";
paths = (
{
closed = 1;
nodes = (
"-6 0 LINE",
"57 164 LINE",
"265 164 LINE",
"285 0 LINE",
"297 0 LINE",
"229 591 LINE",
"216 591 LINE",
"-18 0 LINE"
);
},
{
closed = 1;
nodes = (
"206 534 LINE",
"219 572 LINE",
"223 532 LINE",
"264 174 LINE",
"62 174 LINE"
);
}
);
width = 350;
}
);
leftKerningGroup = A;
note = A;
rightKerningGroup = A;
unicode = 0041;
},
{
glyphname = AE;
lastChange = "2021-12-09 03:28:43 +0000";
layers = (
{
anchors = (
{
name = bottom;
position = "{213, 0}";
},
{
name = top;
position = "{295, 591}";
}
);
layerId = "9AA098C0-EDBC-463F-BC21-AFCD07A070D0";
paths = (
{
closed = 1;
nodes = (
"-15 0 LINE",
"48 162 LINE",
"206 162 LINE",
"208 0 LINE",
"360 0 LINE",
"361 11 LINE",
"221 11 LINE",
"219 306 LINE",
"352 306 LINE",
"353 317 LINE",
"219 317 LINE",
"220 580 LINE",
"441 580 LINE",
"443 591 LINE",
"206 591 LINE",
"-27 0 LINE"
);
},
{
closed = 1;
nodes = (
"207 568 LINE",
"207 173 LINE",
"53 173 LINE"
);
}
);
width = 441;
}
);
leftKerningGroup = A;
note = AE;
rightKerningGroup = E;
unicode = 00C6;
},
{
glyphname = B;
lastChange = "2021-12-09 03:28:43 +0000";
layers = (
{
background = {
paths = (
{
closed = 1;
nodes = (
"195 0 LINE SMOOTH",
"274 0 OFFCURVE",
"319 22 OFFCURVE",
"332 120 CURVE SMOOTH",
"345 209 LINE SMOOTH",
"346 216 OFFCURVE",
"346 223 OFFCURVE",
"346 229 CURVE SMOOTH",
"346 278 OFFCURVE",
"319 312 OFFCURVE",
"266 312 CURVE",
"325 321 OFFCURVE",
"362 363 OFFCURVE",
"369 419 CURVE SMOOTH",
"380 494 LINE SMOOTH",
"381 501 OFFCURVE",
"382 507 OFFCURVE",
"382 513 CURVE SMOOTH",
"382 568 OFFCURVE",
"342 591 OFFCURVE",
"287 591 CURVE SMOOTH",
"126 591 LINE",
"43 0 LINE"
);
},
{
closed = 1;
nodes = (
"98 306 LINE",
"231 306 LINE SMOOTH",
"291 306 OFFCURVE",
"335 289 OFFCURVE",
"335 233 CURVE SMOOTH",
"335 227 OFFCURVE",
"335 221 OFFCURVE",
"334 214 CURVE SMOOTH",
"321 125 LINE SMOOTH",
"309 33 OFFCURVE",
"269 11 OFFCURVE",
"193 11 CURVE SMOOTH",
"56 11 LINE"
);
},
{
closed = 1;
nodes = (
"136 580 LINE",
"285 580 LINE SMOOTH",
"335 580 OFFCURVE",
"369 558 OFFCURVE",
"369 511 CURVE SMOOTH",
"369 506 OFFCURVE",
"369 501 OFFCURVE",
"368 496 CURVE SMOOTH",
"358 420 LINE SMOOTH",
"347 355 OFFCURVE",
"304 317 OFFCURVE",
"227 317 CURVE SMOOTH",
"99 317 LINE"
);
}
);
};
layerId = "9AA098C0-EDBC-463F-BC21-AFCD07A070D0";
paths = (
{
closed = 1;
nodes = (
"195 0 LINE SMOOTH",
"274 0 OFFCURVE",
"319 22 OFFCURVE",
"332 120 CURVE SMOOTH",
"345 209 LINE SMOOTH",
"346 216 OFFCURVE",
"346 223 OFFCURVE",
"346 229 CURVE SMOOTH",
"346 277 OFFCURVE",
"319 311 OFFCURVE",
"266 311 CURVE",
"325 320 OFFCURVE",
"362 362 OFFCURVE",
"369 419 CURVE SMOOTH",
"380 494 LINE SMOOTH",
"381 501 OFFCURVE",
"382 507 OFFCURVE",
"382 513 CURVE SMOOTH",
"382 568 OFFCURVE",
"342 591 OFFCURVE",
"287 591 CURVE SMOOTH",
"126 591 LINE",
"43 0 LINE"
);
},
{
closed = 1;
nodes = (
"98 306 LINE",
"231 306 LINE SMOOTH",
"291 306 OFFCURVE",
"335 289 OFFCURVE",
"335 233 CURVE SMOOTH",
"335 227 OFFCURVE",
"335 221 OFFCURVE",
"334 214 CURVE SMOOTH",
"321 125 LINE SMOOTH",
"309 33 OFFCURVE",
"269 11 OFFCURVE",
"193 11 CURVE SMOOTH",
"56 11 LINE"
);
},
{
closed = 1;
nodes = (
"136 580 LINE",
"285 580 LINE SMOOTH",
"335 580 OFFCURVE",
"369 558 OFFCURVE",
"369 511 CURVE SMOOTH",
"369 506 OFFCURVE",
"369 501 OFFCURVE",
"368 496 CURVE SMOOTH",
"358 420 LINE SMOOTH",
"347 354 OFFCURVE",
"304 316 OFFCURVE",
"227 316 CURVE SMOOTH",
"99 316 LINE"
);
}
);
userData = {
assembly = "PUSHW[ ]	/* 4 values pushed */\01219 4 13 4 \012CALL[ ]	/* CallFunction */\012PUSHW[ ]	/* 3 values pushed */\01233 13 19 \012SRP1[ ]	/* SetRefPoint1 */\012SRP2[ ]	/* SetRefPoint2 */\012IP[ ]	/* InterpolatePts */\012PUSHW[ ]	/* 1 value pushed */\01219 \012SRP0[ ]	/* SetRefPoint0 */\012PUSHW[ ]	/* 1 value pushed */\01246 \012MDRP[11100]	/* MoveDirectRelPt */\012IUP[0]	/* InterpolateUntPts */\012IUP[1]	/* InterpolateUntPts */";
};
width = 412;
}
);
leftMetricsKey = H;
note = B;
unicode = 0042;
},
{
glyphname = C;
lastChange = "2021-12-09 03:28:50 +0000";
layers = (
{
anchors = (
{
name = bottom;
position = "{166, -12}";
},
{
name = top;
position = "{252, 591}";
}
);
layerId = "9AA098C0-EDBC-463F-BC21-AFCD07A070D0";
paths = (
{
closed = 1;
nodes = (
"254 -12 OFFCURVE",
"307 9 OFFCURVE",
"322 118 CURVE SMOOTH",
"332 189 LINE",
"320 189 LINE",
"309 116 LINE SMOOTH",
"294 19 OFFCURVE",
"245 -3 OFFCURVE",
"168 -3 CURVE SMOOTH",
"99 -3 OFFCURVE",
"58 15 OFFCURVE",
"58 85 CURVE SMOOTH",
"58 95 OFFCURVE",
"58 105 OFFCURVE",
"60 116 CURVE SMOOTH",
"110 467 LINE SMOOTH",
"124 567 OFFCURVE",
"171 589 OFFCURVE",
"251 589 CURVE SMOOTH",
"324 589 OFFCURVE",
"362 573 OFFCURVE",
"362 505 CURVE SMOOTH",
"362 496 OFFCURVE",
"362 485 OFFCURVE",
"360 473 CURVE SMOOTH",
"347 381 LINE",
"359 381 LINE",
"371 469 LINE SMOOTH",
"373 482 OFFCURVE",
"374 494 OFFCURVE",
"374 505 CURVE SMOOTH",
"374 580 OFFCURVE",
"330 599 OFFCURVE",
"253 599 CURVE SMOOTH",
"165 599 OFFCURVE",
"113 577 OFFCURVE",
"98 469 CURVE SMOOTH",
"49 118 LINE SMOOTH",
"47 105 OFFCURVE",
"46 93 OFFCURVE",
"46 82 CURVE SMOOTH",
"46 7 OFFCURVE",
"90 -12 OFFCURVE",
"166 -12 CURVE SMOOTH"
);
}
);
width = 407;
}
);
leftKerningGroup = O;
leftMetricsKey = O;
note = C;
rightKerningGroup = C;
rightMetricsKey = O;
unicode = 0043;
},
{
glyphname = D;
lastChange = "2021-12-09 03:28:43 +0000";
layers = (
{
anchors = (
{
name = bottom;
position = "{177, 0}";
},
{
name = center;
position = "{136, 296}";
},
{
name = top;
position = "{244, 591}";
}
);
layerId = "9AA098C0-EDBC-463F-BC21-AFCD07A070D0";
paths = (
{
closed = 1;
nodes = (
"195 0 LINE SMOOTH",
"278 0 OFFCURVE",
"320 31 OFFCURVE",
"334 130 CURVE SMOOTH",
"380 461 LINE SMOOTH",
"382 475 OFFCURVE",
"383 487 OFFCURVE",
"383 498 CURVE SMOOTH",
"383 567 OFFCURVE",
"345 591 OFFCURVE",
"278 591 CURVE SMOOTH",
"126 591 LINE",
"43 0 LINE"
);
},
{
closed = 1;
nodes = (
"136 582 LINE",
"276 582 LINE SMOOTH",
"336 582 OFFCURVE",
"371 559 OFFCURVE",
"371 495 CURVE SMOOTH",
"371 485 OFFCURVE",
"370 474 OFFCURVE",
"368 461 CURVE SMOOTH",
"322 130 LINE SMOOTH",
"309 39 OFFCURVE",
"269 11 OFFCURVE",
"196 11 CURVE SMOOTH",
"56 11 LINE"
);
}
);
width = 418;
}
);
leftKerningGroup = H;
leftMetricsKey = H;
note = D;
rightKerningGroup = O;
rightMetricsKey = O;
unicode = 0044;
},
{
glyphname = E;
lastChange = "2021-12-09 03:28:43 +0000";
layers = (
{
anchors = (
{
name = bottom;
position = "{159, 0}";
},
{
name = ogonek;
position = "{271, 0}";
},
{
name = top;
position = "{243, 591}";
},
{
name = topleft;
position = "{96, 591}";
}
);
background = {
paths = (
{
closed = 1;
nodes = (
"284 0 LINE",
"285 11 LINE",
"56 11 LINE",
"98 306 LINE",
"276 306 LINE",
"277 317 LINE",
"99 317 LINE",
"136 580 LINE",
"365 580 LINE",
"367 591 LINE",
"126 591 LINE",
"43 0 LINE"
);
}
);
};
layerId = "9AA098C0-EDBC-463F-BC21-AFCD07A070D0";
paths = (
{
closed = 1;
nodes = (
"284 0 LINE",
"285 11 LINE",
"56 11 LINE",
"98 306 LINE",
"276 306 LINE",
"277 316 LINE",
"99 316 LINE",
"136 580 LINE",
"365 580 LINE",
"367 591 LINE",
"126 591 LINE",
"43 0 LINE"
);
}
);
width = 346;
}
);
leftKerningGroup = H;
leftMetricsKey = H;
note = E;
rightKerningGroup = E;
unicode = 0045;
},
{
glyphname = F;
lastChange = "2021-12-09 03:28:43 +0000";
layers = (
{
background = {
paths = (
{
closed = 1;
nodes = (
"55 0 LINE",
"98 306 LINE",
"276 306 LINE",
"277 317 LINE",
"99 317 LINE",
"136 580 LINE",
"365 580 LINE",
"367 591 LINE",
"126 591 LINE",
"43 0 LINE"
);
}
);
};
layerId = "9AA098C0-EDBC-463F-BC21-AFCD07A070D0";
paths = (
{
closed = 1;
nodes = (
"55 0 LINE",
"98 306 LINE",
"276 306 LINE",
"277 316 LINE",
"99 316 LINE",
"136 580 LINE",
"365 580 LINE",
"367 591 LINE",
"126 591 LINE",
"43 0 LINE"
);
}
);
userData = {
assembly = "SVTCA[0]	/* SetFreedomAndProjectionVectorToAxis */\012PUSHW[ ]	/* 1 value pushed */\0120 \012RCVT[ ]	/* ReadCVT */\012IF[ ]	/* If */\012PUSHW[ ]	/* 1 value pushed */\0128 \012MDAP[1]	/* MoveDirectAbsPt */\012ELSE[ ]	/* Else */\012PUSHW[ ]	/* 2 values pushed */\0128 5 \012MIAP[0]	/* MoveIndirectAbsPt */\012EIF[ ]	/* EndIf */\012IUP[0]	/* InterpolateUntPts */\012IUP[1]	/* InterpolateUntPts */";
};
width = 335;
}
);
leftKerningGroup = H;
leftMetricsKey = H;
note = F;
rightKerningGroup = F;
unicode = 0046;
},
{
glyphname = G;
lastChange = "2021-12-09 03:28:50 +0000";
layers = (
{
anchors = (
{
name = bottom;
position = "{168, -10}";
},
{
name = top;
position = "{251, 591}";
}
);
layerId = "9AA098C0-EDBC-463F-BC21-AFCD07A070D0";
paths = (
{
closed = 1;
nodes = (
"227 -12 OFFCURVE",
"281 18 OFFCURVE",
"304 69 CURVE",
"298 0 LINE",
"305 0 LINE",
"343 266 LINE",
"224 266 LINE",
"222 257 LINE",
"329 257 LINE",
"310 118 LINE SMOOTH",
"300 44 OFFCURVE",
"237 -3 OFFCURVE",
"168 -3 CURVE SMOOTH",
"100 -3 OFFCURVE",
"58 14 OFFCURVE",
"58 83 CURVE SMOOTH",
"58 94 OFFCURVE",
"59 105 OFFCURVE",
"61 118 CURVE SMOOTH",
"110 468 LINE SMOOTH",
"124 566 OFFCURVE",
"165 589 OFFCURVE",
"251 589 CURVE SMOOTH",
"325 589 OFFCURVE",
"362 572 OFFCURVE",
"362 506 CURVE SMOOTH",
"362 495 OFFCURVE",
"361 482 OFFCURVE",
"359 468 CURVE SMOOTH",
"350 401 LINE",
"362 401 LINE",
"371 469 LINE SMOOTH",
"373 483 OFFCURVE",
"374 495 OFFCURVE",
"374 506 CURVE SMOOTH",
"374 580 OFFCURVE",
"331 599 OFFCURVE",
"254 599 CURVE SMOOTH",
"165 599 OFFCURVE",
"113 577 OFFCURVE",
"98 469 CURVE SMOOTH",
"49 118 LINE SMOOTH",
"47 105 OFFCURVE",
"46 93 OFFCURVE",
"46 82 CURVE SMOOTH",
"46 7 OFFCURVE",
"90 -12 OFFCURVE",
"166 -12 CURVE SMOOTH"
);
}
);
userData = {
assembly = "SVTCA[0]	/* SetFreedomAndProjectionVectorToAxis */\012PUSHW[ ]	/* 1 value pushed */\0120 \012RCVT[ ]	/* ReadCVT */\012IF[ ]	/* If */\012PUSHW[ ]	/* 1 value pushed */\01238 \012MDAP[1]	/* MoveDirectAbsPt */\012ELSE[ ]	/* Else */\012PUSHW[ ]	/* 2 values pushed */\01238 5 \012MIAP[0]	/* MoveIndirectAbsPt */\012EIF[ ]	/* EndIf */\012PUSHW[ ]	/* 1 value pushed */\0120 \012RCVT[ ]	/* ReadCVT */\012IF[ ]	/* If */\012PUSHW[ ]	/* 1 value pushed */\01248 \012MDAP[1]	/* MoveDirectAbsPt */\012ELSE[ ]	/* Else */\012PUSHW[ ]	/* 2 values pushed */\01248 5 \012MIAP[0]	/* MoveIndirectAbsPt */\012EIF[ ]	/* EndIf */\012IUP[0]	/* InterpolateUntPts */\012IUP[1]	/* InterpolateUntPts */";
};
width = 405;
}
);
leftKerningGroup = O;
leftMetricsKey = O;
note = G;
rightKerningGroup = G;
rightMetricsKey = "=O-2";
unicode = 0047;
},
{
glyphname = H;
lastChange = "2021-12-09 03:28:43 +0000";
layers = (
{
anchors = (
{
name = bottom;
position = "{180, 0}";
},
{
name = center;
position = "{222, 296}";
},
{
name = top;
position = "{263, 591}";
},
{
name = topleft;
position = "{96, 591}";
}
);
layerId = "9AA098C0-EDBC-463F-BC21-AFCD07A070D0";
paths = (
{
closed = 1;
nodes = (
"55 0 LINE",
"98 306 LINE",
"347 306 LINE",
"304 0 LINE",
"316 0 LINE",
"399 591 LINE",
"387 591 LINE",
"348 316 LINE",
"99 316 LINE",
"138 591 LINE",
"126 591 LINE",
"43 0 LINE"
);
}
);
userData = {
assembly = "SVTCA[0]	/* SetFreedomAndProjectionVectorToAxis */\012PUSHW[ ]	/* 1 value pushed */\0120 \012RCVT[ ]	/* ReadCVT */\012IF[ ]	/* If */\012PUSHW[ ]	/* 1 value pushed */\0120 \012MDAP[1]	/* MoveDirectAbsPt */\012ELSE[ ]	/* Else */\012PUSHW[ ]	/* 2 values pushed */\0120 5 \012MIAP[0]	/* MoveIndirectAbsPt */\012EIF[ ]	/* EndIf */\012PUSHW[ ]	/* 1 value pushed */\0120 \012RCVT[ ]	/* ReadCVT */\012IF[ ]	/* If */\012PUSHW[ ]	/* 1 value pushed */\0124 \012MDAP[1]	/* MoveDirectAbsPt */\012ELSE[ ]	/* Else */\012PUSHW[ ]	/* 2 values pushed */\0124 5 \012MIAP[0]	/* MoveIndirectAbsPt */\012EIF[ ]	/* EndIf */\012IUP[0]	/* InterpolateUntPts */\012IUP[1]	/* InterpolateUntPts */";
};
width = 429;
}
);
leftKerningGroup = H;
note = H;
rightKerningGroup = H;
unicode = 0048;
},
{
glyphname = I;
lastChange = "2021-12-09 03:28:43 +0000";
layers = (
{
anchors = (
{
name = bottom;
position = "{49, 0}";
},
{
name = ogonek;
position = "{66, 0}";
},
{
name = top;
position = "{132, 591}";
},
{
name = topleft;
position = "{96, 591}";
}
);
layerId = "9AA098C0-EDBC-463F-BC21-AFCD07A070D0";
paths = (
{
closed = 1;
nodes = (
"55 0 LINE",
"138 591 LINE",
"126 591 LINE",
"43 0 LINE"
);
}
);
userData = {
assembly = "SVTCA[0]	/* SetFreedomAndProjectionVectorToAxis */\012PUSHW[ ]	/* 1 value pushed */\0120 \012RCVT[ ]	/* ReadCVT */\012IF[ ]	/* If */\012PUSHW[ ]	/* 1 value pushed */\0120 \012MDAP[1]	/* MoveDirectAbsPt */\012ELSE[ ]	/* Else */\012PUSHW[ ]	/* 2 values pushed */\0120 5 \012MIAP[0]	/* MoveIndirectAbsPt */\012EIF[ ]	/* EndIf */\012IUP[0]	/* InterpolateUntPts */\012IUP[1]	/* InterpolateUntPts */";
};
width = 168;
}
);
leftKerningGroup = H;
leftMetricsKey = H;
note = I;
rightKerningGroup = H;
rightMetricsKey = H;
unicode = 0049;
},
{
glyphname = J;
lastChange = "2021-12-09 03:28:50 +0000";
layers = (
{
anchors = (
{
name = bottom;
position = "{66, 0}";
},
{
name = top;
position = "{169, 591}";
}
);
layerId = "9AA098C0-EDBC-463F-BC21-AFCD07A070D0";
paths = (
{
closed = 1;
nodes = (
"-3 0 LINE",
"9 0 LINE SMOOTH",
"87 0 OFFCURVE",
"96 34 OFFCURVE",
"108 117 CURVE SMOOTH",
"175 591 LINE",
"163 591 LINE",
"92 86 LINE SMOOTH",
"84 29 OFFCURVE",
"58 10 OFFCURVE",
"10 10 CURVE SMOOTH",
"-24 10 LINE",
"-25 0 LINE",
"-22 -1 OFFCURVE",
"-18 -1 OFFCURVE",
"-14 -1 CURVE SMOOTH"
);
}
);
width = 205;
}
);
leftKerningGroup = J;
note = J;
rightKerningGroup = J;
rightMetricsKey = H;
unicode = 004A;
},
{
glyphname = K;
lastChange = "2021-12-09 03:28:43 +0000";
layers = (
{
anchors = (
{
name = bottom;
position = "{141, 0}";
},
{
name = top;
position = "{224, 591}";
}
);
layerId = "9AA098C0-EDBC-463F-BC21-AFCD07A070D0";
paths = (
{
closed = 1;
nodes = (
"284 0 LINE",
"141 306 LINE",
"362 591 LINE",
"348 591 LINE",
"127 306 LINE",
"269 0 LINE"
);
},
{
closed = 1;
nodes = (
"55 0 LINE",
"138 591 LINE",
"126 591 LINE",
"43 0 LINE"
);
}
);
userData = {
assembly = "SVTCA[0]	/* SetFreedomAndProjectionVectorToAxis */\012PUSHW[ ]	/* 1 value pushed */\0120 \012RCVT[ ]	/* ReadCVT */\012IF[ ]	/* If */\012PUSHW[ ]	/* 1 value pushed */\0124 \012MDAP[1]	/* MoveDirectAbsPt */\012ELSE[ ]	/* Else */\012PUSHW[ ]	/* 2 values pushed */\0124 5 \012MIAP[0]	/* MoveIndirectAbsPt */\012EIF[ ]	/* EndIf */\012PUSHW[ ]	/* 1 value pushed */\0120 \012RCVT[ ]	/* ReadCVT */\012IF[ ]	/* If */\012PUSHW[ ]	/* 1 value pushed */\0126 \012MDAP[1]	/* MoveDirectAbsPt */\012ELSE[ ]	/* Else */\012PUSHW[ ]	/* 2 values pushed */\0126 5 \012MIAP[0]	/* MoveIndirectAbsPt */\012EIF[ ]	/* EndIf */\012IUP[0]	/* InterpolateUntPts */\012IUP[1]	/* InterpolateUntPts */";
};
width = 335;
}
);
leftKerningGroup = H;
leftMetricsKey = H;
note = K;
rightKerningGroup = K;
unicode = 004B;
},
{
glyphname = L;
lastChange = "2021-12-09 03:28:43 +0000";
layers = (
{
anchors = (
{
name = bottom;
position = "{144, 0}";
},
{
name = center;
position = "{168, 296}";
},
{
name = top;
position = "{138, 591}";
},
{
name = topright;
position = "{237, 481}";
}
);
layerId = "9AA098C0-EDBC-463F-BC21-AFCD07A070D0";
paths = (
{
closed = 1;
nodes = (
"253 0 LINE",
"254 11 LINE",
"56 11 LINE",
"138 591 LINE",
"126 591 LINE",
"43 0 LINE"
);
}
);
width = 294;
}
);
leftKerningGroup = H;
leftMetricsKey = H;
note = L;
rightKerningGroup = L;
unicode = 004C;
},
{
glyphname = Lslash;
lastChange = "2021-12-09 03:28:43 +0000";
layers = (
{
layerId = "9AA098C0-EDBC-463F-BC21-AFCD07A070D0";
paths = (
{
closed = 1;
nodes = (
"265 0 LINE",
"266 11 LINE",
"68 11 LINE",
"94 197 LINE",
"187 237 LINE",
"188 247 LINE",
"96 207 LINE",
"150 591 LINE",
"138 591 LINE",
"83 202 LINE",
"10 171 LINE",
"8 160 LINE",
"81 191 LINE",
"55 0 LINE"
);
}
);
userData = {
assembly = "PUSHW[ ]	/* 4 values pushed */\0122 4 12 4 \012CALL[ ]	/* CallFunction */\012IUP[0]	/* InterpolateUntPts */\012IUP[1]	/* InterpolateUntPts */";
};
width = 306;
}
);
leftKerningGroup = H;
note = Lslash;
rightKerningGroup = L;
unicode = 0141;
},
{
glyphname = M;
lastChange = "2021-12-09 03:28:43 +0000";
layers = (
{
layerId = "9AA098C0-EDBC-463F-BC21-AFCD07A070D0";
paths = (
{
closed = 1;
nodes = (
"55 0 LINE",
"130 537 LINE",
"219 0 LINE",
"233 0 LINE",
"265 74 OFFCURVE",
"301 155 OFFCURVE",
"342 244 CURVE SMOOTH",
"382 333 OFFCURVE",
"425 430 OFFCURVE",
"472 537 CURVE",
"397 0 LINE",
"409 0 LINE",
"492 591 LINE",
"484 591 LINE",
"228 16 LINE",
"135 591 LINE",
"126 591 LINE",
"43 0 LINE"
);
}
);
userData = {
assembly = "SVTCA[0]	/* SetFreedomAndProjectionVectorToAxis */\012PUSHW[ ]	/* 1 value pushed */\0120 \012RCVT[ ]	/* ReadCVT */\012IF[ ]	/* If */\012PUSHW[ ]	/* 1 value pushed */\0120 \012MDAP[1]	/* MoveDirectAbsPt */\012ELSE[ ]	/* Else */\012PUSHW[ ]	/* 2 values pushed */\0120 5 \012MIAP[0]	/* MoveIndirectAbsPt */\012EIF[ ]	/* EndIf */\012PUSHW[ ]	/* 1 value pushed */\0120 \012RCVT[ ]	/* ReadCVT */\012IF[ ]	/* If */\012PUSHW[ ]	/* 1 value pushed */\0125 \012MDAP[1]	/* MoveDirectAbsPt */\012ELSE[ ]	/* Else */\012PUSHW[ ]	/* 2 values pushed */\0125 5 \012MIAP[0]	/* MoveIndirectAbsPt */\012EIF[ ]	/* EndIf */\012PUSHW[ ]	/* 1 value pushed */\0120 \012RCVT[ ]	/* ReadCVT */\012IF[ ]	/* If */\012PUSHW[ ]	/* 1 value pushed */\0128 \012MDAP[1]	/* MoveDirectAbsPt */\012ELSE[ ]	/* Else */\012PUSHW[ ]	/* 2 values pushed */\0128 5 \012MIAP[0]	/* MoveIndirectAbsPt */\012EIF[ ]	/* EndIf */\012IUP[0]	/* InterpolateUntPts */\012IUP[1]	/* InterpolateUntPts */";
};
width = 522;
}
);
leftKerningGroup = H;
leftMetricsKey = H;
note = M;
rightKerningGroup = H;
rightMetricsKey = H;
unicode = 004D;
},
{
glyphname = N;
lastChange = "2021-12-09 03:28:43 +0000";
layers = (
{
anchors = (
{
name = bottom;
position = "{180, 0}";
},
{
name = top;
position = "{263, 591}";
}
);
layerId = "9AA098C0-EDBC-463F-BC21-AFCD07A070D0";
paths = (
{
closed = 1;
nodes = (
"55 0 LINE",
"134 564 LINE",
"300 0 LINE",
"316 0 LINE",
"399 591 LINE",
"388 591 LINE",
"307 17 LINE",
"140 591 LINE",
"126 591 LINE",
"43 0 LINE"
);
}
);
userData = {
assembly = "SVTCA[0]	/* SetFreedomAndProjectionVectorToAxis */\012PUSHW[ ]	/* 1 value pushed */\0120 \012RCVT[ ]	/* ReadCVT */\012IF[ ]	/* If */\012PUSHW[ ]	/* 1 value pushed */\0123 \012MDAP[1]	/* MoveDirectAbsPt */\012ELSE[ ]	/* Else */\012PUSHW[ ]	/* 2 values pushed */\0123 5 \012MIAP[0]	/* MoveIndirectAbsPt */\012EIF[ ]	/* EndIf */\012PUSHW[ ]	/* 1 value pushed */\0120 \012RCVT[ ]	/* ReadCVT */\012IF[ ]	/* If */\012PUSHW[ ]	/* 1 value pushed */\0126 \012MDAP[1]	/* MoveDirectAbsPt */\012ELSE[ ]	/* Else */\012PUSHW[ ]	/* 2 values pushed */\0126 5 \012MIAP[0]	/* MoveIndirectAbsPt */\012EIF[ ]	/* EndIf */\012IUP[0]	/* InterpolateUntPts */\012IUP[1]	/* InterpolateUntPts */";
};
width = 429;
}
);
leftKerningGroup = H;
leftMetricsKey = H;
note = N;
rightKerningGroup = H;
rightMetricsKey = H;
unicode = 004E;
},
{
glyphname = Eng;
lastChange = "2021-12-09 03:28:43 +0000";
layers = (
{
layerId = "9AA098C0-EDBC-463F-BC21-AFCD07A070D0";
paths = (
{
closed = 1;
nodes = (
"187 -247 LINE",
"199 -247 LINE SMOOTH",
"277 -247 OFFCURVE",
"285 -213 OFFCURVE",
"298 -130 CURVE SMOOTH",
"399 591 LINE",
"388 591 LINE",
"308 17 LINE",
"140 591 LINE",
"126 591 LINE",
"43 0 LINE",
"55 0 LINE",
"135 564 LINE",
"303 -9 LINE",
"282 -161 LINE SMOOTH",
"274 -218 OFFCURVE",
"248 -237 OFFCURVE",
"200 -237 CURVE SMOOTH",
"166 -237 LINE",
"165 -247 LINE",
"168 -248 OFFCURVE",
"172 -248 OFFCURVE",
"176 -248 CURVE SMOOTH"
);
}
);
userData = {
assembly = "SVTCA[0]	/* SetFreedomAndProjectionVectorToAxis */\012PUSHW[ ]	/* 1 value pushed */\0120 \012RCVT[ ]	/* ReadCVT */\012IF[ ]	/* If */\012PUSHW[ ]	/* 1 value pushed */\0127 \012MDAP[1]	/* MoveDirectAbsPt */\012ELSE[ ]	/* Else */\012PUSHW[ ]	/* 2 values pushed */\0127 5 \012MIAP[0]	/* MoveIndirectAbsPt */\012EIF[ ]	/* EndIf */\012IUP[0]	/* InterpolateUntPts */\012IUP[1]	/* InterpolateUntPts */";
};
width = 429;
}
);
leftKerningGroup = H;
note = Eng;
rightKerningGroup = H;
unicode = 014A;
},
{
glyphname = O;
lastChange = "2021-12-09 03:28:43 +0000";
layers = (
{
anchors = (
{
name = bottom;
position = "{169, 0}";
},
{
name = center;
position = "{211, 296}";
},
{
name = ogonek;
position = "{186, -9}";
},
{
name = top;
position = "{252, 591}";
},
{
name = topleft;
position = "{91, 591}";
},
{
name = topright;
position = "{310, 591}";
}
);
layerId = "9AA098C0-EDBC-463F-BC21-AFCD07A070D0";
paths = (
{
closed = 1;
nodes = (
"254 -12 OFFCURVE",
"307 9 OFFCURVE",
"322 118 CURVE SMOOTH",
"371 469 LINE SMOOTH",
"373 482 OFFCURVE",
"374 494 OFFCURVE",
"374 505 CURVE SMOOTH",
"374 580 OFFCURVE",
"330 599 OFFCURVE",
"253 599 CURVE SMOOTH",
"165 599 OFFCURVE",
"113 577 OFFCURVE",
"98 469 CURVE SMOOTH",
"49 118 LINE SMOOTH",
"47 105 OFFCURVE",
"46 93 OFFCURVE",
"46 82 CURVE SMOOTH",
"46 7 OFFCURVE",
"90 -12 OFFCURVE",
"166 -12 CURVE SMOOTH"
);
},
{
closed = 1;
nodes = (
"99 -2 OFFCURVE",
"58 14 OFFCURVE",
"58 84 CURVE SMOOTH",
"58 94 OFFCURVE",
"58 104 OFFCURVE",
"60 115 CURVE SMOOTH",
"111 472 LINE SMOOTH",
"125 570 OFFCURVE",
"174 589 OFFCURVE",
"251 589 CURVE SMOOTH",
"320 589 OFFCURVE",
"362 573 OFFCURVE",
"362 502 CURVE SMOOTH",
"362 493 OFFCURVE",
"362 483 OFFCURVE",
"360 472 CURVE SMOOTH",
"309 115 LINE SMOOTH",
"295 17 OFFCURVE",
"245 -2 OFFCURVE",
"168 -2 CURVE SMOOTH"
);
}
);
width = 407;
}
);
leftKerningGroup = O;
note = O;
rightKerningGroup = O;
unicode = 004F;
},
{
glyphname = Oslash;
lastChange = "2021-12-09 03:28:43 +0000";
layers = (
{
anchors = (
{
name = bottom;
position = "{156, 0}";
},
{
name = top;
position = "{229, 591}";
}
);
layerId = "9AA098C0-EDBC-463F-BC21-AFCD07A070D0";
paths = (
{
closed = 1;
nodes = (
"-8 -46 LINE",
"37 25 LINE",
"57 -6 OFFCURVE",
"96 -12 OFFCURVE",
"143 -12 CURVE SMOOTH",
"230 -12 OFFCURVE",
"285 9 OFFCURVE",
"300 118 CURVE SMOOTH",
"349 469 LINE SMOOTH",
"351 484 OFFCURVE",
"352 497 OFFCURVE",
"352 510 CURVE",
"371 541 OFFCURVE",
"390 572 OFFCURVE",
"413 604 CURVE",
"400 604 LINE",
"350 527 LINE",
"342 588 OFFCURVE",
"294 599 OFFCURVE",
"231 599 CURVE SMOOTH",
"143 599 OFFCURVE",
"91 577 OFFCURVE",
"76 469 CURVE SMOOTH",
"27 118 LINE SMOOTH",
"25 104 OFFCURVE",
"23 91 OFFCURVE",
"23 79 CURVE SMOOTH",
"23 62 OFFCURVE",
"26 48 OFFCURVE",
"31 36 CURVE",
"-22 -46 LINE"
);
},
{
closed = 1;
nodes = (
"99 -3 OFFCURVE",
"61 3 OFFCURVE",
"45 36 CURVE",
"192 265 LINE SMOOTH",
"239 338 OFFCURVE",
"288 414 OFFCURVE",
"339 491 CURVE",
"338 488 OFFCURVE",
"338 485 OFFCURVE",
"338 482 CURVE SMOOTH",
"338 479 OFFCURVE",
"337 475 OFFCURVE",
"337 472 CURVE SMOOTH",
"287 114 LINE SMOOTH",
"273 16 OFFCURVE",
"225 -3 OFFCURVE",
"146 -3 CURVE SMOOTH"
);
},
{
closed = 1;
nodes = (
"36 57 OFFCURVE",
"35 67 OFFCURVE",
"35 79 CURVE SMOOTH",
"35 90 OFFCURVE",
"36 101 OFFCURVE",
"38 114 CURVE SMOOTH",
"88 472 LINE SMOOTH",
"102 569 OFFCURVE",
"152 589 OFFCURVE",
"229 589 CURVE SMOOTH",
"292 589 OFFCURVE",
"335 577 OFFCURVE",
"340 511 CURVE",
"39 49 LINE"
);
}
);
width = 414;
}
);
leftKerningGroup = O;
note = Oslash;
rightKerningGroup = O;
unicode = 00D8;
},
{
glyphname = OE;
lastChange = "2021-12-09 03:28:43 +0000";
layers = (
{
layerId = "9AA098C0-EDBC-463F-BC21-AFCD07A070D0";
paths = (
{
closed = 1;
nodes = (
"225 -12 OFFCURVE",
"272 -4 OFFCURVE",
"300 45 CURVE",
"293 0 LINE",
"534 0 LINE",
"536 11 LINE",
"307 11 LINE",
"348 306 LINE",
"526 306 LINE",
"528 317 LINE",
"350 317 LINE",
"387 580 LINE",
"616 580 LINE",
"617 591 LINE",
"376 591 LINE",
"369 541 LINE",
"354 590 OFFCURVE",
"310 599 OFFCURVE",
"253 599 CURVE SMOOTH",
"165 599 OFFCURVE",
"113 577 OFFCURVE",
"98 469 CURVE SMOOTH",
"49 118 LINE SMOOTH",
"47 105 OFFCURVE",
"46 93 OFFCURVE",
"46 82 CURVE SMOOTH",
"46 7 OFFCURVE",
"90 -12 OFFCURVE",
"166 -12 CURVE SMOOTH"
);
},
{
closed = 1;
nodes = (
"99 -3 OFFCURVE",
"58 13 OFFCURVE",
"58 83 CURVE SMOOTH",
"58 93 OFFCURVE",
"59 103 OFFCURVE",
"60 114 CURVE SMOOTH",
"111 472 LINE SMOOTH",
"124 570 OFFCURVE",
"174 589 OFFCURVE",
"251 589 CURVE SMOOTH",
"320 589 OFFCURVE",
"362 573 OFFCURVE",
"362 502 CURVE SMOOTH",
"362 493 OFFCURVE",
"361 483 OFFCURVE",
"360 472 CURVE SMOOTH",
"308 106 LINE SMOOTH",
"295 15 OFFCURVE",
"245 -3 OFFCURVE",
"168 -3 CURVE SMOOTH"
);
}
);
width = 596;
}
);
leftKerningGroup = O;
note = OE;
rightKerningGroup = E;
unicode = 0152;
},
{
glyphname = P;
lastChange = "2021-12-09 03:28:43 +0000";
layers = (
{
layerId = "9AA098C0-EDBC-463F-BC21-AFCD07A070D0";
paths = (
{
closed = 1;
nodes = (
"55 0 LINE",
"93 271 LINE",
"204 271 LINE SMOOTH",
"324 271 OFFCURVE",
"352 308 OFFCURVE",
"369 418 CURVE SMOOTH",
"380 494 LINE SMOOTH",
"381 501 OFFCURVE",
"381 508 OFFCURVE",
"381 515 CURVE SMOOTH",
"381 572 OFFCURVE",
"345 591 OFFCURVE",
"274 591 CURVE SMOOTH",
"126 591 LINE",
"43 0 LINE"
);
},
{
closed = 1;
nodes = (
"136 580 LINE",
"271 580 LINE SMOOTH",
"342 580 OFFCURVE",
"368 564 OFFCURVE",
"368 511 CURVE SMOOTH",
"368 501 OFFCURVE",
"367 489 OFFCURVE",
"365 476 CURVE SMOOTH",
"357 417 LINE SMOOTH",
"343 313 OFFCURVE",
"313 282 OFFCURVE",
"205 282 CURVE SMOOTH",
"94 282 LINE"
);
}
);
userData = {
assembly = "SVTCA[0]	/* SetFreedomAndProjectionVectorToAxis */\012PUSHW[ ]	/* 1 value pushed */\0120 \012RCVT[ ]	/* ReadCVT */\012IF[ ]	/* If */\012PUSHW[ ]	/* 1 value pushed */\0121 \012MDAP[1]	/* MoveDirectAbsPt */\012ELSE[ ]	/* Else */\012PUSHW[ ]	/* 2 values pushed */\0121 5 \012MIAP[0]	/* MoveIndirectAbsPt */\012EIF[ ]	/* EndIf */\012IUP[0]	/* InterpolateUntPts */\012IUP[1]	/* InterpolateUntPts */";
};
width = 375;
}
);
leftKerningGroup = H;
leftMetricsKey = H;
note = P;
rightKerningGroup = P;
unicode = 0050;
},
{
glyphname = Thorn;
lastChange = "2021-12-09 03:28:43 +0000";
layers = (
{
layerId = "9AA098C0-EDBC-463F-BC21-AFCD07A070D0";
paths = (
{
closed = 1;
nodes = (
"19 0 LINE",
"40 151 LINE",
"176 151 LINE SMOOTH",
"263 151 OFFCURVE",
"303 204 OFFCURVE",
"312 270 CURVE SMOOTH",
"327 374 LINE SMOOTH",
"328 381 OFFCURVE",
"329 387 OFFCURVE",
"329 393 CURVE SMOOTH",
"329 448 OFFCURVE",
"289 471 OFFCURVE",
"235 471 CURVE SMOOTH",
"85 471 LINE",
"102 591 LINE",
"90 591 LINE",
"7 0 LINE"
);
},
{
closed = 1;
nodes = (
"83 460 LINE",
"241 460 LINE SMOOTH",
"282 460 OFFCURVE",
"316 438 OFFCURVE",
"316 391 CURVE SMOOTH",
"316 386 OFFCURVE",
"316 381 OFFCURVE",
"315 376 CURVE SMOOTH",
"300 265 LINE SMOOTH",
"289 197 OFFCURVE",
"242 162 OFFCURVE",
"177 162 CURVE SMOOTH",
"41 162 LINE"
);
}
);
userData = {
assembly = "SVTCA[0]	/* SetFreedomAndProjectionVectorToAxis */\012PUSHW[ ]	/* 1 value pushed */\0120 \012RCVT[ ]	/* ReadCVT */\012IF[ ]	/* If */\012PUSHW[ ]	/* 1 value pushed */\0121 \012MDAP[1]	/* MoveDirectAbsPt */\012ELSE[ ]	/* Else */\012PUSHW[ ]	/* 2 values pushed */\0121 5 \012MIAP[0]	/* MoveIndirectAbsPt */\012EIF[ ]	/* EndIf */\012IUP[0]	/* InterpolateUntPts */\012IUP[1]	/* InterpolateUntPts */";
};
width = 365;
}
);
note = Thorn;
unicode = 00DE;
},
{
glyphname = Q;
lastChange = "2021-12-09 03:28:43 +0000";
layers = (
{
layerId = "9AA098C0-EDBC-463F-BC21-AFCD07A070D0";
paths = (
{
closed = 1;
nodes = (
"276 -103 LINE",
"232 -6 LINE",
"279 5 OFFCURVE",
"311 37 OFFCURVE",
"322 118 CURVE SMOOTH",
"372 469 LINE SMOOTH",
"374 482 OFFCURVE",
"375 494 OFFCURVE",
"375 505 CURVE SMOOTH",
"375 580 OFFCURVE",
"331 599 OFFCURVE",
"254 599 CURVE SMOOTH",
"166 599 OFFCURVE",
"114 577 OFFCURVE",
"99 469 CURVE SMOOTH",
"49 118 LINE SMOOTH",
"47 105 OFFCURVE",
"46 93 OFFCURVE",
"46 82 CURVE SMOOTH",
"46 7 OFFCURVE",
"90 -12 OFFCURVE",
"166 -12 CURVE SMOOTH",
"185 -12 OFFCURVE",
"202 -11 OFFCURVE",
"221 -8 CURVE",
"266 -109 LINE"
);
},
{
closed = 1;
nodes = (
"101 -3 OFFCURVE",
"58 12 OFFCURVE",
"58 80 CURVE SMOOTH",
"58 90 OFFCURVE",
"59 101 OFFCURVE",
"61 114 CURVE SMOOTH",
"111 472 LINE SMOOTH",
"126 569 OFFCURVE",
"175 589 OFFCURVE",
"252 589 CURVE SMOOTH",
"317 589 OFFCURVE",
"363 574 OFFCURVE",
"363 505 CURVE SMOOTH",
"363 495 OFFCURVE",
"362 484 OFFCURVE",
"360 472 CURVE SMOOTH",
"310 114 LINE SMOOTH",
"295 16 OFFCURVE",
"246 -3 OFFCURVE",
"168 -3 CURVE SMOOTH"
);
}
);
userData = {
assembly = "PUSHW[ ]	/* 4 values pushed */\01225 4 6 4 \012CALL[ ]	/* CallFunction */\012PUSHW[ ]	/* 1 value pushed */\01225 \012SRP0[ ]	/* SetRefPoint0 */\012PUSHW[ ]	/* 1 value pushed */\01249 \012MDRP[11100]	/* MoveDirectRelPt */\012SVTCA[0]	/* SetFreedomAndProjectionVectorToAxis */\012PUSHW[ ]	/* 1 value pushed */\0120 \012RCVT[ ]	/* ReadCVT */\012IF[ ]	/* If */\012PUSHW[ ]	/* 1 value pushed */\0123 \012MDAP[1]	/* MoveDirectAbsPt */\012ELSE[ ]	/* Else */\012PUSHW[ ]	/* 2 values pushed */\0123 5 \012MIAP[0]	/* MoveIndirectAbsPt */\012EIF[ ]	/* EndIf */\012PUSHW[ ]	/* 1 value pushed */\0120 \012RCVT[ ]	/* ReadCVT */\012IF[ ]	/* If */\012PUSHW[ ]	/* 1 value pushed */\0126 \012MDAP[1]	/* MoveDirectAbsPt */\012ELSE[ ]	/* Else */\012PUSHW[ ]	/* 2 values pushed */\0126 5 \012MIAP[0]	/* MoveIndirectAbsPt */\012EIF[ ]	/* EndIf */\012PUSHW[ ]	/* 1 value pushed */\0120 \012RCVT[ ]	/* ReadCVT */\012IF[ ]	/* If */\012PUSHW[ ]	/* 1 value pushed */\01242 \012MDAP[1]	/* MoveDirectAbsPt */\012ELSE[ ]	/* Else */\012PUSHW[ ]	/* 2 values pushed */\01242 5 \012MIAP[0]	/* MoveIndirectAbsPt */\012EIF[ ]	/* EndIf */\012IUP[0]	/* InterpolateUntPts */\012IUP[1]	/* InterpolateUntPts */";
};
width = 408;
}
);
leftKerningGroup = O;
leftMetricsKey = O;
note = Q;
rightKerningGroup = O;
rightMetricsKey = O;
unicode = 0051;
},
{
glyphname = R;
lastChange = "2021-12-10 05:00:42 +0000";
layers = (
{
anchors = (
{
name = bottom;
position = "{187, 0}";
},
{
name = top;
position = "{254, 591}";
}
);
background = {
paths = (
{
closed = 1;
nodes = (
"55 0 LINE",
"96 292 LINE",
"215 292 LINE SMOOTH",
"256 292 OFFCURVE",
"277 257 OFFCURVE",
"285 205 CURVE SMOOTH",
"318 0 LINE",
"332 0 LINE",
"294 224 LINE SMOOTH",
"287 256 OFFCURVE",
"270 293 OFFCURVE",
"238 296 CURVE",
"305 296 OFFCURVE",
"358 333 OFFCURVE",
"368 411 CURVE SMOOTH",
"380 494 LINE SMOOTH",
"381 501 OFFCURVE",
"382 507 OFFCURVE",
"382 513 CURVE SMOOTH",
"382 568 OFFCURVE",
"342 591 OFFCURVE",
"288 591 CURVE SMOOTH",
"126 591 LINE",
"43 0 LINE"
);
},
{
closed = 1;
nodes = (
"136 580 LINE",
"294 580 LINE SMOOTH",
"335 580 OFFCURVE",
"369 558 OFFCURVE",
"369 511 CURVE SMOOTH",
"369 506 OFFCURVE",
"369 501 OFFCURVE",
"368 496 CURVE SMOOTH",
"356 409 LINE SMOOTH",
"346 333 OFFCURVE",
"292 303 OFFCURVE",
"222 303 CURVE SMOOTH",
"97 303 LINE"
);
}
);
};
layerId = "9AA098C0-EDBC-463F-BC21-AFCD07A070D0";
paths = (
{
closed = 1;
nodes = (
"55 0 LINE",
"96 292 LINE",
"215 292 LINE SMOOTH",
"256 292 OFFCURVE",
"277 257 OFFCURVE",
"285 205 CURVE SMOOTH",
"318 0 LINE",
"332 0 LINE",
"294 224 LINE SMOOTH",
"289 256 OFFCURVE",
"270 293 OFFCURVE",
"238 296 CURVE",
"305 296 OFFCURVE",
"357 333 OFFCURVE",
"368 411 CURVE SMOOTH",
"380 494 LINE SMOOTH",
"381 501 OFFCURVE",
"382 507 OFFCURVE",
"382 513 CURVE SMOOTH",
"382 568 OFFCURVE",
"342 591 OFFCURVE",
"288 591 CURVE SMOOTH",
"126 591 LINE",
"43 0 LINE"
);
},
{
closed = 1;
nodes = (
"136 580 LINE",
"294 580 LINE SMOOTH",
"335 580 OFFCURVE",
"369 558 OFFCURVE",
"369 511 CURVE SMOOTH",
"369 506 OFFCURVE",
"369 501 OFFCURVE",
"368 496 CURVE SMOOTH",
"356 409 LINE SMOOTH",
"346 339 OFFCURVE",
"298 302 OFFCURVE",
"222 302 CURVE SMOOTH",
"97 302 LINE"
);
}
);
userData = {
assembly = "SVTCA[0]	/* SetFreedomAndProjectionVectorToAxis */\012PUSHW[ ]	/* 1 value pushed */\0120 \012RCVT[ ]	/* ReadCVT */\012IF[ ]	/* If */\012PUSHW[ ]	/* 1 value pushed */\0121 \012MDAP[1]	/* MoveDirectAbsPt */\012ELSE[ ]	/* Else */\012PUSHW[ ]	/* 2 values pushed */\0121 5 \012MIAP[0]	/* MoveIndirectAbsPt */\012EIF[ ]	/* EndIf */\012PUSHW[ ]	/* 1 value pushed */\0120 \012RCVT[ ]	/* ReadCVT */\012IF[ ]	/* If */\012PUSHW[ ]	/* 1 value pushed */\01219 \012MDAP[1]	/* MoveDirectAbsPt */\012ELSE[ ]	/* Else */\012PUSHW[ ]	/* 2 values pushed */\01219 5 \012MIAP[0]	/* MoveIndirectAbsPt */\012EIF[ ]	/* EndIf */\012PUSHW[ ]	/* 4 values pushed */\01215 1 18 4 \012CALL[ ]	/* CallFunction */\012PUSHW[ ]	/* 1 value pushed */\01215 \012SRP0[ ]	/* SetRefPoint0 */\012PUSHW[ ]	/* 1 value pushed */\0120 \012MDRP[10000]	/* MoveDirectRelPt */\012PUSHW[ ]	/* 1 value pushed */\0120 \012MDAP[1]	/* MoveDirectAbsPt */\012PUSHW[ ]	/* 1 value pushed */\01215 \012SRP0[ ]	/* SetRefPoint0 */\012PUSHW[ ]	/* 1 value pushed */\01225 \012MDRP[10000]	/* MoveDirectRelPt */\012PUSHW[ ]	/* 1 value pushed */\01225 \012MDAP[1]	/* MoveDirectAbsPt */\012IUP[0]	/* InterpolateUntPts */\012IUP[1]	/* InterpolateUntPts */";
};
width = 406;
}
);
leftKerningGroup = H;
leftMetricsKey = H;
note = R;
rightKerningGroup = R;
unicode = 0052;
},
{
glyphname = S;
lastChange = "2021-12-10 05:00:31 +0000";
layers = (
{
anchors = (
{
name = bottom;
position = "{147, 0}";
},
{
name = top;
position = "{227, 591}";
}
);
layerId = "9AA098C0-EDBC-463F-BC21-AFCD07A070D0";
paths = (
{
closed = 1;
nodes = (
"223 -9 OFFCURVE",
"281 39 OFFCURVE",
"296 146 CURVE SMOOTH",
"298 159 OFFCURVE",
"299 171 OFFCURVE",
"299 182 CURVE SMOOTH",
"299 218 OFFCURVE",
"289 243 OFFCURVE",
"272 260 CURVE SMOOTH",
"242 290 OFFCURVE",
"192 304 OFFCURVE",
"151 324 CURVE SMOOTH",
"112 343 OFFCURVE",
"89 373 OFFCURVE",
"89 422 CURVE SMOOTH",
"89 430 OFFCURVE",
"90 439 OFFCURVE",
"91 448 CURVE SMOOTH",
"104 540 OFFCURVE",
"143 583 OFFCURVE",
"226 583 CURVE SMOOTH",
"290 583 OFFCURVE",
"326 550 OFFCURVE",
"326 493 CURVE SMOOTH",
"326 485 OFFCURVE",
"325 477 OFFCURVE",
"324 469 CURVE SMOOTH",
"318 429 LINE",
"330 429 LINE",
"336 469 LINE SMOOTH",
"337 478 OFFCURVE",
"338 486 OFFCURVE",
"338 494 CURVE SMOOTH",
"338 558 OFFCURVE",
"298 595 OFFCURVE",
"227 595 CURVE SMOOTH",
"135 595 OFFCURVE",
"92 544 OFFCURVE",
"79 448 CURVE SMOOTH",
"78 438 OFFCURVE",
"77 428 OFFCURVE",
"77 420 CURVE SMOOTH",
"77 352 OFFCURVE",
"119 321 OFFCURVE",
"176 298 CURVE SMOOTH",
"245 271 OFFCURVE",
"287 251 OFFCURVE",
"287 182 CURVE SMOOTH",
"287 171 OFFCURVE",
"286 159 OFFCURVE",
"284 146 CURVE SMOOTH",
"269 45 OFFCURVE",
"218 3 OFFCURVE",
"140 3 CURVE SMOOTH",
"76 3 OFFCURVE",
"44 35 OFFCURVE",
"44 110 CURVE SMOOTH",
"44 126 OFFCURVE",
"46 143 OFFCURVE",
"48 163 CURVE SMOOTH",
"49 175 LINE",
"37 175 LINE",
"36 163 LINE SMOOTH",
"34 143 OFFCURVE",
"32 125 OFFCURVE",
"32 109 CURVE SMOOTH",
"32 27 OFFCURVE",
"67 -9 OFFCURVE",
"139 -9 CURVE SMOOTH"
);
}
);
width = 357;
}
);
leftKerningGroup = S;
note = S;
rightKerningGroup = S;
unicode = 0053;
},
{
glyphname = Germandbls;
lastChange = "2021-12-09 03:28:43 +0000";
layers = (
{
associatedMasterId = "9AA098C0-EDBC-463F-BC21-AFCD07A070D0";
background = {
paths = (
{
closed = 1;
nodes = (
"718 -8 OFFCURVE",
"794 36 OFFCURVE",
"794 171 CURVE SMOOTH",
"794 290 OFFCURVE",
"757 313 OFFCURVE",
"669 345 CURVE SMOOTH",
"626 361 OFFCURVE",
"587 368 OFFCURVE",
"587 427 CURVE SMOOTH",
"587 456 OFFCURVE",
"590 467 OFFCURVE",
"607 467 CURVE SMOOTH",
"628 467 OFFCURVE",
"628 453 OFFCURVE",
"628 399 CURVE SMOOTH",
"628 373 LINE",
"681 373 OFFCURVE",
"734 373 OFFCURVE",
"787 373 CURVE",
"787 449 LINE SMOOTH",
"787 546 OFFCURVE",
"725 593 OFFCURVE",
"605 593 CURVE SMOOTH",
"465 593 OFFCURVE",
"422 548 OFFCURVE",
"422 422 CURVE SMOOTH",
"422 332 OFFCURVE",
"443 279 OFFCURVE",
"518 246 CURVE SMOOTH",
"598 211 OFFCURVE",
"625 211 OFFCURVE",
"625 147 CURVE SMOOTH",
"625 101 OFFCURVE",
"620 92 OFFCURVE",
"605 92 CURVE SMOOTH",
"591 92 OFFCURVE",
"584 101 OFFCURVE",
"584 155 CURVE SMOOTH",
"584 206 LINE",
"528 206 OFFCURVE",
"473 206 OFFCURVE",
"417 206 CURVE",
"417 169 LINE SMOOTH",
"417 26 OFFCURVE",
"480 -8 OFFCURVE",
"599 -8 CURVE SMOOTH"
);
},
{
closed = 1;
nodes = (
"321 -8 OFFCURVE",
"397 36 OFFCURVE",
"397 171 CURVE SMOOTH",
"397 290 OFFCURVE",
"360 313 OFFCURVE",
"272 345 CURVE SMOOTH",
"229 361 OFFCURVE",
"190 368 OFFCURVE",
"190 427 CURVE SMOOTH",
"190 456 OFFCURVE",
"193 467 OFFCURVE",
"210 467 CURVE SMOOTH",
"231 467 OFFCURVE",
"231 453 OFFCURVE",
"231 399 CURVE SMOOTH",
"231 373 LINE",
"284 373 OFFCURVE",
"337 373 OFFCURVE",
"390 373 CURVE",
"390 449 LINE SMOOTH",
"390 546 OFFCURVE",
"328 593 OFFCURVE",
"208 593 CURVE SMOOTH",
"68 593 OFFCURVE",
"25 548 OFFCURVE",
"25 422 CURVE SMOOTH",
"25 332 OFFCURVE",
"46 279 OFFCURVE",
"121 246 CURVE SMOOTH",
"201 211 OFFCURVE",
"228 211 OFFCURVE",
"228 147 CURVE SMOOTH",
"228 101 OFFCURVE",
"223 92 OFFCURVE",
"208 92 CURVE SMOOTH",
"194 92 OFFCURVE",
"187 101 OFFCURVE",
"187 155 CURVE SMOOTH",
"187 206 LINE",
"131 206 OFFCURVE",
"76 206 OFFCURVE",
"20 206 CURVE",
"20 169 LINE SMOOTH",
"20 26 OFFCURVE",
"83 -8 OFFCURVE",
"202 -8 CURVE SMOOTH"
);
}
);
};
layerId = "6ADAA0BD-4310-4C3A-8DC7-22C991837926";
name = Black;
paths = (
{
closed = 1;
nodes = (
"215 -25 LINE",
"214 542 LINE SMOOTH",
"214 556 OFFCURVE",
"221 558 OFFCURVE",
"258 558 CURVE SMOOTH",
"302 558 OFFCURVE",
"302 538 OFFCURVE",
"302 483 CURVE SMOOTH",
"302 435 LINE SMOOTH",
"302 396 OFFCURVE",
"298 373 OFFCURVE",
"276 373 CURVE SMOOTH",
"239 373 LINE",
"238 293 LINE",
"256 293 LINE SMOOTH",
"301 293 OFFCURVE",
"301 270 OFFCURVE",
"301 239 CURVE SMOOTH",
"301 186 LINE SMOOTH",
"301 94 OFFCURVE",
"298 78 OFFCURVE",
"261 78 CURVE SMOOTH",
"241 78 LINE",
"241 0 LINE",
"285 0 LINE SMOOTH",
"398 0 OFFCURVE",
"474 16 OFFCURVE",
"474 121 CURVE SMOOTH",
"474 244 LINE SMOOTH",
"474 303 OFFCURVE",
"419 334 OFFCURVE",
"371 338 CURVE",
"371 342 LINE",
"413 345 OFFCURVE",
"456 382 OFFCURVE",
"456 438 CURVE SMOOTH",
"456 533 LINE SMOOTH",
"456 606 OFFCURVE",
"385 631 OFFCURVE",
"256 631 CURVE SMOOTH",
"89 631 OFFCURVE",
"58 624 OFFCURVE",
"58 584 CURVE",
"58 -25 LINE"
);
}
);
width = 499;
},
{
layerId = "9AA098C0-EDBC-463F-BC21-AFCD07A070D0";
paths = (
{
closed = 1;
nodes = (
"36 -59 LINE",
"118 525 LINE SMOOTH",
"123 558 OFFCURVE",
"122 583 OFFCURVE",
"230 583 CURVE SMOOTH",
"294 583 OFFCURVE",
"325 563 OFFCURVE",
"325 517 CURVE SMOOTH",
"325 511 OFFCURVE",
"324 504 OFFCURVE",
"323 497 CURVE SMOOTH",
"316 448 LINE SMOOTH",
"308 385 OFFCURVE",
"282 346 OFFCURVE",
"211 346 CURVE SMOOTH",
"157 346 LINE",
"156 336 LINE",
"199 336 LINE SMOOTH",
"253 336 OFFCURVE",
"301 319 OFFCURVE",
"301 259 CURVE SMOOTH",
"301 253 OFFCURVE",
"300 246 OFFCURVE",
"299 239 CURVE SMOOTH",
"283 123 LINE SMOOTH",
"269 24 OFFCURVE",
"226 9 OFFCURVE",
"167 9 CURVE SMOOTH",
"90 9 LINE",
"89 0 LINE",
"166 0 LINE SMOOTH",
"231 0 OFFCURVE",
"278 15 OFFCURVE",
"292 119 CURVE SMOOTH",
"310 244 LINE SMOOTH",
"311 250 OFFCURVE",
"311 256 OFFCURVE",
"311 261 CURVE SMOOTH",
"311 307 OFFCURVE",
"282 335 OFFCURVE",
"242 340 CURVE",
"243 343 LINE",
"286 347 OFFCURVE",
"319 385 OFFCURVE",
"326 441 CURVE SMOOTH",
"334 498 LINE SMOOTH",
"335 506 OFFCURVE",
"336 513 OFFCURVE",
"336 520 CURVE SMOOTH",
"336 575 OFFCURVE",
"299 593 OFFCURVE",
"232 593 CURVE SMOOTH",
"125 593 OFFCURVE",
"113 573 OFFCURVE",
"106 527 CURVE SMOOTH",
"24 -59 LINE"
);
}
);
width = 338;
}
);
unicode = 1E9E;
},
{
glyphname = Schwa;
lastChange = "2021-12-09 03:28:50 +0000";
layers = (
{
layerId = "9AA098C0-EDBC-463F-BC21-AFCD07A070D0";
paths = (
{
closed = 1;
nodes = (
"218 -8 OFFCURVE",
"280 6 OFFCURVE",
"296 122 CURVE SMOOTH",
"346 473 LINE SMOOTH",
"348 486 OFFCURVE",
"348 497 OFFCURVE",
"348 507 CURVE SMOOTH",
"348 590 OFFCURVE",
"297 603 OFFCURVE",
"229 603 CURVE SMOOTH",
"149 603 OFFCURVE",
"89 589 OFFCURVE",
"73 473 CURVE SMOOTH",
"63 402 LINE",
"75 402 LINE",
"85 475 LINE SMOOTH",
"99 579 OFFCURVE",
"156 594 OFFCURVE",
"226 594 CURVE SMOOTH",
"287 594 OFFCURVE",
"336 582 OFFCURVE",
"336 506 CURVE SMOOTH",
"336 497 OFFCURVE",
"336 486 OFFCURVE",
"334 475 CURVE SMOOTH",
"285 124 LINE SMOOTH",
"270 19 OFFCURVE",
"219 2 OFFCURVE",
"144 2 CURVE SMOOTH",
"78 2 OFFCURVE",
"33 14 OFFCURVE",
"33 86 CURVE SMOOTH",
"33 96 OFFCURVE",
"33 106 OFFCURVE",
"35 118 CURVE SMOOTH",
"53 247 LINE",
"41 247 LINE",
"23 122 LINE SMOOTH",
"21 109 OFFCURVE",
"21 98 OFFCURVE",
"21 88 CURVE SMOOTH",
"21 5 OFFCURVE",
"72 -8 OFFCURVE",
"141 -8 CURVE SMOOTH"
);
},
{
closed = 1;
nodes = (
"304 236 LINE",
"306 247 LINE",
"41 247 LINE",
"39 236 LINE"
);
}
);
width = 363;
},
{
anchors = (
{
name = bottom;
position = "{197, 0}";
},
{
name = top;
position = "{197, 591}";
}
);
associatedMasterId = "9AA098C0-EDBC-463F-BC21-AFCD07A070D0";
layerId = "EEA0EE5D-DDBE-4C62-9355-9D48BAED48A9";
name = Black;
paths = (
{
closed = 1;
nodes = (
"302 -12 OFFCURVE",
"375 14 OFFCURVE",
"375 173 CURVE SMOOTH",
"375 465 LINE SMOOTH",
"375 564 OFFCURVE",
"302 600 OFFCURVE",
"193 600 CURVE SMOOTH",
"84 600 OFFCURVE",
"18 564 OFFCURVE",
"18 465 CURVE SMOOTH",
"18 327 LINE",
"177 327 LINE",
"177 473 LINE SMOOTH",
"177 496 OFFCURVE",
"184 503 OFFCURVE",
"193 503 CURVE SMOOTH",
"203 503 OFFCURVE",
"209 496 OFFCURVE",
"209 473 CURVE SMOOTH",
"209 110 LINE SMOOTH",
"209 87 OFFCURVE",
"203 80 OFFCURVE",
"193 80 CURVE SMOOTH",
"184 80 OFFCURVE",
"177 87 OFFCURVE",
"177 110 CURVE SMOOTH",
"177 248 LINE",
"18 248 LINE",
"18 174 LINE SMOOTH",
"18 14 OFFCURVE",
"84 -12 OFFCURVE",
"193 -12 CURVE SMOOTH"
);
},
{
closed = 1;
nodes = (
"230 216 LINE",
"230 289 LINE",
"18 289 LINE",
"18 216 LINE"
);
}
);
width = 395;
}
);
leftMetricsKey = "=o-8";
rightKerningGroup = o;
rightMetricsKey = o;
unicode = 018F;
},
{
glyphname = T;
lastChange = "2021-12-09 03:28:43 +0000";
layers = (
{
anchors = (
{
name = bottom;
position = "{97, 0}";
},
{
name = center;
position = "{155, 411}";
},
{
name = top;
position = "{180, 591}";
}
);
layerId = "9AA098C0-EDBC-463F-BC21-AFCD07A070D0";
paths = (
{
closed = 1;
nodes = (
"103 0 LINE",
"184 580 LINE",
"298 580 LINE",
"300 591 LINE",
"61 591 LINE",
"59 580 LINE",
"172 580 LINE",
"91 0 LINE"
);
}
);
userData = {
assembly = "SVTCA[0]	/* SetFreedomAndProjectionVectorToAxis */\012PUSHW[ ]	/* 1 value pushed */\0120 \012RCVT[ ]	/* ReadCVT */\012IF[ ]	/* If */\012PUSHW[ ]	/* 1 value pushed */\0123 \012MDAP[1]	/* MoveDirectAbsPt */\012ELSE[ ]	/* Else */\012PUSHW[ ]	/* 2 values pushed */\0123 5 \012MIAP[0]	/* MoveIndirectAbsPt */\012EIF[ ]	/* EndIf */\012IUP[0]	/* InterpolateUntPts */\012IUP[1]	/* InterpolateUntPts */";
};
width = 264;
}
);
leftKerningGroup = T;
note = T;
rightKerningGroup = T;
unicode = 0054;
},
{
glyphname = U;
lastChange = "2021-12-09 03:28:50 +0000";
layers = (
{
anchors = (
{
name = bottom;
position = "{178, 0}";
},
{
name = ogonek;
position = "{190, -10}";
},
{
name = top;
position = "{261, 591}";
},
{
name = topright;
position = "{378, 591}";
}
);
layerId = "9AA098C0-EDBC-463F-BC21-AFCD07A070D0";
paths = (
{
closed = 1;
nodes = (
"253 -12 OFFCURVE",
"316 13 OFFCURVE",
"330 110 CURVE SMOOTH",
"397 591 LINE",
"385 591 LINE",
"317 106 LINE SMOOTH",
"305 19 OFFCURVE",
"242 -3 OFFCURVE",
"172 -3 CURVE SMOOTH",
"110 -3 OFFCURVE",
"66 15 OFFCURVE",
"66 81 CURVE SMOOTH",
"66 88 OFFCURVE",
"67 97 OFFCURVE",
"68 106 CURVE SMOOTH",
"136 591 LINE",
"124 591 LINE",
"57 110 LINE SMOOTH",
"55 99 OFFCURVE",
"54 88 OFFCURVE",
"54 79 CURVE SMOOTH",
"54 8 OFFCURVE",
"101 -12 OFFCURVE",
"171 -12 CURVE SMOOTH"
);
}
);
width = 425;
}
);
leftKerningGroup = U;
leftMetricsKey = "=H-2";
note = U;
rightKerningGroup = U;
rightMetricsKey = "=H-2";
unicode = 0055;
},
{
glyphname = V;
lastChange = "2021-12-09 03:28:43 +0000";
layers = (
{
layerId = "9AA098C0-EDBC-463F-BC21-AFCD07A070D0";
paths = (
{
closed = 1;
nodes = (
"130 0 LINE",
"165 101 OFFCURVE",
"199 199 OFFCURVE",
"233 296 CURVE SMOOTH",
"335 591 LINE",
"323 591 LINE",
"127 24 LINE",
"85 591 LINE",
"73 591 LINE",
"79 491 OFFCURVE",
"86 393 OFFCURVE",
"95 296 CURVE SMOOTH",
"103 199 OFFCURVE",
"110 101 OFFCURVE",
"117 0 CURVE"
);
}
);
userData = {
assembly = "SVTCA[0]	/* SetFreedomAndProjectionVectorToAxis */\012PUSHW[ ]	/* 1 value pushed */\0120 \012RCVT[ ]	/* ReadCVT */\012IF[ ]	/* If */\012PUSHW[ ]	/* 1 value pushed */\0126 \012MDAP[1]	/* MoveDirectAbsPt */\012ELSE[ ]	/* Else */\012PUSHW[ ]	/* 2 values pushed */\0126 5 \012MIAP[0]	/* MoveIndirectAbsPt */\012EIF[ ]	/* EndIf */\012IUP[0]	/* InterpolateUntPts */\012IUP[1]	/* InterpolateUntPts */";
};
width = 311;
}
);
leftKerningGroup = V;
note = V;
rightKerningGroup = V;
unicode = 0056;
},
{
glyphname = W;
lastChange = "2021-12-09 03:51:08 +0000";
layers = (
{
anchors = (
{
name = bottom;
position = "{223, 0}";
},
{
name = top;
position = "{306, 591}";
}
);
background = {
paths = (
{
closed = 1;
nodes = (
"101 0 LINE",
"301 565 LINE",
"339 0 LINE",
"354 0 LINE",
"384 101 OFFCURVE",
"414 199 OFFCURVE",
"445 296 CURVE SMOOTH",
"476 392 OFFCURVE",
"506 490 OFFCURVE",
"537 591 CURVE",
"524 591 LINE",
"351 38 LINE",
"312 591 LINE",
"298 591 LINE",
"102 38 LINE",
"85 591 LINE",
"72 591 LINE",
"74 491 OFFCURVE",
"77 393 OFFCURVE",
"81 296 CURVE SMOOTH",
"84 199 OFFCURVE",
"87 101 OFFCURVE",
"89 0 CURVE"
);
},
{
closed = 1;
nodes = (
"101 0 LINE",
"302 569 LINE",
"339 0 LINE",
"354 0 LINE",
"415 201 OFFCURVE",
"477 390 OFFCURVE",
"538 591 CURVE",
"527 591 LINE",
"350 26 LINE",
"313 591 LINE",
"300 591 LINE",
"99 26 LINE",
"85 591 LINE",
"73 591 LINE",
"89 0 LINE"
);
}
);
};
layerId = "9AA098C0-EDBC-463F-BC21-AFCD07A070D0";
paths = (
{
closed = 1;
nodes = (
"101 0 LINE",
"303 574 LINE",
"340 0 LINE",
"354 0 LINE",
"538 591 LINE",
"528 591 LINE",
"350 22 LINE",
"312 591 LINE",
"299 591 LINE",
"98 22 LINE",
"84 591 LINE",
"73 591 LINE",
"89 0 LINE"
);
}
);
userData = {
assembly = "SVTCA[0]	/* SetFreedomAndProjectionVectorToAxis */\012PUSHW[ ]	/* 1 value pushed */\0120 \012RCVT[ ]	/* ReadCVT */\012IF[ ]	/* If */\012PUSHW[ ]	/* 1 value pushed */\0129 \012MDAP[1]	/* MoveDirectAbsPt */\012ELSE[ ]	/* Else */\012PUSHW[ ]	/* 2 values pushed */\0129 5 \012MIAP[0]	/* MoveIndirectAbsPt */\012EIF[ ]	/* EndIf */\012PUSHW[ ]	/* 1 value pushed */\0120 \012RCVT[ ]	/* ReadCVT */\012IF[ ]	/* If */\012PUSHW[ ]	/* 1 value pushed */\01212 \012MDAP[1]	/* MoveDirectAbsPt */\012ELSE[ ]	/* Else */\012PUSHW[ ]	/* 2 values pushed */\01212 5 \012MIAP[0]	/* MoveIndirectAbsPt */\012EIF[ ]	/* EndIf */\012IUP[0]	/* InterpolateUntPts */\012IUP[1]	/* InterpolateUntPts */";
};
width = 515;
}
);
leftKerningGroup = W;
note = W;
rightKerningGroup = W;
unicode = 0057;
},
{
glyphname = X;
lastChange = "2021-12-09 03:28:43 +0000";
layers = (
{
layerId = "9AA098C0-EDBC-463F-BC21-AFCD07A070D0";
paths = (
{
closed = 1;
nodes = (
"1 0 LINE",
"140 292 LINE",
"158 292 LINE",
"213 0 LINE",
"228 0 LINE",
"169 298 LINE",
"313 591 LINE",
"299 591 LINE",
"159 303 LINE",
"141 303 LINE",
"94 591 LINE",
"80 591 LINE",
"130 298 LINE",
"-14 0 LINE"
);
}
);
userData = {
assembly = "SVTCA[0]	/* SetFreedomAndProjectionVectorToAxis */\012PUSHW[ ]	/* 1 value pushed */\0120 \012RCVT[ ]	/* ReadCVT */\012IF[ ]	/* If */\012PUSHW[ ]	/* 1 value pushed */\0120 \012MDAP[1]	/* MoveDirectAbsPt */\012ELSE[ ]	/* Else */\012PUSHW[ ]	/* 2 values pushed */\0120 5 \012MIAP[0]	/* MoveIndirectAbsPt */\012EIF[ ]	/* EndIf */\012PUSHW[ ]	/* 1 value pushed */\0120 \012RCVT[ ]	/* ReadCVT */\012IF[ ]	/* If */\012PUSHW[ ]	/* 1 value pushed */\0129 \012MDAP[1]	/* MoveDirectAbsPt */\012ELSE[ ]	/* Else */\012PUSHW[ ]	/* 2 values pushed */\0129 5 \012MIAP[0]	/* MoveIndirectAbsPt */\012EIF[ ]	/* EndIf */\012IUP[0]	/* InterpolateUntPts */\012IUP[1]	/* InterpolateUntPts */";
};
width = 287;
}
);
note = X;
unicode = 0058;
},
{
glyphname = Y;
lastChange = "2021-12-09 03:28:43 +0000";
layers = (
{
anchors = (
{
name = bottom;
position = "{103, 0}";
},
{
name = top;
position = "{186, 591}";
},
{
name = topleft;
position = "{79, 591}";
}
);
layerId = "9AA098C0-EDBC-463F-BC21-AFCD07A070D0";
paths = (
{
closed = 1;
nodes = (
"109 0 LINE",
"144 251 LINE",
"317 591 LINE",
"302 591 LINE",
"141 269 LINE",
"84 591 LINE",
"69 591 LINE",
"132 253 LINE",
"97 0 LINE"
);
}
);
userData = {
assembly = "SVTCA[0]	/* SetFreedomAndProjectionVectorToAxis */\012PUSHW[ ]	/* 1 value pushed */\0120 \012RCVT[ ]	/* ReadCVT */\012IF[ ]	/* If */\012PUSHW[ ]	/* 1 value pushed */\0120 \012MDAP[1]	/* MoveDirectAbsPt */\012ELSE[ ]	/* Else */\012PUSHW[ ]	/* 2 values pushed */\0120 5 \012MIAP[0]	/* MoveIndirectAbsPt */\012EIF[ ]	/* EndIf */\012IUP[0]	/* InterpolateUntPts */\012IUP[1]	/* InterpolateUntPts */";
};
width = 291;
}
);
leftKerningGroup = Y;
note = Y;
rightKerningGroup = Y;
unicode = 0059;
},
{
glyphname = Z;
lastChange = "2021-12-09 03:28:43 +0000";
layers = (
{
anchors = (
{
name = bottom;
position = "{98, 0}";
},
{
name = center;
position = "{140, 296}";
},
{
name = top;
position = "{181, 591}";
}
);
layerId = "9AA098C0-EDBC-463F-BC21-AFCD07A070D0";
paths = (
{
closed = 1;
nodes = (
"207 0 LINE",
"208 11 LINE",
"1 11 LINE",
"280 577 LINE",
"282 591 LINE",
"82 591 LINE",
"80 580 LINE",
"269 580 LINE",
"-12 14 LINE",
"-13 0 LINE"
);
}
);
userData = {
assembly = "SVTCA[0]	/* SetFreedomAndProjectionVectorToAxis */\012PUSHW[ ]	/* 1 value pushed */\0120 \012RCVT[ ]	/* ReadCVT */\012IF[ ]	/* If */\012PUSHW[ ]	/* 1 value pushed */\0125 \012MDAP[1]	/* MoveDirectAbsPt */\012ELSE[ ]	/* Else */\012PUSHW[ ]	/* 2 values pushed */\0125 5 \012MIAP[0]	/* MoveIndirectAbsPt */\012EIF[ ]	/* EndIf */\012IUP[0]	/* InterpolateUntPts */\012IUP[1]	/* InterpolateUntPts */";
};
width = 264;
}
);
leftKerningGroup = Z;
note = Z;
rightKerningGroup = Z;
unicode = 005A;
},
{
glyphname = a;
lastChange = "2021-12-09 03:32:02 +0000";
layers = (
{
anchors = (
{
name = bottom;
position = "{131, 0}";
},
{
name = ogonek;
position = "{264, 0}";
},
{
name = top;
position = "{217, 495}";
}
);
layerId = "9AA098C0-EDBC-463F-BC21-AFCD07A070D0";
paths = (
{
closed = 1;
nodes = (
"192 -7 OFFCURVE",
"234 49 OFFCURVE",
"259 106 CURVE",
"243 0 LINE",
"254 0 LINE",
"324 494 LINE",
"313 494 LINE",
"309 459 LINE",
"291 486 OFFCURVE",
"254 503 OFFCURVE",
"206 503 CURVE SMOOTH",
"104 503 OFFCURVE",
"79 447 OFFCURVE",
"68 372 CURVE SMOOTH",
"32 124 LINE SMOOTH",
"30 108 OFFCURVE",
"29 93 OFFCURVE",
"29 79 CURVE SMOOTH",
"29 29 OFFCURVE",
"45 -7 OFFCURVE",
"108 -7 CURVE SMOOTH"
);
},
{
closed = 1;
nodes = (
"55 3 OFFCURVE",
"40 35 OFFCURVE",
"40 80 CURVE SMOOTH",
"40 94 OFFCURVE",
"42 110 OFFCURVE",
"44 127 CURVE SMOOTH",
"78 369 LINE SMOOTH",
"88 439 OFFCURVE",
"111 493 OFFCURVE",
"205 493 CURVE SMOOTH",
"265 493 OFFCURVE",
"301 465 OFFCURVE",
"306 437 CURVE",
"270 186 LINE SMOOTH",
"261 126 OFFCURVE",
"227 3 OFFCURVE",
"113 3 CURVE SMOOTH"
);
}
);
userData = {
assembly = "SVTCA[0]	/* SetFreedomAndProjectionVectorToAxis */\012PUSHW[ ]	/* 1 value pushed */\0120 \012RCVT[ ]	/* ReadCVT */\012IF[ ]	/* If */\012PUSHW[ ]	/* 1 value pushed */\01222 \012MDAP[1]	/* MoveDirectAbsPt */\012ELSE[ ]	/* Else */\012PUSHW[ ]	/* 2 values pushed */\01222 9 \012MIAP[0]	/* MoveIndirectAbsPt */\012EIF[ ]	/* EndIf */\012PUSHW[ ]	/* 1 value pushed */\0120 \012RCVT[ ]	/* ReadCVT */\012IF[ ]	/* If */\012PUSHW[ ]	/* 1 value pushed */\01240 \012MDAP[1]	/* MoveDirectAbsPt */\012ELSE[ ]	/* Else */\012PUSHW[ ]	/* 2 values pushed */\01240 9 \012MIAP[0]	/* MoveIndirectAbsPt */\012EIF[ ]	/* EndIf */\012PUSHW[ ]	/* 1 value pushed */\0120 \012RCVT[ ]	/* ReadCVT */\012IF[ ]	/* If */\012PUSHW[ ]	/* 1 value pushed */\0120 \012MDAP[1]	/* MoveDirectAbsPt */\012ELSE[ ]	/* Else */\012PUSHW[ ]	/* 2 values pushed */\0120 5 \012MIAP[0]	/* MoveIndirectAbsPt */\012EIF[ ]	/* EndIf */\012PUSHW[ ]	/* 1 value pushed */\0120 \012RCVT[ ]	/* ReadCVT */\012IF[ ]	/* If */\012PUSHW[ ]	/* 1 value pushed */\0127 \012MDAP[1]	/* MoveDirectAbsPt */\012ELSE[ ]	/* Else */\012PUSHW[ ]	/* 2 values pushed */\0127 5 \012MIAP[0]	/* MoveIndirectAbsPt */\012EIF[ ]	/* EndIf */\012PUSHW[ ]	/* 1 value pushed */\0120 \012RCVT[ ]	/* ReadCVT */\012IF[ ]	/* If */\012PUSHW[ ]	/* 1 value pushed */\01229 \012MDAP[1]	/* MoveDirectAbsPt */\012ELSE[ ]	/* Else */\012PUSHW[ ]	/* 2 values pushed */\01229 5 \012MIAP[0]	/* MoveIndirectAbsPt */\012EIF[ ]	/* EndIf */\012PUSHW[ ]	/* 3 values pushed */\0122 7 22 \012SRP1[ ]	/* SetRefPoint1 */\012SRP2[ ]	/* SetRefPoint2 */\012IP[ ]	/* InterpolatePts */\012PUSHW[ ]	/* 3 values pushed */\01221 7 22 \012SRP1[ ]	/* SetRefPoint1 */\012SRP2[ ]	/* SetRefPoint2 */\012IP[ ]	/* InterpolatePts */\012IUP[0]	/* InterpolateUntPts */\012IUP[1]	/* InterpolateUntPts */";
};
width = 348;
}
);
leftKerningGroup = o;
leftMetricsKey = o;
note = a;
rightKerningGroup = n;
unicode = 0061;
},
{
glyphname = ae;
lastChange = "2021-12-09 03:28:43 +0000";
layers = (
{
anchors = (
{
name = bottom;
position = "{242, 0}";
},
{
name = top;
position = "{312, 495}";
}
);
layerId = "9AA098C0-EDBC-463F-BC21-AFCD07A070D0";
paths = (
{
closed = 1;
nodes = (
"467 -14 OFFCURVE",
"489 41 OFFCURVE",
"499 117 CURVE SMOOTH",
"505 160 LINE",
"494 160 LINE",
"489 120 LINE SMOOTH",
"479 50 OFFCURVE",
"459 -4 OFFCURVE",
"364 -4 CURVE SMOOTH",
"288 -4 OFFCURVE",
"268 28 OFFCURVE",
"268 77 CURVE SMOOTH",
"268 90 OFFCURVE",
"270 105 OFFCURVE",
"272 120 CURVE SMOOTH",
"286 221 LINE",
"329 224 OFFCURVE",
"368 232 OFFCURVE",
"403 244 CURVE SMOOTH",
"465 264 OFFCURVE",
"525 302 OFFCURVE",
"535 365 CURVE SMOOTH",
"537 381 OFFCURVE",
"539 396 OFFCURVE",
"539 410 CURVE SMOOTH",
"539 462 OFFCURVE",
"518 496 OFFCURVE",
"435 496 CURVE SMOOTH",
"366 496 OFFCURVE",
"333 471 OFFCURVE",
"316 438 CURVE",
"324 494 LINE",
"313 494 LINE",
"309 466 LINE",
"306 472 OFFCURVE",
"297 480 OFFCURVE",
"281 489 CURVE SMOOTH",
"264 498 OFFCURVE",
"239 503 OFFCURVE",
"206 503 CURVE SMOOTH",
"104 503 OFFCURVE",
"78 447 OFFCURVE",
"68 372 CURVE SMOOTH",
"32 124 LINE SMOOTH",
"30 108 OFFCURVE",
"29 93 OFFCURVE",
"29 79 CURVE SMOOTH",
"29 29 OFFCURVE",
"45 -7 OFFCURVE",
"108 -7 CURVE SMOOTH",
"192 -7 OFFCURVE",
"233 47 OFFCURVE",
"259 105 CURVE",
"259 104 OFFCURVE",
"259 104 OFFCURVE",
"259 104 CURVE",
"258 101 LINE",
"243 0 LINE",
"254 0 LINE",
"260 43 LINE",
"268 10 OFFCURVE",
"295 -14 OFFCURVE",
"363 -14 CURVE SMOOTH"
);
},
{
closed = 1;
nodes = (
"55 3 OFFCURVE",
"40 35 OFFCURVE",
"40 80 CURVE SMOOTH",
"40 94 OFFCURVE",
"42 110 OFFCURVE",
"44 127 CURVE SMOOTH",
"78 369 LINE SMOOTH",
"88 439 OFFCURVE",
"111 493 OFFCURVE",
"205 493 CURVE SMOOTH",
"277 493 OFFCURVE",
"275 477 OFFCURVE",
"307 445 CURVE",
"270 186 LINE SMOOTH",
"259 126 OFFCURVE",
"227 3 OFFCURVE",
"113 3 CURVE SMOOTH"
);
},
{
closed = 1;
nodes = (
"306 362 LINE SMOOTH",
"316 432 OFFCURVE",
"340 486 OFFCURVE",
"434 486 CURVE SMOOTH",
"508 486 OFFCURVE",
"528 454 OFFCURVE",
"528 408 CURVE SMOOTH",
"528 395 OFFCURVE",
"526 381 OFFCURVE",
"524 367 CURVE SMOOTH",
"516 307 OFFCURVE",
"456 272 OFFCURVE",
"399 253 CURVE SMOOTH",
"366 242 OFFCURVE",
"329 234 OFFCURVE",
"288 231 CURVE"
);
}
);
userData = {
assembly = "SVTCA[0]	/* SetFreedomAndProjectionVectorToAxis */\012PUSHW[ ]	/* 1 value pushed */\0120 \012RCVT[ ]	/* ReadCVT */\012IF[ ]	/* If */\012PUSHW[ ]	/* 1 value pushed */\01235 \012MDAP[1]	/* MoveDirectAbsPt */\012ELSE[ ]	/* Else */\012PUSHW[ ]	/* 2 values pushed */\01235 9 \012MIAP[0]	/* MoveIndirectAbsPt */\012EIF[ ]	/* EndIf */\012PUSHW[ ]	/* 1 value pushed */\0120 \012RCVT[ ]	/* ReadCVT */\012IF[ ]	/* If */\012PUSHW[ ]	/* 1 value pushed */\01240 \012MDAP[1]	/* MoveDirectAbsPt */\012ELSE[ ]	/* Else */\012PUSHW[ ]	/* 2 values pushed */\01240 9 \012MIAP[0]	/* MoveIndirectAbsPt */\012EIF[ ]	/* EndIf */\012PUSHW[ ]	/* 1 value pushed */\0120 \012RCVT[ ]	/* ReadCVT */\012IF[ ]	/* If */\012PUSHW[ ]	/* 1 value pushed */\01281 \012MDAP[1]	/* MoveDirectAbsPt */\012ELSE[ ]	/* Else */\012PUSHW[ ]	/* 2 values pushed */\01281 9 \012MIAP[0]	/* MoveIndirectAbsPt */\012EIF[ ]	/* EndIf */\012PUSHW[ ]	/* 1 value pushed */\0120 \012RCVT[ ]	/* ReadCVT */\012IF[ ]	/* If */\012PUSHW[ ]	/* 1 value pushed */\01210 \012MDAP[1]	/* MoveDirectAbsPt */\012ELSE[ ]	/* Else */\012PUSHW[ ]	/* 2 values pushed */\01210 5 \012MIAP[0]	/* MoveIndirectAbsPt */\012EIF[ ]	/* EndIf */\012PUSHW[ ]	/* 1 value pushed */\0120 \012RCVT[ ]	/* ReadCVT */\012IF[ ]	/* If */\012PUSHW[ ]	/* 1 value pushed */\01220 \012MDAP[1]	/* MoveDirectAbsPt */\012ELSE[ ]	/* Else */\012PUSHW[ ]	/* 2 values pushed */\01220 5 \012MIAP[0]	/* MoveIndirectAbsPt */\012EIF[ ]	/* EndIf */\012PUSHW[ ]	/* 1 value pushed */\0120 \012RCVT[ ]	/* ReadCVT */\012IF[ ]	/* If */\012PUSHW[ ]	/* 1 value pushed */\01258 \012MDAP[1]	/* MoveDirectAbsPt */\012ELSE[ ]	/* Else */\012PUSHW[ ]	/* 2 values pushed */\01258 5 \012MIAP[0]	/* MoveIndirectAbsPt */\012EIF[ ]	/* EndIf */\012PUSHW[ ]	/* 1 value pushed */\0120 \012RCVT[ ]	/* ReadCVT */\012IF[ ]	/* If */\012PUSHW[ ]	/* 1 value pushed */\01270 \012MDAP[1]	/* MoveDirectAbsPt */\012ELSE[ ]	/* Else */\012PUSHW[ ]	/* 2 values pushed */\01270 5 \012MIAP[0]	/* MoveIndirectAbsPt */\012EIF[ ]	/* EndIf */\012PUSHW[ ]	/* 3 values pushed */\0129 20 40 \012SRP1[ ]	/* SetRefPoint1 */\012SRP2[ ]	/* SetRefPoint2 */\012IP[ ]	/* InterpolatePts */\012PUSHW[ ]	/* 3 values pushed */\01215 20 40 \012SRP1[ ]	/* SetRefPoint1 */\012SRP2[ ]	/* SetRefPoint2 */\012IP[ ]	/* InterpolatePts */\012PUSHW[ ]	/* 3 values pushed */\01234 20 40 \012SRP1[ ]	/* SetRefPoint1 */\012SRP2[ ]	/* SetRefPoint2 */\012IP[ ]	/* InterpolatePts */\012PUSHW[ ]	/* 3 values pushed */\01237 20 40 \012SRP1[ ]	/* SetRefPoint1 */\012SRP2[ ]	/* SetRefPoint2 */\012IP[ ]	/* InterpolatePts */\012IUP[0]	/* InterpolateUntPts */\012IUP[1]	/* InterpolateUntPts */";
};
width = 557;
}
);
leftKerningGroup = o;
note = ae;
rightKerningGroup = e;
unicode = 00E6;
},
{
glyphname = b;
lastChange = "2021-12-09 03:32:08 +0000";
layers = (
{
layerId = "9AA098C0-EDBC-463F-BC21-AFCD07A070D0";
paths = (
{
closed = 1;
nodes = (
"252 -7 OFFCURVE",
"273 47 OFFCURVE",
"283 124 CURVE SMOOTH",
"319 372 LINE SMOOTH",
"321 388 OFFCURVE",
"323 403 OFFCURVE",
"323 417 CURVE SMOOTH",
"323 469 OFFCURVE",
"302 503 OFFCURVE",
"219 503 CURVE SMOOTH",
"152 503 OFFCURVE",
"119 480 OFFCURVE",
"102 449 CURVE",
"128 630 LINE",
"117 630 LINE",
"44 124 LINE SMOOTH",
"42 110 OFFCURVE",
"41 97 OFFCURVE",
"41 85 CURVE SMOOTH",
"41 29 OFFCURVE",
"64 -7 OFFCURVE",
"147 -7 CURVE SMOOTH"
);
},
{
closed = 1;
nodes = (
"73 3 OFFCURVE",
"53 36 OFFCURVE",
"53 86 CURVE SMOOTH",
"53 98 OFFCURVE",
"54 112 OFFCURVE",
"56 127 CURVE SMOOTH",
"93 387 LINE SMOOTH",
"102 450 OFFCURVE",
"131 493 OFFCURVE",
"218 493 CURVE SMOOTH",
"292 493 OFFCURVE",
"311 462 OFFCURVE",
"311 414 CURVE SMOOTH",
"311 400 OFFCURVE",
"309 385 OFFCURVE",
"307 369 CURVE SMOOTH",
"273 127 LINE SMOOTH",
"263 57 OFFCURVE",
"243 3 OFFCURVE",
"148 3 CURVE SMOOTH"
);
}
);
userData = {
assembly = "SVTCA[0]	/* SetFreedomAndProjectionVectorToAxis */\012PUSHW[ ]	/* 1 value pushed */\01238 \012MDAP[1]	/* MoveDirectAbsPt */\012IUP[0]	/* InterpolateUntPts */\012IUP[1]	/* InterpolateUntPts */";
};
width = 351;
}
);
leftKerningGroup = b;
leftMetricsKey = "=n-3";
note = b;
rightKerningGroup = o;
rightMetricsKey = o;
unicode = 0062;
},
{
glyphname = c;
lastChange = "2021-12-09 03:32:48 +0000";
layers = (
{
anchors = (
{
name = bottom;
position = "{133, 0}";
},
{
name = top;
position = "{204, 495}";
}
);
layerId = "9AA098C0-EDBC-463F-BC21-AFCD07A070D0";
paths = (
{
closed = 1;
nodes = (
"237 -7 OFFCURVE",
"261 49 OFFCURVE",
"271 124 CURVE SMOOTH",
"277 167 LINE",
"266 167 LINE",
"260 127 LINE SMOOTH",
"250 57 OFFCURVE",
"230 3 OFFCURVE",
"135 3 CURVE SMOOTH",
"60 3 OFFCURVE",
"40 36 OFFCURVE",
"40 86 CURVE SMOOTH",
"40 98 OFFCURVE",
"41 112 OFFCURVE",
"43 127 CURVE SMOOTH",
"77 369 LINE SMOOTH",
"87 440 OFFCURVE",
"110 493 OFFCURVE",
"204 493 CURVE SMOOTH",
"263 493 OFFCURVE",
"289 463 OFFCURVE",
"289 426 CURVE SMOOTH",
"289 405 OFFCURVE",
"280 382 OFFCURVE",
"265 361 CURVE SMOOTH",
"233 315 LINE",
"246 315 LINE",
"278 361 LINE SMOOTH",
"293 383 OFFCURVE",
"301 406 OFFCURVE",
"301 428 CURVE SMOOTH",
"301 469 OFFCURVE",
"272 503 OFFCURVE",
"205 503 CURVE SMOOTH",
"101 503 OFFCURVE",
"77 446 OFFCURVE",
"67 372 CURVE SMOOTH",
"32 124 LINE SMOOTH",
"30 109 OFFCURVE",
"29 94 OFFCURVE",
"29 81 CURVE SMOOTH",
"29 27 OFFCURVE",
"50 -7 OFFCURVE",
"134 -7 CURVE SMOOTH"
);
}
);
width = 327;
}
);
leftKerningGroup = o;
leftMetricsKey = o;
note = c;
rightKerningGroup = c;
rightMetricsKey = "=o-10";
unicode = 0063;
},
{
glyphname = d;
lastChange = "2021-12-10 04:08:54 +0000";
layers = (
{
anchors = (
{
name = bottom;
position = "{132, 0}";
},
{
name = center;
position = "{291, 553}";
},
{
name = top;
position = "{336, 630}";
},
{
name = topright;
position = "{379, 503}";
}
);
layerId = "9AA098C0-EDBC-463F-BC21-AFCD07A070D0";
paths = (
{
closed = 1;
nodes = (
"238 -7 OFFCURVE",
"260 48 OFFCURVE",
"271 124 CURVE SMOOTH",
"344 630 LINE",
"333 630 LINE",
"307 449 LINE",
"298 480 OFFCURVE",
"273 503 OFFCURVE",
"206 503 CURVE SMOOTH",
"104 503 OFFCURVE",
"79 447 OFFCURVE",
"68 372 CURVE SMOOTH",
"32 124 LINE SMOOTH",
"30 110 OFFCURVE",
"29 96 OFFCURVE",
"29 84 CURVE SMOOTH",
"29 28 OFFCURVE",
"52 -7 OFFCURVE",
"134 -7 CURVE SMOOTH"
);
},
{
closed = 1;
nodes = (
"61 3 OFFCURVE",
"41 36 OFFCURVE",
"41 86 CURVE SMOOTH",
"41 98 OFFCURVE",
"42 112 OFFCURVE",
"44 127 CURVE SMOOTH",
"78 369 LINE SMOOTH",
"88 439 OFFCURVE",
"111 493 OFFCURVE",
"205 493 CURVE SMOOTH",
"277 493 OFFCURVE",
"300 463 OFFCURVE",
"300 415 CURVE SMOOTH",
"300 406 OFFCURVE",
"299 397 OFFCURVE",
"298 387 CURVE SMOOTH",
"261 127 LINE SMOOTH",
"251 56 OFFCURVE",
"231 3 OFFCURVE",
"135 3 CURVE SMOOTH"
);
}
);
userData = {
assembly = "SVTCA[0]	/* SetFreedomAndProjectionVectorToAxis */\012PUSHW[ ]	/* 1 value pushed */\01227 \012MDAP[1]	/* MoveDirectAbsPt */\012IUP[0]	/* InterpolateUntPts */\012IUP[1]	/* InterpolateUntPts */";
};
width = 344;
}
);
leftKerningGroup = o;
leftMetricsKey = o;
note = d;
rightKerningGroup = d;
rightMetricsKey = n;
unicode = 0064;
},
{
glyphname = eth;
lastChange = "2021-12-09 03:28:43 +0000";
layers = (
{
layerId = "9AA098C0-EDBC-463F-BC21-AFCD07A070D0";
paths = (
{
closed = 1;
nodes = (
"226 -7 OFFCURVE",
"260 39 OFFCURVE",
"271 123 CURVE SMOOTH",
"317 449 LINE SMOOTH",
"323 493 OFFCURVE",
"327 531 OFFCURVE",
"327 561 CURVE SMOOTH",
"327 576 OFFCURVE",
"326 588 OFFCURVE",
"324 599 CURVE SMOOTH",
"313 646 OFFCURVE",
"284 658 OFFCURVE",
"249 661 CURVE",
"281 707 LINE",
"269 707 LINE",
"238 661 LINE",
"199 660 OFFCURVE",
"167 653 OFFCURVE",
"148 646 CURVE",
"147 636 LINE",
"166 642 OFFCURVE",
"207 651 OFFCURVE",
"227 651 CURVE SMOOTH",
"231 651 LINE",
"192 591 LINE",
"204 591 LINE",
"243 650 LINE",
"299 646 OFFCURVE",
"314 613 OFFCURVE",
"314 557 CURVE SMOOTH",
"314 530 OFFCURVE",
"311 499 OFFCURVE",
"307 463 CURVE",
"290 486 OFFCURVE",
"259 503 OFFCURVE",
"204 503 CURVE SMOOTH",
"100 503 OFFCURVE",
"77 447 OFFCURVE",
"67 372 CURVE SMOOTH",
"32 124 LINE SMOOTH",
"30 109 OFFCURVE",
"29 94 OFFCURVE",
"29 81 CURVE SMOOTH",
"29 27 OFFCURVE",
"50 -7 OFFCURVE",
"133 -7 CURVE SMOOTH"
);
},
{
closed = 1;
nodes = (
"59 3 OFFCURVE",
"40 36 OFFCURVE",
"40 85 CURVE SMOOTH",
"40 98 OFFCURVE",
"41 112 OFFCURVE",
"43 127 CURVE SMOOTH",
"77 369 LINE SMOOTH",
"87 439 OFFCURVE",
"109 493 OFFCURVE",
"203 493 CURVE SMOOTH",
"269 493 OFFCURVE",
"275 475 OFFCURVE",
"305 445 CURVE",
"260 127 LINE SMOOTH",
"250 59 OFFCURVE",
"232 3 OFFCURVE",
"134 3 CURVE SMOOTH"
);
}
);
userData = {
assembly = "PUSHW[ ]	/* 3 values pushed */\01268 47 3 \012CALL[ ]	/* CallFunction */\012SVTCA[0]	/* SetFreedomAndProjectionVectorToAxis */\012PUSHW[ ]	/* 1 value pushed */\01252 \012MDAP[1]	/* MoveDirectAbsPt */\012IUP[0]	/* InterpolateUntPts */\012IUP[1]	/* InterpolateUntPts */";
};
width = 338;
}
);
leftKerningGroup = o;
note = eth;
rightKerningGroup = d;
unicode = 00F0;
},
{
glyphname = e;
lastChange = "2021-12-09 03:28:50 +0000";
layers = (
{
anchors = (
{
name = bottom;
position = "{133, 0}";
},
{
name = ogonek;
position = "{224, 10}";
},
{
name = top;
position = "{203, 495}";
}
);
layerId = "9AA098C0-EDBC-463F-BC21-AFCD07A070D0";
paths = (
{
closed = 1;
nodes = (
"239 -7 OFFCURVE",
"260 48 OFFCURVE",
"271 124 CURVE SMOOTH",
"277 167 LINE",
"266 167 LINE",
"261 127 LINE SMOOTH",
"252 57 OFFCURVE",
"231 3 OFFCURVE",
"136 3 CURVE SMOOTH",
"60 3 OFFCURVE",
"40 35 OFFCURVE",
"40 84 CURVE SMOOTH",
"40 97 OFFCURVE",
"42 112 OFFCURVE",
"44 127 CURVE SMOOTH",
"58 228 LINE",
"101 231 OFFCURVE",
"140 239 OFFCURVE",
"175 251 CURVE SMOOTH",
"237 271 OFFCURVE",
"297 309 OFFCURVE",
"307 372 CURVE SMOOTH",
"309 388 OFFCURVE",
"311 403 OFFCURVE",
"311 417 CURVE SMOOTH",
"311 469 OFFCURVE",
"290 503 OFFCURVE",
"207 503 CURVE SMOOTH",
"104 503 OFFCURVE",
"79 446 OFFCURVE",
"68 372 CURVE SMOOTH",
"32 124 LINE SMOOTH",
"30 109 OFFCURVE",
"29 95 OFFCURVE",
"29 82 CURVE SMOOTH",
"29 28 OFFCURVE",
"51 -7 OFFCURVE",
"135 -7 CURVE SMOOTH"
);
},
{
closed = 1;
nodes = (
"78 369 LINE SMOOTH",
"88 439 OFFCURVE",
"112 493 OFFCURVE",
"206 493 CURVE SMOOTH",
"280 493 OFFCURVE",
"300 461 OFFCURVE",
"300 415 CURVE SMOOTH",
"300 402 OFFCURVE",
"298 388 OFFCURVE",
"296 374 CURVE SMOOTH",
"288 314 OFFCURVE",
"228 279 OFFCURVE",
"171 260 CURVE SMOOTH",
"138 249 OFFCURVE",
"101 241 OFFCURVE",
"60 238 CURVE"
);
}
);
width = 336;
}
);
leftKerningGroup = o;
leftMetricsKey = o;
note = e;
rightKerningGroup = e;
rightMetricsKey = "=o-3";
unicode = 0065;
},
{
glyphname = f;
lastChange = "2021-12-09 03:31:06 +0000";
layers = (
{
background = {
paths = (
{
closed = 1;
nodes = (
"-67 -116 OFFCURVE",
"-63 -115 OFFCURVE",
"-59 -115 CURVE SMOOTH",
"-12 -112 OFFCURVE",
"25 -91 OFFCURVE",
"34 -31 CURVE SMOOTH",
"103 461 LINE",
"221 461 LINE",
"222 471 LINE",
"104 471 LINE",
"116 552 LINE SMOOTH",
"122 590 OFFCURVE",
"140 627 OFFCURVE",
"185 627 CURVE SMOOTH",
"202 627 OFFCURVE",
"217 626 OFFCURVE",
"228 625 CURVE SMOOTH",
"245 623 LINE",
"245 632 LINE",
"233 635 OFFCURVE",
"212 636 OFFCURVE",
"187 636 CURVE SMOOTH",
"135 636 OFFCURVE",
"112 603 OFFCURVE",
"104 547 CURVE SMOOTH",
"93 471 LINE",
"62 471 LINE",
"61 461 LINE",
"92 461 LINE",
"22 -32 LINE SMOOTH",
"15 -79 OFFCURVE",
"-16 -101 OFFCURVE",
"-57 -105 CURVE SMOOTH",
"-62 -106 OFFCURVE",
"-68 -106 OFFCURVE",
"-74 -106 CURVE SMOOTH",
"-80 -106 OFFCURVE",
"-86 -105 OFFCURVE",
"-93 -104 CURVE",
"-95 -114 LINE",
"-87 -115 OFFCURVE",
"-79 -116 OFFCURVE",
"-71 -116 CURVE SMOOTH"
);
}
);
};
layerId = "9AA098C0-EDBC-463F-BC21-AFCD07A070D0";
paths = (
{
closed = 1;
nodes = (
"-67 -116 OFFCURVE",
"-63 -115 OFFCURVE",
"-59 -115 CURVE SMOOTH",
"-12 -112 OFFCURVE",
"26 -91 OFFCURVE",
"34 -31 CURVE SMOOTH",
"103 462 LINE",
"221 462 LINE",
"222 471 LINE",
"104 471 LINE",
"116 552 LINE SMOOTH",
"122 590 OFFCURVE",
"140 627 OFFCURVE",
"185 627 CURVE SMOOTH",
"202 627 OFFCURVE",
"217 626 OFFCURVE",
"228 625 CURVE SMOOTH",
"245 623 LINE",
"245 632 LINE",
"233 635 OFFCURVE",
"212 636 OFFCURVE",
"187 636 CURVE SMOOTH",
"135 636 OFFCURVE",
"112 603 OFFCURVE",
"104 547 CURVE SMOOTH",
"93 471 LINE",
"62 471 LINE",
"61 462 LINE",
"92 462 LINE",
"22 -32 LINE SMOOTH",
"15 -79 OFFCURVE",
"-16 -101 OFFCURVE",
"-57 -105 CURVE SMOOTH",
"-62 -106 OFFCURVE",
"-68 -106 OFFCURVE",
"-74 -106 CURVE SMOOTH",
"-80 -106 OFFCURVE",
"-86 -105 OFFCURVE",
"-93 -104 CURVE",
"-95 -114 LINE",
"-87 -115 OFFCURVE",
"-79 -116 OFFCURVE",
"-71 -116 CURVE SMOOTH"
);
}
);
userData = {
assembly = "SVTCA[0]	/* SetFreedomAndProjectionVectorToAxis */\012PUSHW[ ]	/* 4 values pushed */\0127 3 21 4 \012CALL[ ]	/* CallFunction */\012IUP[0]	/* InterpolateUntPts */\012IUP[1]	/* InterpolateUntPts */";
};
width = 180;
}
);
note = f;
unicode = 0066;
},
{
glyphname = g;
lastChange = "2021-12-09 03:28:43 +0000";
layers = (
{
anchors = (
{
name = bottom;
position = "{119, -116}";
},
{
name = top;
position = "{205, 495}";
}
);
layerId = "9AA098C0-EDBC-463F-BC21-AFCD07A070D0";
paths = (
{
closed = 1;
nodes = (
"176 -115 OFFCURVE",
"241 -87 OFFCURVE",
"253 0 CURVE SMOOTH",
"324 495 LINE",
"313 495 LINE",
"309 466 LINE",
"282 495 OFFCURVE",
"247 503 OFFCURVE",
"205 503 CURVE SMOOTH",
"103 503 OFFCURVE",
"77 447 OFFCURVE",
"67 372 CURVE SMOOTH",
"37 156 LINE SMOOTH",
"34 136 OFFCURVE",
"32 118 OFFCURVE",
"32 102 CURVE SMOOTH",
"32 56 OFFCURVE",
"49 25 OFFCURVE",
"120 25 CURVE SMOOTH",
"187 25 OFFCURVE",
"238 73 OFFCURVE",
"262 137 CURVE",
"244 8 LINE SMOOTH",
"231 -88 OFFCURVE",
"159 -104 OFFCURVE",
"114 -104 CURVE SMOOTH",
"86 -104 OFFCURVE",
"65 -100 OFFCURVE",
"52 -93 CURVE SMOOTH",
"38 -86 OFFCURVE",
"32 -76 OFFCURVE",
"33 -65 CURVE",
"22 -65 LINE",
"17 -108 OFFCURVE",
"74 -115 OFFCURVE",
"114 -115 CURVE SMOOTH"
);
},
{
closed = 1;
nodes = (
"57 34 OFFCURVE",
"44 67 OFFCURVE",
"44 108 CURVE SMOOTH",
"44 124 OFFCURVE",
"46 142 OFFCURVE",
"48 159 CURVE SMOOTH",
"78 369 LINE SMOOTH",
"88 439 OFFCURVE",
"110 493 OFFCURVE",
"204 493 CURVE SMOOTH",
"259 493 OFFCURVE",
"284 480 OFFCURVE",
"307 451 CURVE",
"273 216 LINE SMOOTH",
"264 153 OFFCURVE",
"222 34 OFFCURVE",
"119 34 CURVE SMOOTH"
);
}
);
userData = {
assembly = "SVTCA[0]	/* SetFreedomAndProjectionVectorToAxis */\012PUSHW[ ]	/* 1 value pushed */\0120 \012RCVT[ ]	/* ReadCVT */\012IF[ ]	/* If */\012PUSHW[ ]	/* 1 value pushed */\01238 \012MDAP[1]	/* MoveDirectAbsPt */\012ELSE[ ]	/* Else */\012PUSHW[ ]	/* 2 values pushed */\01238 9 \012MIAP[0]	/* MoveIndirectAbsPt */\012EIF[ ]	/* EndIf */\012PUSHW[ ]	/* 1 value pushed */\0120 \012RCVT[ ]	/* ReadCVT */\012IF[ ]	/* If */\012PUSHW[ ]	/* 1 value pushed */\01256 \012MDAP[1]	/* MoveDirectAbsPt */\012ELSE[ ]	/* Else */\012PUSHW[ ]	/* 2 values pushed */\01256 9 \012MIAP[0]	/* MoveIndirectAbsPt */\012EIF[ ]	/* EndIf */\012PUSHW[ ]	/* 1 value pushed */\0120 \012RCVT[ ]	/* ReadCVT */\012IF[ ]	/* If */\012PUSHW[ ]	/* 1 value pushed */\0120 \012MDAP[1]	/* MoveDirectAbsPt */\012ELSE[ ]	/* Else */\012PUSHW[ ]	/* 2 values pushed */\0120 5 \012MIAP[0]	/* MoveIndirectAbsPt */\012EIF[ ]	/* EndIf */\012PUSHW[ ]	/* 3 values pushed */\01220 0 38 \012SRP1[ ]	/* SetRefPoint1 */\012SRP2[ ]	/* SetRefPoint2 */\012IP[ ]	/* InterpolatePts */\012PUSHW[ ]	/* 3 values pushed */\01237 0 38 \012SRP1[ ]	/* SetRefPoint1 */\012SRP2[ ]	/* SetRefPoint2 */\012IP[ ]	/* InterpolatePts */\012IUP[0]	/* InterpolateUntPts */\012IUP[1]	/* InterpolateUntPts */";
};
width = 343;
}
);
leftKerningGroup = o;
leftMetricsKey = o;
note = g;
rightKerningGroup = g;
rightMetricsKey = d;
unicode = 0067;
},
{
glyphname = h;
lastChange = "2021-12-09 03:28:43 +0000";
layers = (
{
anchors = (
{
name = bottom;
position = "{148, 0}";
},
{
name = center;
position = "{152, 560}";
},
{
name = top;
position = "{124, 630}";
}
);
layerId = "9AA098C0-EDBC-463F-BC21-AFCD07A070D0";
paths = (
{
closed = 1;
nodes = (
"43 0 LINE",
"89 335 LINE",
"100 384 OFFCURVE",
"164 493 OFFCURVE",
"244 493 CURVE SMOOTH",
"299 493 OFFCURVE",
"313 461 OFFCURVE",
"313 417 CURVE SMOOTH",
"313 402 OFFCURVE",
"311 386 OFFCURVE",
"309 369 CURVE SMOOTH",
"257 0 LINE",
"269 0 LINE",
"321 372 LINE SMOOTH",
"323 388 OFFCURVE",
"325 404 OFFCURVE",
"325 419 CURVE SMOOTH",
"325 467 OFFCURVE",
"309 503 OFFCURVE",
"248 503 CURVE SMOOTH",
"173 503 OFFCURVE",
"118 431 OFFCURVE",
"94 376 CURVE",
"130 630 LINE",
"118 630 LINE",
"32 0 LINE"
);
}
);
userData = {
assembly = "SVTCA[0]	/* SetFreedomAndProjectionVectorToAxis */\012PUSHW[ ]	/* 1 value pushed */\0120 \012RCVT[ ]	/* ReadCVT */\012IF[ ]	/* If */\012PUSHW[ ]	/* 1 value pushed */\01212 \012MDAP[1]	/* MoveDirectAbsPt */\012ELSE[ ]	/* Else */\012PUSHW[ ]	/* 2 values pushed */\01212 5 \012MIAP[0]	/* MoveIndirectAbsPt */\012EIF[ ]	/* EndIf */\012PUSHW[ ]	/* 1 value pushed */\0120 \012RCVT[ ]	/* ReadCVT */\012IF[ ]	/* If */\012PUSHW[ ]	/* 1 value pushed */\01225 \012MDAP[1]	/* MoveDirectAbsPt */\012ELSE[ ]	/* Else */\012PUSHW[ ]	/* 2 values pushed */\01225 5 \012MIAP[0]	/* MoveIndirectAbsPt */\012EIF[ ]	/* EndIf */\012IUP[0]	/* InterpolateUntPts */\012IUP[1]	/* InterpolateUntPts */";
};
width = 358;
}
);
leftKerningGroup = n;
leftMetricsKey = n;
note = h;
rightKerningGroup = n;
rightMetricsKey = n;
unicode = 0068;
},
{
glyphname = idotless;
lastChange = "2021-12-10 04:57:19 +0000";
layers = (
{
anchors = (
{
name = bottom;
position = "{39, 0}";
},
{
name = ogonek;
position = "{51, 0}";
},
{
name = top;
position = "{104, 495}";
}
);
layerId = "9AA098C0-EDBC-463F-BC21-AFCD07A070D0";
paths = (
{
closed = 1;
nodes = (
"41 0 LINE",
"110 495 LINE",
"99 495 LINE",
"30 0 LINE"
);
}
);
userData = {
assembly = "SVTCA[0]	/* SetFreedomAndProjectionVectorToAxis */\012PUSHW[ ]	/* 1 value pushed */\0120 \012RCVT[ ]	/* ReadCVT */\012IF[ ]	/* If */\012PUSHW[ ]	/* 1 value pushed */\0121 \012MDAP[1]	/* MoveDirectAbsPt */\012ELSE[ ]	/* Else */\012PUSHW[ ]	/* 2 values pushed */\0121 9 \012MIAP[0]	/* MoveIndirectAbsPt */\012EIF[ ]	/* EndIf */\012PUSHW[ ]	/* 1 value pushed */\0120 \012RCVT[ ]	/* ReadCVT */\012IF[ ]	/* If */\012PUSHW[ ]	/* 1 value pushed */\0120 \012MDAP[1]	/* MoveDirectAbsPt */\012ELSE[ ]	/* Else */\012PUSHW[ ]	/* 2 values pushed */\0120 5 \012MIAP[0]	/* MoveIndirectAbsPt */\012EIF[ ]	/* EndIf */\012IUP[0]	/* InterpolateUntPts */\012IUP[1]	/* InterpolateUntPts */";
};
width = 140;
}
);
note = dotlessi;
unicode = 0131;
},
{
glyphname = jdotless;
lastChange = "2021-12-10 04:59:56 +0000";
layers = (
{
anchors = (
{
name = bottom;
position = "{11, -116}";
},
{
name = top;
position = "{101, 495}";
}
);
layerId = "9AA098C0-EDBC-463F-BC21-AFCD07A070D0";
paths = (
{
closed = 1;
nodes = (
"-69 -116 OFFCURVE",
"-66 -115 OFFCURVE",
"-62 -115 CURVE SMOOTH",
"-13 -112 OFFCURVE",
"25 -91 OFFCURVE",
"33 -31 CURVE SMOOTH",
"107 495 LINE",
"96 495 LINE",
"22 -32 LINE SMOOTH",
"15 -84 OFFCURVE",
"-23 -106 OFFCURVE",
"-75 -106 CURVE SMOOTH",
"-82 -106 OFFCURVE",
"-89 -105 OFFCURVE",
"-96 -104 CURVE",
"-97 -114 LINE",
"-90 -115 OFFCURVE",
"-81 -116 OFFCURVE",
"-73 -116 CURVE SMOOTH"
);
}
);
width = 124;
}
);
leftKerningGroup = j;
rightKerningGroup = j;
unicode = 0237;
},
{
glyphname = k;
lastChange = "2021-12-09 03:34:15 +0000";
layers = (
{
anchors = (
{
name = bottom;
position = "{136, 0}";
},
{
name = top;
position = "{203, 630}";
}
);
layerId = "9AA098C0-EDBC-463F-BC21-AFCD07A070D0";
paths = (
{
closed = 1;
nodes = (
"41 0 LINE",
"80 283 LINE",
"115 283 LINE",
"172 252 OFFCURVE",
"228 89 OFFCURVE",
"228 0 CURVE",
"239 0 LINE",
"239 68 OFFCURVE",
"192 242 OFFCURVE",
"127 287 CURVE",
"164 302 OFFCURVE",
"283 413 OFFCURVE",
"306 495 CURVE",
"295 495 LINE",
"283 445 OFFCURVE",
"162 297 OFFCURVE",
"118 293 CURVE",
"82 293 LINE",
"129 630 LINE",
"118 630 LINE",
"30 0 LINE"
);
}
);
userData = {
assembly = "SVTCA[0]	/* SetFreedomAndProjectionVectorToAxis */\012PUSHW[ ]	/* 1 value pushed */\0120 \012RCVT[ ]	/* ReadCVT */\012IF[ ]	/* If */\012PUSHW[ ]	/* 1 value pushed */\0129 \012MDAP[1]	/* MoveDirectAbsPt */\012ELSE[ ]	/* Else */\012PUSHW[ ]	/* 2 values pushed */\0129 9 \012MIAP[0]	/* MoveIndirectAbsPt */\012EIF[ ]	/* EndIf */\012PUSHW[ ]	/* 1 value pushed */\0120 \012RCVT[ ]	/* ReadCVT */\012IF[ ]	/* If */\012PUSHW[ ]	/* 1 value pushed */\0120 \012MDAP[1]	/* MoveDirectAbsPt */\012ELSE[ ]	/* Else */\012PUSHW[ ]	/* 2 values pushed */\0120 5 \012MIAP[0]	/* MoveIndirectAbsPt */\012EIF[ ]	/* EndIf */\012PUSHW[ ]	/* 1 value pushed */\0120 \012RCVT[ ]	/* ReadCVT */\012IF[ ]	/* If */\012PUSHW[ ]	/* 1 value pushed */\01220 \012MDAP[1]	/* MoveDirectAbsPt */\012ELSE[ ]	/* Else */\012PUSHW[ ]	/* 2 values pushed */\01220 5 \012MIAP[0]	/* MoveIndirectAbsPt */\012EIF[ ]	/* EndIf */\012PUSHW[ ]	/* 3 values pushed */\01215 0 9 \012SRP1[ ]	/* SetRefPoint1 */\012SRP2[ ]	/* SetRefPoint2 */\012IP[ ]	/* InterpolatePts */\012IUP[0]	/* InterpolateUntPts */\012IUP[1]	/* InterpolateUntPts */";
};
width = 289;
}
);
leftKerningGroup = b;
leftMetricsKey = n;
note = k;
rightKerningGroup = k;
unicode = 006B;
},
{
glyphname = kgreenlandic;
lastChange = "2021-12-09 03:28:43 +0000";
layers = (
{
layerId = "9AA098C0-EDBC-463F-BC21-AFCD07A070D0";
paths = (
{
closed = 1;
nodes = (
"37 0 LINE",
"65 204 LINE",
"71 217 OFFCURVE",
"109 276 OFFCURVE",
"127 300 CURVE",
"233 0 LINE",
"245 0 LINE",
"134 311 LINE",
"182 375 OFFCURVE",
"254 447 OFFCURVE",
"318 468 CURVE",
"319 475 LINE",
"251 459 OFFCURVE",
"140 353 OFFCURVE",
"68 224 CURVE",
"125 631 LINE",
"114 631 LINE",
"26 0 LINE"
);
}
);
userData = {
assembly = "SVTCA[0]	/* SetFreedomAndProjectionVectorToAxis */\012PUSHW[ ]	/* 1 value pushed */\0120 \012RCVT[ ]	/* ReadCVT */\012IF[ ]	/* If */\012PUSHW[ ]	/* 1 value pushed */\0120 \012MDAP[1]	/* MoveDirectAbsPt */\012ELSE[ ]	/* Else */\012PUSHW[ ]	/* 2 values pushed */\0120 5 \012MIAP[0]	/* MoveIndirectAbsPt */\012EIF[ ]	/* EndIf */\012PUSHW[ ]	/* 1 value pushed */\0120 \012RCVT[ ]	/* ReadCVT */\012IF[ ]	/* If */\012PUSHW[ ]	/* 1 value pushed */\01215 \012MDAP[1]	/* MoveDirectAbsPt */\012ELSE[ ]	/* Else */\012PUSHW[ ]	/* 2 values pushed */\01215 5 \012MIAP[0]	/* MoveIndirectAbsPt */\012EIF[ ]	/* EndIf */\012IUP[0]	/* InterpolateUntPts */\012IUP[1]	/* InterpolateUntPts */";
};
width = 309;
}
);
leftKerningGroup = b;
note = kgreenlandic;
rightKerningGroup = k;
unicode = 0138;
},
{
glyphname = l;
lastChange = "2021-12-09 03:28:50 +0000";
layers = (
{
anchors = (
{
name = bottom;
position = "{34, 0}";
},
{
name = center;
position = "{78, 315}";
},
{
name = top;
position = "{123, 630}";
},
{
name = topright;
position = "{150, 514}";
}
);
layerId = "9AA098C0-EDBC-463F-BC21-AFCD07A070D0";
paths = (
{
closed = 1;
nodes = (
"41 0 LINE",
"129 630 LINE",
"118 630 LINE",
"30 0 LINE"
);
}
);
userData = {
assembly = "SVTCA[0]	/* SetFreedomAndProjectionVectorToAxis */\012PUSHW[ ]	/* 1 value pushed */\0120 \012RCVT[ ]	/* ReadCVT */\012IF[ ]	/* If */\012PUSHW[ ]	/* 1 value pushed */\0120 \012MDAP[1]	/* MoveDirectAbsPt */\012ELSE[ ]	/* Else */\012PUSHW[ ]	/* 2 values pushed */\0120 5 \012MIAP[0]	/* MoveIndirectAbsPt */\012EIF[ ]	/* EndIf */\012IUP[0]	/* InterpolateUntPts */\012IUP[1]	/* InterpolateUntPts */";
};
width = 130;
}
);
leftKerningGroup = b;
leftMetricsKey = n;
note = l;
rightKerningGroup = d;
rightMetricsKey = d;
unicode = 006C;
},
{
glyphname = lslash;
lastChange = "2021-12-09 03:28:43 +0000";
layers = (
{
layerId = "9AA098C0-EDBC-463F-BC21-AFCD07A070D0";
paths = (
{
closed = 1;
nodes = (
"93 0 LINE",
"121 200 LINE",
"206 237 LINE",
"207 247 LINE",
"122 211 LINE",
"181 630 LINE",
"170 630 LINE",
"110 206 LINE",
"29 171 LINE",
"27 160 LINE",
"109 195 LINE",
"82 0 LINE"
);
}
);
userData = {
assembly = "SVTCA[0]	/* SetFreedomAndProjectionVectorToAxis */\012PUSHW[ ]	/* 1 value pushed */\0120 \012RCVT[ ]	/* ReadCVT */\012IF[ ]	/* If */\012PUSHW[ ]	/* 1 value pushed */\0120 \012MDAP[1]	/* MoveDirectAbsPt */\012ELSE[ ]	/* Else */\012PUSHW[ ]	/* 2 values pushed */\0120 5 \012MIAP[0]	/* MoveIndirectAbsPt */\012EIF[ ]	/* EndIf */\012IUP[0]	/* InterpolateUntPts */\012IUP[1]	/* InterpolateUntPts */";
};
width = 266;
}
);
leftKerningGroup = b;
note = lslash;
rightKerningGroup = lslash;
unicode = 0142;
},
{
glyphname = m;
lastChange = "2021-12-09 03:28:50 +0000";
layers = (
{
layerId = "9AA098C0-EDBC-463F-BC21-AFCD07A070D0";
paths = (
{
closed = 1;
nodes = (
"41 0 LINE",
"87 334 LINE",
"98 383 OFFCURVE",
"162 493 OFFCURVE",
"242 493 CURVE SMOOTH",
"297 493 OFFCURVE",
"312 460 OFFCURVE",
"312 416 CURVE SMOOTH",
"312 401 OFFCURVE",
"310 385 OFFCURVE",
"308 369 CURVE SMOOTH",
"256 0 LINE",
"268 0 LINE",
"317 351 LINE",
"338 405 OFFCURVE",
"394 493 OFFCURVE",
"466 493 CURVE SMOOTH",
"521 493 OFFCURVE",
"536 460 OFFCURVE",
"536 416 CURVE SMOOTH",
"536 401 OFFCURVE",
"534 385 OFFCURVE",
"532 369 CURVE SMOOTH",
"480 0 LINE",
"492 0 LINE",
"544 372 LINE SMOOTH",
"546 388 OFFCURVE",
"547 403 OFFCURVE",
"547 417 CURVE SMOOTH",
"547 466 OFFCURVE",
"531 503 OFFCURVE",
"470 503 CURVE SMOOTH",
"401 503 OFFCURVE",
"348 442 OFFCURVE",
"321 388 CURVE",
"322 399 OFFCURVE",
"323 409 OFFCURVE",
"323 419 CURVE SMOOTH",
"323 468 OFFCURVE",
"307 503 OFFCURVE",
"246 503 CURVE SMOOTH",
"173 503 OFFCURVE",
"118 431 OFFCURVE",
"94 377 CURVE",
"111 495 LINE",
"99 495 LINE",
"29 0 LINE"
);
}
);
userData = {
assembly = "SVTCA[0]	/* SetFreedomAndProjectionVectorToAxis */\012PUSHW[ ]	/* 1 value pushed */\0120 \012RCVT[ ]	/* ReadCVT */\012IF[ ]	/* If */\012PUSHW[ ]	/* 1 value pushed */\01222 \012MDAP[1]	/* MoveDirectAbsPt */\012ELSE[ ]	/* Else */\012PUSHW[ ]	/* 2 values pushed */\01222 5 \012MIAP[0]	/* MoveIndirectAbsPt */\012EIF[ ]	/* EndIf */\012PUSHW[ ]	/* 1 value pushed */\0120 \012RCVT[ ]	/* ReadCVT */\012IF[ ]	/* If */\012PUSHW[ ]	/* 1 value pushed */\01235 \012MDAP[1]	/* MoveDirectAbsPt */\012ELSE[ ]	/* Else */\012PUSHW[ ]	/* 2 values pushed */\01235 5 \012MIAP[0]	/* MoveIndirectAbsPt */\012EIF[ ]	/* EndIf */\012PUSHW[ ]	/* 1 value pushed */\0120 \012RCVT[ ]	/* ReadCVT */\012IF[ ]	/* If */\012PUSHW[ ]	/* 1 value pushed */\01248 \012MDAP[1]	/* MoveDirectAbsPt */\012ELSE[ ]	/* Else */\012PUSHW[ ]	/* 2 values pushed */\01248 5 \012MIAP[0]	/* MoveIndirectAbsPt */\012EIF[ ]	/* EndIf */\012IUP[0]	/* InterpolateUntPts */\012IUP[1]	/* InterpolateUntPts */";
};
width = 586;
}
);
leftKerningGroup = n;
leftMetricsKey = n;
note = m;
rightKerningGroup = n;
rightMetricsKey = a;
unicode = 006D;
},
{
glyphname = n;
lastChange = "2021-12-09 03:28:43 +0000";
layers = (
{
anchors = (
{
name = bottom;
position = "{147, 0}";
},
{
name = top;
position = "{218, 495}";
}
);
layerId = "9AA098C0-EDBC-463F-BC21-AFCD07A070D0";
paths = (
{
closed = 1;
nodes = (
"42 0 LINE",
"88 334 LINE",
"99 382 OFFCURVE",
"163 493 OFFCURVE",
"242 493 CURVE SMOOTH",
"297 493 OFFCURVE",
"312 460 OFFCURVE",
"312 416 CURVE SMOOTH",
"312 401 OFFCURVE",
"310 385 OFFCURVE",
"308 369 CURVE SMOOTH",
"256 0 LINE",
"268 0 LINE",
"320 372 LINE SMOOTH",
"322 388 OFFCURVE",
"323 403 OFFCURVE",
"323 417 CURVE SMOOTH",
"323 466 OFFCURVE",
"307 503 OFFCURVE",
"246 503 CURVE SMOOTH",
"173 503 OFFCURVE",
"118 431 OFFCURVE",
"94 377 CURVE",
"111 495 LINE",
"99 495 LINE",
"29 0 LINE"
);
}
);
userData = {
assembly = "SVTCA[0]	/* SetFreedomAndProjectionVectorToAxis */\012PUSHW[ ]	/* 1 value pushed */\0120 \012RCVT[ ]	/* ReadCVT */\012IF[ ]	/* If */\012PUSHW[ ]	/* 1 value pushed */\01212 \012MDAP[1]	/* MoveDirectAbsPt */\012ELSE[ ]	/* Else */\012PUSHW[ ]	/* 2 values pushed */\01212 5 \012MIAP[0]	/* MoveIndirectAbsPt */\012EIF[ ]	/* EndIf */\012PUSHW[ ]	/* 1 value pushed */\0120 \012RCVT[ ]	/* ReadCVT */\012IF[ ]	/* If */\012PUSHW[ ]	/* 1 value pushed */\01225 \012MDAP[1]	/* MoveDirectAbsPt */\012ELSE[ ]	/* Else */\012PUSHW[ ]	/* 2 values pushed */\01225 5 \012MIAP[0]	/* MoveIndirectAbsPt */\012EIF[ ]	/* EndIf */\012IUP[0]	/* InterpolateUntPts */\012IUP[1]	/* InterpolateUntPts */";
};
width = 357;
}
);
leftKerningGroup = n;
note = n;
rightKerningGroup = n;
unicode = 006E;
},
{
glyphname = eng;
lastChange = "2021-12-09 03:28:43 +0000";
layers = (
{
layerId = "9AA098C0-EDBC-463F-BC21-AFCD07A070D0";
paths = (
{
closed = 1;
nodes = (
"163 -116 OFFCURVE",
"166 -115 OFFCURVE",
"170 -115 CURVE SMOOTH",
"219 -112 OFFCURVE",
"257 -91 OFFCURVE",
"265 -31 CURVE SMOOTH",
"322 372 LINE SMOOTH",
"324 387 OFFCURVE",
"325 401 OFFCURVE",
"325 414 CURVE SMOOTH",
"325 467 OFFCURVE",
"304 503 OFFCURVE",
"221 503 CURVE SMOOTH",
"158 503 OFFCURVE",
"123 476 OFFCURVE",
"104 445 CURVE",
"108 495 LINE",
"99 495 LINE",
"30 0 LINE",
"42 0 LINE",
"100 417 LINE",
"113 458 OFFCURVE",
"154 493 OFFCURVE",
"220 493 CURVE SMOOTH",
"295 493 OFFCURVE",
"314 461 OFFCURVE",
"314 413 CURVE SMOOTH",
"314 399 OFFCURVE",
"312 385 OFFCURVE",
"310 369 CURVE SMOOTH",
"253 -32 LINE SMOOTH",
"246 -84 OFFCURVE",
"209 -106 OFFCURVE",
"157 -106 CURVE SMOOTH",
"150 -106 OFFCURVE",
"142 -105 OFFCURVE",
"135 -104 CURVE",
"134 -114 LINE",
"142 -115 OFFCURVE",
"151 -116 OFFCURVE",
"159 -116 CURVE SMOOTH"
);
}
);
userData = {
assembly = "SVTCA[0]	/* SetFreedomAndProjectionVectorToAxis */\012PUSHW[ ]	/* 1 value pushed */\0120 \012RCVT[ ]	/* ReadCVT */\012IF[ ]	/* If */\012PUSHW[ ]	/* 1 value pushed */\01218 \012MDAP[1]	/* MoveDirectAbsPt */\012ELSE[ ]	/* Else */\012PUSHW[ ]	/* 2 values pushed */\01218 9 \012MIAP[0]	/* MoveIndirectAbsPt */\012EIF[ ]	/* EndIf */\012PUSHW[ ]	/* 1 value pushed */\0120 \012RCVT[ ]	/* ReadCVT */\012IF[ ]	/* If */\012PUSHW[ ]	/* 1 value pushed */\01226 \012MDAP[1]	/* MoveDirectAbsPt */\012ELSE[ ]	/* Else */\012PUSHW[ ]	/* 2 values pushed */\01226 9 \012MIAP[0]	/* MoveIndirectAbsPt */\012EIF[ ]	/* EndIf */\012PUSHW[ ]	/* 1 value pushed */\0120 \012RCVT[ ]	/* ReadCVT */\012IF[ ]	/* If */\012PUSHW[ ]	/* 1 value pushed */\01224 \012MDAP[1]	/* MoveDirectAbsPt */\012ELSE[ ]	/* Else */\012PUSHW[ ]	/* 2 values pushed */\01224 5 \012MIAP[0]	/* MoveIndirectAbsPt */\012EIF[ ]	/* EndIf */\012PUSHW[ ]	/* 4 values pushed */\01231 3 23 4 \012CALL[ ]	/* CallFunction */\012PUSHW[ ]	/* 3 values pushed */\01228 23 31 \012SRP1[ ]	/* SetRefPoint1 */\012SRP2[ ]	/* SetRefPoint2 */\012IP[ ]	/* InterpolatePts */\012IUP[0]	/* InterpolateUntPts */\012IUP[1]	/* InterpolateUntPts */";
};
width = 359;
}
);
leftKerningGroup = n;
leftMetricsKey = n;
note = eng;
rightKerningGroup = n;
rightMetricsKey = n;
unicode = 014B;
},
{
glyphname = o;
lastChange = "2021-12-09 03:28:43 +0000";
layers = (
{
anchors = (
{
name = bottom;
position = "{134, 0}";
},
{
name = center;
position = "{169, 248}";
},
{
name = ogonek;
position = "{163, 0}";
},
{
name = top;
position = "{207, 495}";
},
{
name = topright;
position = "{237, 495}";
}
);
layerId = "9AA098C0-EDBC-463F-BC21-AFCD07A070D0";
paths = (
{
closed = 1;
nodes = (
"237 -7 OFFCURVE",
"260 49 OFFCURVE",
"271 124 CURVE SMOOTH",
"306 372 LINE SMOOTH",
"308 387 OFFCURVE",
"309 401 OFFCURVE",
"309 414 CURVE SMOOTH",
"309 467 OFFCURVE",
"288 503 OFFCURVE",
"205 503 CURVE SMOOTH",
"101 503 OFFCURVE",
"77 446 OFFCURVE",
"67 372 CURVE SMOOTH",
"32 124 LINE SMOOTH",
"30 109 OFFCURVE",
"29 94 OFFCURVE",
"29 81 CURVE SMOOTH",
"29 27 OFFCURVE",
"50 -7 OFFCURVE",
"134 -7 CURVE SMOOTH"
);
},
{
closed = 1;
nodes = (
"60 3 OFFCURVE",
"40 36 OFFCURVE",
"40 86 CURVE SMOOTH",
"40 98 OFFCURVE",
"41 112 OFFCURVE",
"43 127 CURVE SMOOTH",
"77 369 LINE SMOOTH",
"87 440 OFFCURVE",
"110 493 OFFCURVE",
"204 493 CURVE SMOOTH",
"279 493 OFFCURVE",
"298 461 OFFCURVE",
"298 413 CURVE SMOOTH",
"298 399 OFFCURVE",
"296 385 OFFCURVE",
"294 369 CURVE SMOOTH",
"260 127 LINE SMOOTH",
"250 57 OFFCURVE",
"230 3 OFFCURVE",
"135 3 CURVE SMOOTH"
);
}
);
width = 338;
}
);
leftKerningGroup = o;
note = o;
rightKerningGroup = o;
unicode = 006F;
},
{
glyphname = oslash;
lastChange = "2021-12-09 03:28:43 +0000";
layers = (
{
anchors = (
{
name = top;
position = "{214, 495}";
}
);
layerId = "9AA098C0-EDBC-463F-BC21-AFCD07A070D0";
paths = (
{
closed = 1;
nodes = (
"-13 -46 LINE",
"44 42 LINE",
"55 13 OFFCURVE",
"80 -7 OFFCURVE",
"144 -7 CURVE SMOOTH",
"247 -7 OFFCURVE",
"271 47 OFFCURVE",
"281 124 CURVE SMOOTH",
"316 372 LINE SMOOTH",
"318 386 OFFCURVE",
"320 401 OFFCURVE",
"320 414 CURVE SMOOTH",
"320 430 OFFCURVE",
"318 444 OFFCURVE",
"312 457 CURVE",
"372 548 LINE",
"360 548 LINE",
"308 467 LINE",
"293 488 OFFCURVE",
"267 503 OFFCURVE",
"216 503 CURVE SMOOTH",
"113 503 OFFCURVE",
"87 446 OFFCURVE",
"77 372 CURVE SMOOTH",
"42 124 LINE SMOOTH",
"40 110 OFFCURVE",
"39 96 OFFCURVE",
"39 82 CURVE SMOOTH",
"39 73 OFFCURVE",
"39 64 OFFCURVE",
"41 56 CURVE",
"-25 -46 LINE"
);
},
{
closed = 1;
nodes = (
"84 3 OFFCURVE",
"60 25 OFFCURVE",
"53 56 CURVE",
"137 187 OFFCURVE",
"219 313 OFFCURVE",
"304 444 CURVE",
"307 434 OFFCURVE",
"308 423 OFFCURVE",
"308 412 CURVE SMOOTH",
"308 398 OFFCURVE",
"306 384 OFFCURVE",
"305 369 CURVE",
"271 127 LINE SMOOTH",
"261 57 OFFCURVE",
"240 3 OFFCURVE",
"145 3 CURVE SMOOTH"
);
},
{
closed = 1;
nodes = (
"47 88 OFFCURVE",
"51 108 OFFCURVE",
"54 127 CURVE SMOOTH",
"88 369 LINE SMOOTH",
"98 440 OFFCURVE",
"118 493 OFFCURVE",
"214 493 CURVE SMOOTH",
"263 493 OFFCURVE",
"288 478 OFFCURVE",
"300 455 CURVE",
"50 71 LINE"
);
}
);
userData = {
assembly = "PUSHW[ ]	/* 4 values pushed */\01213 4 9 4 \012CALL[ ]	/* CallFunction */\012PUSHW[ ]	/* 3 values pushed */\01233 9 13 \012SRP1[ ]	/* SetRefPoint1 */\012SRP2[ ]	/* SetRefPoint2 */\012IP[ ]	/* InterpolatePts */\012PUSHW[ ]	/* 1 value pushed */\01213 \012SRP0[ ]	/* SetRefPoint0 */\012PUSHW[ ]	/* 1 value pushed */\01259 \012MDRP[11100]	/* MoveDirectRelPt */\012SVTCA[0]	/* SetFreedomAndProjectionVectorToAxis */\012PUSHW[ ]	/* 3 values pushed */\01213 28 3 \012CALL[ ]	/* CallFunction */\012PUSHW[ ]	/* 3 values pushed */\01233 28 13 \012SRP1[ ]	/* SetRefPoint1 */\012SRP2[ ]	/* SetRefPoint2 */\012IP[ ]	/* InterpolatePts */\012PUSHW[ ]	/* 3 values pushed */\01248 28 13 \012SRP1[ ]	/* SetRefPoint1 */\012SRP2[ ]	/* SetRefPoint2 */\012IP[ ]	/* InterpolatePts */\012IUP[0]	/* InterpolateUntPts */\012IUP[1]	/* InterpolateUntPts */";
};
width = 352;
}
);
leftKerningGroup = o;
note = oslash;
rightKerningGroup = o;
unicode = 00F8;
},
{
glyphname = oe;
lastChange = "2021-12-09 03:28:43 +0000";
layers = (
{
layerId = "9AA098C0-EDBC-463F-BC21-AFCD07A070D0";
paths = (
{
closed = 1;
nodes = (
"210 -7 OFFCURVE",
"242 25 OFFCURVE",
"257 64 CURVE",
"263 18 OFFCURVE",
"294 -7 OFFCURVE",
"363 -7 CURVE SMOOTH",
"467 -7 OFFCURVE",
"489 48 OFFCURVE",
"499 124 CURVE SMOOTH",
"505 167 LINE",
"494 167 LINE",
"489 127 LINE SMOOTH",
"479 57 OFFCURVE",
"459 3 OFFCURVE",
"364 3 CURVE SMOOTH",
"288 3 OFFCURVE",
"268 35 OFFCURVE",
"268 84 CURVE SMOOTH",
"268 97 OFFCURVE",
"270 112 OFFCURVE",
"272 127 CURVE SMOOTH",
"286 228 LINE",
"329 231 OFFCURVE",
"368 239 OFFCURVE",
"403 251 CURVE SMOOTH",
"465 271 OFFCURVE",
"525 309 OFFCURVE",
"535 372 CURVE SMOOTH",
"537 388 OFFCURVE",
"539 403 OFFCURVE",
"539 417 CURVE SMOOTH",
"539 469 OFFCURVE",
"518 503 OFFCURVE",
"435 503 CURVE SMOOTH",
"356 503 OFFCURVE",
"324 469 OFFCURVE",
"309 428 CURVE",
"303 476 OFFCURVE",
"278 503 OFFCURVE",
"205 503 CURVE SMOOTH",
"101 503 OFFCURVE",
"77 446 OFFCURVE",
"67 372 CURVE SMOOTH",
"32 124 LINE SMOOTH",
"30 109 OFFCURVE",
"29 94 OFFCURVE",
"29 81 CURVE SMOOTH",
"29 27 OFFCURVE",
"50 -7 OFFCURVE",
"134 -7 CURVE SMOOTH"
);
},
{
closed = 1;
nodes = (
"60 3 OFFCURVE",
"40 36 OFFCURVE",
"40 86 CURVE SMOOTH",
"40 98 OFFCURVE",
"41 112 OFFCURVE",
"43 127 CURVE SMOOTH",
"77 369 LINE SMOOTH",
"87 440 OFFCURVE",
"110 493 OFFCURVE",
"204 493 CURVE SMOOTH",
"279 493 OFFCURVE",
"298 461 OFFCURVE",
"298 413 CURVE SMOOTH",
"298 399 OFFCURVE",
"296 385 OFFCURVE",
"294 369 CURVE SMOOTH",
"260 127 LINE SMOOTH",
"250 57 OFFCURVE",
"230 3 OFFCURVE",
"135 3 CURVE SMOOTH"
);
},
{
closed = 1;
nodes = (
"306 369 LINE SMOOTH",
"316 439 OFFCURVE",
"340 493 OFFCURVE",
"434 493 CURVE SMOOTH",
"508 493 OFFCURVE",
"528 461 OFFCURVE",
"528 415 CURVE SMOOTH",
"528 402 OFFCURVE",
"526 388 OFFCURVE",
"524 374 CURVE SMOOTH",
"516 314 OFFCURVE",
"456 279 OFFCURVE",
"399 260 CURVE SMOOTH",
"366 249 OFFCURVE",
"329 241 OFFCURVE",
"288 238 CURVE"
);
}
);
userData = {
assembly = "SVTCA[0]	/* SetFreedomAndProjectionVectorToAxis */\012PUSHW[ ]	/* 4 values pushed */\01225 1 30 4 \012CALL[ ]	/* CallFunction */\012PUSHW[ ]	/* 1 value pushed */\01225 \012SRP0[ ]	/* SetRefPoint0 */\012PUSHW[ ]	/* 1 value pushed */\01233 \012MDRP[10000]	/* MoveDirectRelPt */\012IUP[0]	/* InterpolateUntPts */\012IUP[1]	/* InterpolateUntPts */";
};
width = 567;
}
);
leftKerningGroup = o;
note = oe;
rightKerningGroup = e;
unicode = 0153;
},
{
glyphname = p;
lastChange = "2021-12-09 03:28:43 +0000";
layers = (
{
layerId = "9AA098C0-EDBC-463F-BC21-AFCD07A070D0";
paths = (
{
closed = 1;
nodes = (
"25 -116 LINE",
"47 47 LINE",
"56 16 OFFCURVE",
"82 -7 OFFCURVE",
"149 -7 CURVE SMOOTH",
"252 -7 OFFCURVE",
"276 47 OFFCURVE",
"286 124 CURVE SMOOTH",
"321 372 LINE SMOOTH",
"323 387 OFFCURVE",
"324 401 OFFCURVE",
"324 414 CURVE SMOOTH",
"324 467 OFFCURVE",
"303 503 OFFCURVE",
"220 503 CURVE SMOOTH",
"151 503 OFFCURVE",
"118 472 OFFCURVE",
"102 436 CURVE",
"107 495 LINE",
"99 495 LINE",
"14 -116 LINE"
);
},
{
closed = 1;
nodes = (
"75 3 OFFCURVE",
"55 34 OFFCURVE",
"55 83 CURVE SMOOTH",
"55 97 OFFCURVE",
"57 111 OFFCURVE",
"59 127 CURVE SMOOTH",
"92 363 LINE SMOOTH",
"101 436 OFFCURVE",
"130 493 OFFCURVE",
"219 493 CURVE SMOOTH",
"294 493 OFFCURVE",
"313 460 OFFCURVE",
"313 411 CURVE SMOOTH",
"313 398 OFFCURVE",
"312 384 OFFCURVE",
"310 369 CURVE SMOOTH",
"276 127 LINE SMOOTH",
"266 57 OFFCURVE",
"244 3 OFFCURVE",
"150 3 CURVE SMOOTH"
);
}
);
userData = {
assembly = "SVTCA[0]	/* SetFreedomAndProjectionVectorToAxis */\012PUSHW[ ]	/* 1 value pushed */\01238 \012MDAP[1]	/* MoveDirectAbsPt */\012IUP[0]	/* InterpolateUntPts */\012IUP[1]	/* InterpolateUntPts */";
};
width = 353;
}
);
leftKerningGroup = n;
leftMetricsKey = n;
note = p;
rightKerningGroup = o;
rightMetricsKey = o;
unicode = 0070;
},
{
glyphname = thorn;
lastChange = "2021-12-09 03:28:43 +0000";
layers = (
{
layerId = "9AA098C0-EDBC-463F-BC21-AFCD07A070D0";
paths = (
{
closed = 1;
nodes = (
"25 -116 LINE",
"47 47 LINE",
"56 16 OFFCURVE",
"82 -7 OFFCURVE",
"149 -7 CURVE SMOOTH",
"252 -7 OFFCURVE",
"276 47 OFFCURVE",
"286 124 CURVE SMOOTH",
"321 372 LINE SMOOTH",
"323 387 OFFCURVE",
"324 401 OFFCURVE",
"324 414 CURVE SMOOTH",
"324 467 OFFCURVE",
"303 503 OFFCURVE",
"220 503 CURVE SMOOTH",
"153 503 OFFCURVE",
"121 480 OFFCURVE",
"104 449 CURVE",
"129 630 LINE",
"118 630 LINE",
"14 -116 LINE"
);
},
{
closed = 1;
nodes = (
"75 3 OFFCURVE",
"55 34 OFFCURVE",
"55 83 CURVE SMOOTH",
"55 97 OFFCURVE",
"57 111 OFFCURVE",
"59 127 CURVE SMOOTH",
"95 387 LINE SMOOTH",
"104 450 OFFCURVE",
"133 493 OFFCURVE",
"219 493 CURVE SMOOTH",
"294 493 OFFCURVE",
"313 460 OFFCURVE",
"313 411 CURVE SMOOTH",
"313 398 OFFCURVE",
"312 384 OFFCURVE",
"310 369 CURVE SMOOTH",
"276 127 LINE SMOOTH",
"266 57 OFFCURVE",
"244 3 OFFCURVE",
"150 3 CURVE SMOOTH"
);
}
);
userData = {
assembly = "SVTCA[0]	/* SetFreedomAndProjectionVectorToAxis */\012PUSHW[ ]	/* 1 value pushed */\01238 \012MDAP[1]	/* MoveDirectAbsPt */\012IUP[0]	/* InterpolateUntPts */\012IUP[1]	/* InterpolateUntPts */";
};
width = 353;
}
);
leftMetricsKey = h;
note = thorn;
rightKerningGroup = lslash;
rightMetricsKey = o;
unicode = 00FE;
},
{
glyphname = q;
lastChange = "2021-12-09 03:28:50 +0000";
layers = (
{
layerId = "9AA098C0-EDBC-463F-BC21-AFCD07A070D0";
paths = (
{
closed = 1;
nodes = (
"238 -116 LINE",
"323 495 LINE",
"316 495 LINE",
"306 449 LINE",
"297 480 OFFCURVE",
"271 503 OFFCURVE",
"204 503 CURVE SMOOTH",
"101 503 OFFCURVE",
"77 445 OFFCURVE",
"67 372 CURVE SMOOTH",
"32 124 LINE SMOOTH",
"30 109 OFFCURVE",
"29 94 OFFCURVE",
"29 81 CURVE SMOOTH",
"29 27 OFFCURVE",
"50 -7 OFFCURVE",
"133 -7 CURVE SMOOTH",
"200 -7 OFFCURVE",
"232 16 OFFCURVE",
"249 47 CURVE",
"227 -116 LINE"
);
},
{
closed = 1;
nodes = (
"59 3 OFFCURVE",
"40 35 OFFCURVE",
"40 83 CURVE SMOOTH",
"40 97 OFFCURVE",
"42 111 OFFCURVE",
"44 127 CURVE SMOOTH",
"78 369 LINE SMOOTH",
"88 439 OFFCURVE",
"108 493 OFFCURVE",
"203 493 CURVE SMOOTH",
"275 493 OFFCURVE",
"299 463 OFFCURVE",
"299 415 CURVE SMOOTH",
"299 406 OFFCURVE",
"298 397 OFFCURVE",
"297 387 CURVE SMOOTH",
"261 127 LINE SMOOTH",
"251 56 OFFCURVE",
"228 3 OFFCURVE",
"134 3 CURVE SMOOTH"
);
}
);
userData = {
assembly = "SVTCA[0]	/* SetFreedomAndProjectionVectorToAxis */\012PUSHW[ ]	/* 1 value pushed */\01216 \012MDAP[1]	/* MoveDirectAbsPt */\012PUSHW[ ]	/* 1 value pushed */\01227 \012MDAP[1]	/* MoveDirectAbsPt */\012PUSHW[ ]	/* 3 values pushed */\0122 27 16 \012SRP1[ ]	/* SetRefPoint1 */\012SRP2[ ]	/* SetRefPoint2 */\012IP[ ]	/* InterpolatePts */\012PUSHW[ ]	/* 3 values pushed */\01219 27 16 \012SRP1[ ]	/* SetRefPoint1 */\012SRP2[ ]	/* SetRefPoint2 */\012IP[ ]	/* InterpolatePts */\012IUP[0]	/* InterpolateUntPts */\012IUP[1]	/* InterpolateUntPts */";
};
width = 343;
}
);
leftKerningGroup = o;
leftMetricsKey = o;
note = q;
rightKerningGroup = d;
rightMetricsKey = d;
unicode = 0071;
},
{
glyphname = r;
lastChange = "2021-12-09 03:52:05 +0000";
layers = (
{
anchors = (
{
name = bottom;
position = "{35, 0}";
},
{
name = top;
position = "{169, 495}";
}
);
layerId = "9AA098C0-EDBC-463F-BC21-AFCD07A070D0";
paths = (
{
closed = 1;
nodes = (
"41 0 LINE",
"72 224 LINE",
"88 309 OFFCURVE",
"108 380 OFFCURVE",
"164 439 CURVE SMOOTH",
"195 472 OFFCURVE",
"225 491 OFFCURVE",
"246 491 CURVE SMOOTH",
"247 491 OFFCURVE",
"248 491 OFFCURVE",
"249 491 CURVE SMOOTH",
"252 490 LINE",
"256 490 LINE",
"257 501 LINE",
"249 501 LINE SMOOTH",
"187 501 OFFCURVE",
"114 417 OFFCURVE",
"85 319 CURVE",
"111 495 LINE",
"99 495 LINE",
"29 0 LINE"
);
}
);
userData = {
assembly = "SVTCA[0]	/* SetFreedomAndProjectionVectorToAxis */\012PUSHW[ ]	/* 1 value pushed */\0120 \012RCVT[ ]	/* ReadCVT */\012IF[ ]	/* If */\012PUSHW[ ]	/* 1 value pushed */\01211 \012MDAP[1]	/* MoveDirectAbsPt */\012ELSE[ ]	/* Else */\012PUSHW[ ]	/* 2 values pushed */\01211 5 \012MIAP[0]	/* MoveIndirectAbsPt */\012EIF[ ]	/* EndIf */\012IUP[0]	/* InterpolateUntPts */\012IUP[1]	/* InterpolateUntPts */";
};
width = 219;
}
);
leftKerningGroup = n;
leftMetricsKey = n;
note = r;
rightKerningGroup = r;
unicode = 0072;
},
{
glyphname = s;
lastChange = "2021-12-09 03:34:39 +0000";
layers = (
{
anchors = (
{
name = bottom;
position = "{119, 0}";
},
{
name = top;
position = "{198, 495}";
}
);
layerId = "9AA098C0-EDBC-463F-BC21-AFCD07A070D0";
paths = (
{
closed = 1;
nodes = (
"186 -6 OFFCURVE",
"242 24 OFFCURVE",
"255 114 CURVE SMOOTH",
"256 124 OFFCURVE",
"257 134 OFFCURVE",
"257 143 CURVE SMOOTH",
"257 216 OFFCURVE",
"212 236 OFFCURVE",
"151 265 CURVE SMOOTH",
"105 285 OFFCURVE",
"75 309 OFFCURVE",
"75 362 CURVE SMOOTH",
"75 374 OFFCURVE",
"76 389 OFFCURVE",
"80 405 CURVE SMOOTH",
"92 459 OFFCURVE",
"128 492 OFFCURVE",
"197 492 CURVE SMOOTH",
"247 492 OFFCURVE",
"279 471 OFFCURVE",
"279 427 CURVE SMOOTH",
"279 405 OFFCURVE",
"271 377 OFFCURVE",
"254 344 CURVE",
"265 344 LINE",
"283 377 OFFCURVE",
"290 405 OFFCURVE",
"290 427 CURVE SMOOTH",
"290 477 OFFCURVE",
"252 502 OFFCURVE",
"198 502 CURVE SMOOTH",
"121 502 OFFCURVE",
"84 461 OFFCURVE",
"69 405 CURVE SMOOTH",
"65 389 OFFCURVE",
"63 374 OFFCURVE",
"63 361 CURVE SMOOTH",
"63 303 OFFCURVE",
"100 275 OFFCURVE",
"147 254 CURVE SMOOTH",
"203 229 OFFCURVE",
"245 209 OFFCURVE",
"245 139 CURVE SMOOTH",
"245 45 OFFCURVE",
"191 4 OFFCURVE",
"110 4 CURVE SMOOTH",
"49 4 OFFCURVE",
"19 35 OFFCURVE",
"19 75 CURVE SMOOTH",
"19 103 OFFCURVE",
"33 136 OFFCURVE",
"62 166 CURVE",
"49 166 LINE",
"20 137 OFFCURVE",
"7 105 OFFCURVE",
"7 77 CURVE SMOOTH",
"7 31 OFFCURVE",
"42 -6 OFFCURVE",
"108 -6 CURVE SMOOTH"
);
}
);
userData = {
assembly = "SVTCA[0]	/* SetFreedomAndProjectionVectorToAxis */\012PUSHW[ ]	/* 1 value pushed */\01236 \012MDAP[1]	/* MoveDirectAbsPt */\012PUSHW[ ]	/* 1 value pushed */\0125 \012MDAP[1]	/* MoveDirectAbsPt */\012PUSHW[ ]	/* 3 values pushed */\0120 36 5 \012SRP1[ ]	/* SetRefPoint1 */\012SRP2[ ]	/* SetRefPoint2 */\012IP[ ]	/* InterpolatePts */\012PUSHW[ ]	/* 3 values pushed */\01231 36 5 \012SRP1[ ]	/* SetRefPoint1 */\012SRP2[ ]	/* SetRefPoint2 */\012IP[ ]	/* InterpolatePts */\012IUP[0]	/* InterpolateUntPts */\012IUP[1]	/* InterpolateUntPts */";
};
width = 306;
}
);
leftKerningGroup = s;
note = s;
rightKerningGroup = s;
unicode = 0073;
},
{
glyphname = germandbls;
lastChange = "2021-12-09 03:28:43 +0000";
layers = (
{
layerId = "9AA098C0-EDBC-463F-BC21-AFCD07A070D0";
paths = (
{
closed = 1;
nodes = (
"33 -146 OFFCURVE",
"56 -115 OFFCURVE",
"64 -60 CURVE SMOOTH",
"147 534 LINE SMOOTH",
"154 585 OFFCURVE",
"181 625 OFFCURVE",
"264 625 CURVE SMOOTH",
"327 625 OFFCURVE",
"358 604 OFFCURVE",
"358 558 CURVE SMOOTH",
"358 551 OFFCURVE",
"357 544 OFFCURVE",
"356 537 CURVE SMOOTH",
"344 448 LINE SMOOTH",
"335 385 OFFCURVE",
"310 346 OFFCURVE",
"239 346 CURVE SMOOTH",
"185 346 LINE",
"183 336 LINE",
"226 336 LINE SMOOTH",
"284 336 OFFCURVE",
"328 315 OFFCURVE",
"328 257 CURVE SMOOTH",
"328 252 OFFCURVE",
"328 246 OFFCURVE",
"327 239 CURVE SMOOTH",
"310 123 LINE SMOOTH",
"298 33 OFFCURVE",
"261 9 OFFCURVE",
"194 9 CURVE SMOOTH",
"117 9 LINE",
"116 0 LINE",
"193 0 LINE SMOOTH",
"268 0 OFFCURVE",
"305 23 OFFCURVE",
"320 119 CURVE SMOOTH",
"337 244 LINE SMOOTH",
"338 251 OFFCURVE",
"338 257 OFFCURVE",
"338 263 CURVE SMOOTH",
"338 307 OFFCURVE",
"314 331 OFFCURVE",
"288 335 CURVE",
"290 348 LINE",
"315 351 OFFCURVE",
"346 385 OFFCURVE",
"354 441 CURVE SMOOTH",
"368 538 LINE SMOOTH",
"369 545 OFFCURVE",
"369 551 OFFCURVE",
"369 557 CURVE SMOOTH",
"369 613 OFFCURVE",
"331 633 OFFCURVE",
"265 633 CURVE SMOOTH",
"172 633 OFFCURVE",
"145 604 OFFCURVE",
"134 527 CURVE SMOOTH",
"123 450 LINE",
"92 450 LINE",
"92 447 LINE",
"123 447 LINE",
"52 -55 LINE SMOOTH",
"46 -101 OFFCURVE",
"25 -136 OFFCURVE",
"-25 -136 CURVE SMOOTH",
"-45 -136 LINE SMOOTH",
"-52 -136 OFFCURVE",
"-58 -136 OFFCURVE",
"-65 -135 CURVE SMOOTH",
"-87 -133 LINE",
"-88 -143 LINE",
"-72 -146 OFFCURVE",
"-44 -146 OFFCURVE",
"-20 -146 CURVE SMOOTH"
);
}
);
width = 362;
}
);
note = germandbls;
rightKerningGroup = lslash;
unicode = 00DF;
},
{
glyphname = longs;
lastChange = "2021-12-10 04:55:01 +0000";
layers = (
{
layerId = "9AA098C0-EDBC-463F-BC21-AFCD07A070D0";
paths = (
{
closed = 1;
nodes = (
"12 -147 OFFCURVE",
"34 -114 OFFCURVE",
"42 -58 CURVE SMOOTH",
"128 552 LINE SMOOTH",
"134 590 OFFCURVE",
"150 627 OFFCURVE",
"196 627 CURVE SMOOTH",
"213 627 OFFCURVE",
"228 626 OFFCURVE",
"239 625 CURVE SMOOTH",
"256 623 LINE",
"257 632 LINE",
"244 635 OFFCURVE",
"224 636 OFFCURVE",
"199 636 CURVE SMOOTH",
"147 636 OFFCURVE",
"124 603 OFFCURVE",
"116 547 CURVE SMOOTH",
"101 438 LINE",
"70 438 LINE",
"68 428 LINE",
"99 428 LINE",
"30 -63 LINE SMOOTH",
"24 -101 OFFCURVE",
"8 -138 OFFCURVE",
"-38 -138 CURVE SMOOTH",
"-55 -138 OFFCURVE",
"-70 -137 OFFCURVE",
"-81 -136 CURVE SMOOTH",
"-98 -134 LINE",
"-99 -143 LINE",
"-86 -146 OFFCURVE",
"-65 -147 OFFCURVE",
"-40 -147 CURVE SMOOTH"
);
}
);
userData = {
assembly = "PUSHW[ ]	/* 4 values pushed */\01236 4 30 4 \012CALL[ ]	/* CallFunction */\012PUSHW[ ]	/* 1 value pushed */\01236 \012SRP0[ ]	/* SetRefPoint0 */\012PUSHW[ ]	/* 1 value pushed */\01239 \012MDRP[10000]	/* MoveDirectRelPt */\012PUSHW[ ]	/* 1 value pushed */\01239 \012MDAP[1]	/* MoveDirectAbsPt */\012SVTCA[0]	/* SetFreedomAndProjectionVectorToAxis */\012PUSHW[ ]	/* 4 values pushed */\0123 3 17 4 \012CALL[ ]	/* CallFunction */\012IUP[0]	/* InterpolateUntPts */\012IUP[1]	/* InterpolateUntPts */";
};
width = 191;
}
);
leftMetricsKey = f;
note = longs;
rightKerningGroup = lslash;
rightMetricsKey = f;
unicode = 017F;
},
{
glyphname = t;
lastChange = "2021-12-09 03:31:38 +0000";
layers = (
{
anchors = (
{
name = bottom;
position = "{101, 0}";
},
{
name = center;
position = "{118, 334}";
},
{
name = top;
position = "{142, 495}";
},
{
name = topright;
position = "{189, 540}";
}
);
layerId = "9AA098C0-EDBC-463F-BC21-AFCD07A070D0";
paths = (
{
closed = 1;
nodes = (
"118 -1 OFFCURVE",
"131 0 OFFCURVE",
"142 2 CURVE SMOOTH",
"149 3 OFFCURVE",
"155 4 OFFCURVE",
"160 5 CURVE",
"162 14 LINE",
"156 13 OFFCURVE",
"150 12 OFFCURVE",
"143 11 CURVE SMOOTH",
"132 10 OFFCURVE",
"117 9 OFFCURVE",
"104 9 CURVE SMOOTH",
"65 9 OFFCURVE",
"53 35 OFFCURVE",
"53 69 CURVE SMOOTH",
"53 80 OFFCURVE",
"54 92 OFFCURVE",
"56 104 CURVE SMOOTH",
"110 485 LINE",
"228 485 LINE",
"229 495 LINE",
"111 495 LINE",
"125 591 LINE",
"117 591 LINE",
"100 495 LINE",
"59 493 LINE",
"58 485 LINE",
"99 485 LINE",
"45 100 LINE SMOOTH",
"43 88 OFFCURVE",
"42 76 OFFCURVE",
"42 65 CURVE SMOOTH",
"42 27 OFFCURVE",
"56 -1 OFFCURVE",
"103 -1 CURVE SMOOTH"
);
}
);
userData = {
assembly = "SVTCA[0]	/* SetFreedomAndProjectionVectorToAxis */\012PUSHW[ ]	/* 1 value pushed */\0120 \012RCVT[ ]	/* ReadCVT */\012IF[ ]	/* If */\012PUSHW[ ]	/* 1 value pushed */\01213 \012MDAP[1]	/* MoveDirectAbsPt */\012ELSE[ ]	/* Else */\012PUSHW[ ]	/* 2 values pushed */\01213 5 \012MIAP[0]	/* MoveIndirectAbsPt */\012EIF[ ]	/* EndIf */\012PUSHW[ ]	/* 1 value pushed */\0120 \012RCVT[ ]	/* ReadCVT */\012IF[ ]	/* If */\012PUSHW[ ]	/* 1 value pushed */\01219 \012MDAP[1]	/* MoveDirectAbsPt */\012ELSE[ ]	/* Else */\012PUSHW[ ]	/* 2 values pushed */\01219 5 \012MIAP[0]	/* MoveIndirectAbsPt */\012EIF[ ]	/* EndIf */\012PUSHW[ ]	/* 1 value pushed */\0120 \012RCVT[ ]	/* ReadCVT */\012IF[ ]	/* If */\012PUSHW[ ]	/* 1 value pushed */\01221 \012MDAP[1]	/* MoveDirectAbsPt */\012ELSE[ ]	/* Else */\012PUSHW[ ]	/* 2 values pushed */\01221 5 \012MIAP[0]	/* MoveIndirectAbsPt */\012EIF[ ]	/* EndIf */\012PUSHW[ ]	/* 1 value pushed */\0120 \012RCVT[ ]	/* ReadCVT */\012IF[ ]	/* If */\012PUSHW[ ]	/* 1 value pushed */\01223 \012MDAP[1]	/* MoveDirectAbsPt */\012ELSE[ ]	/* Else */\012PUSHW[ ]	/* 2 values pushed */\01223 5 \012MIAP[0]	/* MoveIndirectAbsPt */\012EIF[ ]	/* EndIf */\012IUP[0]	/* InterpolateUntPts */\012IUP[1]	/* InterpolateUntPts */";
};
width = 199;
}
);
leftKerningGroup = t;
note = t;
rightKerningGroup = t;
unicode = 0074;
},
{
glyphname = u;
lastChange = "2021-12-09 03:28:50 +0000";
layers = (
{
anchors = (
{
name = bottom;
position = "{147, 0}";
},
{
name = ogonek;
position = "{274, 0}";
},
{
name = top;
position = "{217, 495}";
},
{
name = topright;
position = "{302, 495}";
}
);
layerId = "9AA098C0-EDBC-463F-BC21-AFCD07A070D0";
paths = (
{
closed = 1;
nodes = (
"193 -8 OFFCURVE",
"246 64 OFFCURVE",
"271 119 CURVE",
"253 0 LINE",
"265 0 LINE",
"333 495 LINE",
"322 495 LINE",
"276 161 LINE",
"266 112 OFFCURVE",
"202 2 OFFCURVE",
"122 2 CURVE SMOOTH",
"66 2 OFFCURVE",
"52 33 OFFCURVE",
"52 76 CURVE SMOOTH",
"52 92 OFFCURVE",
"53 108 OFFCURVE",
"56 126 CURVE SMOOTH",
"108 495 LINE",
"96 495 LINE",
"43 123 LINE SMOOTH",
"41 108 OFFCURVE",
"40 94 OFFCURVE",
"40 80 CURVE SMOOTH",
"40 30 OFFCURVE",
"57 -8 OFFCURVE",
"118 -8 CURVE SMOOTH"
);
}
);
userData = {
assembly = "SVTCA[0]	/* SetFreedomAndProjectionVectorToAxis */\012PUSHW[ ]	/* 1 value pushed */\0120 \012RCVT[ ]	/* ReadCVT */\012IF[ ]	/* If */\012PUSHW[ ]	/* 1 value pushed */\01212 \012MDAP[1]	/* MoveDirectAbsPt */\012ELSE[ ]	/* Else */\012PUSHW[ ]	/* 2 values pushed */\01212 9 \012MIAP[0]	/* MoveIndirectAbsPt */\012EIF[ ]	/* EndIf */\012PUSHW[ ]	/* 1 value pushed */\0120 \012RCVT[ ]	/* ReadCVT */\012IF[ ]	/* If */\012PUSHW[ ]	/* 1 value pushed */\01225 \012MDAP[1]	/* MoveDirectAbsPt */\012ELSE[ ]	/* Else */\012PUSHW[ ]	/* 2 values pushed */\01225 9 \012MIAP[0]	/* MoveIndirectAbsPt */\012EIF[ ]	/* EndIf */\012PUSHW[ ]	/* 1 value pushed */\0120 \012RCVT[ ]	/* ReadCVT */\012IF[ ]	/* If */\012PUSHW[ ]	/* 1 value pushed */\0120 \012MDAP[1]	/* MoveDirectAbsPt */\012ELSE[ ]	/* Else */\012PUSHW[ ]	/* 2 values pushed */\0120 5 \012MIAP[0]	/* MoveIndirectAbsPt */\012EIF[ ]	/* EndIf */\012PUSHW[ ]	/* 1 value pushed */\0120 \012RCVT[ ]	/* ReadCVT */\012IF[ ]	/* If */\012PUSHW[ ]	/* 1 value pushed */\01219 \012MDAP[1]	/* MoveDirectAbsPt */\012ELSE[ ]	/* Else */\012PUSHW[ ]	/* 2 values pushed */\01219 5 \012MIAP[0]	/* MoveIndirectAbsPt */\012EIF[ ]	/* EndIf */\012PUSHW[ ]	/* 3 values pushed */\0121 0 12 \012SRP1[ ]	/* SetRefPoint1 */\012SRP2[ ]	/* SetRefPoint2 */\012IP[ ]	/* InterpolatePts */\012IUP[0]	/* InterpolateUntPts */\012IUP[1]	/* InterpolateUntPts */";
};
width = 359;
}
);
leftKerningGroup = u;
leftMetricsKey = "=n-4";
note = u;
rightKerningGroup = u;
rightMetricsKey = a;
unicode = 0075;
},
{
glyphname = v;
lastChange = "2021-12-09 03:51:37 +0000";
layers = (
{
layerId = "9AA098C0-EDBC-463F-BC21-AFCD07A070D0";
paths = (
{
closed = 1;
nodes = (
"113 0 LINE",
"157 57 OFFCURVE",
"193 115 OFFCURVE",
"220 173 CURVE SMOOTH",
"251 237 OFFCURVE",
"276 313 OFFCURVE",
"276 385 CURVE SMOOTH",
"276 423 OFFCURVE",
"268 461 OFFCURVE",
"251 495 CURVE",
"239 495 LINE",
"256 458 OFFCURVE",
"264 420 OFFCURVE",
"264 381 CURVE SMOOTH",
"264 312 OFFCURVE",
"241 241 OFFCURVE",
"211 178 CURVE SMOOTH",
"184 122 OFFCURVE",
"150 67 OFFCURVE",
"109 14 CURVE",
"58 495 LINE",
"45 495 LINE",
"97 0 LINE"
);
}
);
userData = {
assembly = "SVTCA[0]	/* SetFreedomAndProjectionVectorToAxis */\012PUSHW[ ]	/* 1 value pushed */\0120 \012RCVT[ ]	/* ReadCVT */\012IF[ ]	/* If */\012PUSHW[ ]	/* 1 value pushed */\0120 \012MDAP[1]	/* MoveDirectAbsPt */\012ELSE[ ]	/* Else */\012PUSHW[ ]	/* 2 values pushed */\0120 9 \012MIAP[0]	/* MoveIndirectAbsPt */\012EIF[ ]	/* EndIf */\012PUSHW[ ]	/* 1 value pushed */\0120 \012RCVT[ ]	/* ReadCVT */\012IF[ ]	/* If */\012PUSHW[ ]	/* 1 value pushed */\0128 \012MDAP[1]	/* MoveDirectAbsPt */\012ELSE[ ]	/* Else */\012PUSHW[ ]	/* 2 values pushed */\0128 9 \012MIAP[0]	/* MoveIndirectAbsPt */\012EIF[ ]	/* EndIf */\012PUSHW[ ]	/* 1 value pushed */\0120 \012RCVT[ ]	/* ReadCVT */\012IF[ ]	/* If */\012PUSHW[ ]	/* 1 value pushed */\01216 \012MDAP[1]	/* MoveDirectAbsPt */\012ELSE[ ]	/* Else */\012PUSHW[ ]	/* 2 values pushed */\01216 5 \012MIAP[0]	/* MoveIndirectAbsPt */\012EIF[ ]	/* EndIf */\012PUSHW[ ]	/* 3 values pushed */\0121 16 0 \012SRP1[ ]	/* SetRefPoint1 */\012SRP2[ ]	/* SetRefPoint2 */\012IP[ ]	/* InterpolatePts */\012IUP[0]	/* InterpolateUntPts */\012IUP[1]	/* InterpolateUntPts */";
};
width = 280;
}
);
leftKerningGroup = v;
note = v;
rightKerningGroup = v;
unicode = 0076;
},
{
glyphname = w;
lastChange = "2021-12-10 04:55:01 +0000";
layers = (
{
anchors = (
{
name = bottom;
position = "{236, 0}";
},
{
name = top;
position = "{297, 495}";
}
);
layerId = "9AA098C0-EDBC-463F-BC21-AFCD07A070D0";
paths = (
{
closed = 1;
nodes = (
"113 0 LINE",
"293 466 LINE",
"342 0 LINE",
"358 0 LINE",
"402 57 OFFCURVE",
"438 115 OFFCURVE",
"465 173 CURVE SMOOTH",
"496 237 OFFCURVE",
"521 313 OFFCURVE",
"521 385 CURVE SMOOTH",
"521 423 OFFCURVE",
"513 461 OFFCURVE",
"496 495 CURVE",
"484 495 LINE",
"501 458 OFFCURVE",
"509 419 OFFCURVE",
"509 380 CURVE SMOOTH",
"509 347 OFFCURVE",
"504 314 OFFCURVE",
"495 282 CURVE SMOOTH",
"486 247 OFFCURVE",
"473 213 OFFCURVE",
"458 181 CURVE SMOOTH",
"427 117 OFFCURVE",
"396 68 OFFCURVE",
"372 37 CURVE SMOOTH",
"352 11 LINE",
"302 495 LINE",
"292 495 LINE",
"106 14 LINE",
"58 495 LINE",
"45 495 LINE",
"97 0 LINE"
);
}
);
userData = {
assembly = "SVTCA[0]	/* SetFreedomAndProjectionVectorToAxis */\012PUSHW[ ]	/* 1 value pushed */\0120 \012RCVT[ ]	/* ReadCVT */\012IF[ ]	/* If */\012PUSHW[ ]	/* 1 value pushed */\0124 \012MDAP[1]	/* MoveDirectAbsPt */\012ELSE[ ]	/* Else */\012PUSHW[ ]	/* 2 values pushed */\0124 9 \012MIAP[0]	/* MoveIndirectAbsPt */\012EIF[ ]	/* EndIf */\012PUSHW[ ]	/* 1 value pushed */\0120 \012RCVT[ ]	/* ReadCVT */\012IF[ ]	/* If */\012PUSHW[ ]	/* 1 value pushed */\0127 \012MDAP[1]	/* MoveDirectAbsPt */\012ELSE[ ]	/* Else */\012PUSHW[ ]	/* 2 values pushed */\0127 9 \012MIAP[0]	/* MoveIndirectAbsPt */\012EIF[ ]	/* EndIf */\012PUSHW[ ]	/* 1 value pushed */\0120 \012RCVT[ ]	/* ReadCVT */\012IF[ ]	/* If */\012PUSHW[ ]	/* 1 value pushed */\01216 \012MDAP[1]	/* MoveDirectAbsPt */\012ELSE[ ]	/* Else */\012PUSHW[ ]	/* 2 values pushed */\01216 9 \012MIAP[0]	/* MoveIndirectAbsPt */\012EIF[ ]	/* EndIf */\012PUSHW[ ]	/* 1 value pushed */\0120 \012RCVT[ ]	/* ReadCVT */\012IF[ ]	/* If */\012PUSHW[ ]	/* 1 value pushed */\0120 \012MDAP[1]	/* MoveDirectAbsPt */\012ELSE[ ]	/* Else */\012PUSHW[ ]	/* 2 values pushed */\0120 5 \012MIAP[0]	/* MoveIndirectAbsPt */\012EIF[ ]	/* EndIf */\012PUSHW[ ]	/* 1 value pushed */\0120 \012RCVT[ ]	/* ReadCVT */\012IF[ ]	/* If */\012PUSHW[ ]	/* 1 value pushed */\0122 \012MDAP[1]	/* MoveDirectAbsPt */\012ELSE[ ]	/* Else */\012PUSHW[ ]	/* 2 values pushed */\0122 5 \012MIAP[0]	/* MoveIndirectAbsPt */\012EIF[ ]	/* EndIf */\012PUSHW[ ]	/* 3 values pushed */\0121 0 4 \012SRP1[ ]	/* SetRefPoint1 */\012SRP2[ ]	/* SetRefPoint2 */\012IP[ ]	/* InterpolatePts */\012PUSHW[ ]	/* 3 values pushed */\0126 0 4 \012SRP1[ ]	/* SetRefPoint1 */\012SRP2[ ]	/* SetRefPoint2 */\012IP[ ]	/* InterpolatePts */\012IUP[0]	/* InterpolateUntPts */\012IUP[1]	/* InterpolateUntPts */";
};
width = 525;
}
);
leftKerningGroup = w;
leftMetricsKey = v;
note = w;
rightKerningGroup = w;
rightMetricsKey = v;
unicode = 0077;
},
{
glyphname = x;
lastChange = "2021-12-09 03:32:21 +0000";
layers = (
{
layerId = "9AA098C0-EDBC-463F-BC21-AFCD07A070D0";
paths = (
{
closed = 1;
nodes = (
"-6 0 LINE",
"-6 77 OFFCURVE",
"91 217 OFFCURVE",
"136 259 CURVE",
"154 259 LINE",
"211 191 OFFCURVE",
"210 71 OFFCURVE",
"210 0 CURVE",
"223 0 LINE",
"223 116 OFFCURVE",
"212 209 OFFCURVE",
"165 265 CURVE",
"205 286 OFFCURVE",
"282 423 OFFCURVE",
"282 495 CURVE",
"268 495 LINE",
"268 433 OFFCURVE",
"218 325 OFFCURVE",
"155 270 CURVE",
"137 270 LINE",
"102 327 OFFCURVE",
"78 414 OFFCURVE",
"78 495 CURVE",
"64 495 LINE",
"64 414 OFFCURVE",
"97 314 OFFCURVE",
"126 265 CURVE",
"80 219 OFFCURVE",
"-21 80 OFFCURVE",
"-21 0 CURVE"
);
}
);
userData = {
assembly = "SVTCA[0]	/* SetFreedomAndProjectionVectorToAxis */\012PUSHW[ ]	/* 1 value pushed */\0120 \012RCVT[ ]	/* ReadCVT */\012IF[ ]	/* If */\012PUSHW[ ]	/* 1 value pushed */\01210 \012MDAP[1]	/* MoveDirectAbsPt */\012ELSE[ ]	/* Else */\012PUSHW[ ]	/* 2 values pushed */\01210 9 \012MIAP[0]	/* MoveIndirectAbsPt */\012EIF[ ]	/* EndIf */\012PUSHW[ ]	/* 1 value pushed */\0120 \012RCVT[ ]	/* ReadCVT */\012IF[ ]	/* If */\012PUSHW[ ]	/* 1 value pushed */\01220 \012MDAP[1]	/* MoveDirectAbsPt */\012ELSE[ ]	/* Else */\012PUSHW[ ]	/* 2 values pushed */\01220 9 \012MIAP[0]	/* MoveIndirectAbsPt */\012EIF[ ]	/* EndIf */\012PUSHW[ ]	/* 1 value pushed */\0120 \012RCVT[ ]	/* ReadCVT */\012IF[ ]	/* If */\012PUSHW[ ]	/* 1 value pushed */\0120 \012MDAP[1]	/* MoveDirectAbsPt */\012ELSE[ ]	/* Else */\012PUSHW[ ]	/* 2 values pushed */\0120 5 \012MIAP[0]	/* MoveIndirectAbsPt */\012EIF[ ]	/* EndIf */\012PUSHW[ ]	/* 1 value pushed */\0120 \012RCVT[ ]	/* ReadCVT */\012IF[ ]	/* If */\012PUSHW[ ]	/* 1 value pushed */\01229 \012MDAP[1]	/* MoveDirectAbsPt */\012ELSE[ ]	/* Else */\012PUSHW[ ]	/* 2 values pushed */\01229 5 \012MIAP[0]	/* MoveIndirectAbsPt */\012EIF[ ]	/* EndIf */\012IUP[0]	/* InterpolateUntPts */\012IUP[1]	/* InterpolateUntPts */";
};
width = 262;
}
);
note = x;
unicode = 0078;
},
{
glyphname = y;
lastChange = "2021-12-09 03:51:48 +0000";
layers = (
{
anchors = (
{
name = bottom;
position = "{200, 0}";
},
{
name = top;
position = "{155, 495}";
}
);
layerId = "9AA098C0-EDBC-463F-BC21-AFCD07A070D0";
paths = (
{
closed = 1;
nodes = (
"41 -115 OFFCURVE",
"88 -86 OFFCURVE",
"128 -42 CURVE SMOOTH",
"147 -20 OFFCURVE",
"165 5 OFFCURVE",
"180 33 CURVE SMOOTH",
"211 88 OFFCURVE",
"234 146 OFFCURVE",
"249 201 CURVE SMOOTH",
"256 228 OFFCURVE",
"261 252 OFFCURVE",
"264 272 CURVE SMOOTH",
"270 313 OFFCURVE",
"274 354 OFFCURVE",
"274 393 CURVE SMOOTH",
"274 430 OFFCURVE",
"270 465 OFFCURVE",
"261 495 CURVE",
"249 495 LINE",
"258 458 OFFCURVE",
"262 422 OFFCURVE",
"262 387 CURVE SMOOTH",
"262 349 OFFCURVE",
"258 311 OFFCURVE",
"252 272 CURVE SMOOTH",
"235 153 OFFCURVE",
"167 20 OFFCURVE",
"123 -28 CURVE",
"46 495 LINE",
"33 495 LINE",
"112 -37 LINE",
"99 -64 OFFCURVE",
"35 -106 OFFCURVE",
"-12 -106 CURVE SMOOTH",
"-23 -106 OFFCURVE",
"-34 -105 OFFCURVE",
"-43 -104 CURVE SMOOTH",
"-52 -102 OFFCURVE",
"-58 -101 OFFCURVE",
"-59 -100 CURVE",
"-60 -109 LINE",
"-57 -110 OFFCURVE",
"-31 -115 OFFCURVE",
"-12 -115 CURVE SMOOTH"
);
}
);
userData = {
assembly = "SVTCA[0]	/* SetFreedomAndProjectionVectorToAxis */\012PUSHW[ ]	/* 1 value pushed */\0120 \012RCVT[ ]	/* ReadCVT */\012IF[ ]	/* If */\012PUSHW[ ]	/* 1 value pushed */\0120 \012MDAP[1]	/* MoveDirectAbsPt */\012ELSE[ ]	/* Else */\012PUSHW[ ]	/* 2 values pushed */\0120 9 \012MIAP[0]	/* MoveIndirectAbsPt */\012EIF[ ]	/* EndIf */\012PUSHW[ ]	/* 1 value pushed */\0120 \012RCVT[ ]	/* ReadCVT */\012IF[ ]	/* If */\012PUSHW[ ]	/* 1 value pushed */\0129 \012MDAP[1]	/* MoveDirectAbsPt */\012ELSE[ ]	/* Else */\012PUSHW[ ]	/* 2 values pushed */\0129 9 \012MIAP[0]	/* MoveIndirectAbsPt */\012EIF[ ]	/* EndIf */\012IUP[0]	/* InterpolateUntPts */\012IUP[1]	/* InterpolateUntPts */";
};
width = 281;
}
);
leftKerningGroup = y;
note = y;
rightKerningGroup = v;
rightMetricsKey = v;
unicode = 0079;
},
{
glyphname = z;
lastChange = "2021-12-09 03:51:16 +0000";
layers = (
{
anchors = (
{
name = bottom;
position = "{84, 0}";
},
{
name = center;
position = "{119, 248}";
},
{
name = top;
position = "{154, 495}";
}
);
layerId = "9AA098C0-EDBC-463F-BC21-AFCD07A070D0";
paths = (
{
closed = 1;
nodes = (
"183 0 LINE",
"184 10 LINE",
"-3 10 LINE",
"-3 33 OFFCURVE",
"33 95 OFFCURVE",
"63 148 CURVE SMOOTH",
"82 180 OFFCURVE",
"102 214 OFFCURVE",
"125 250 CURVE SMOOTH",
"169 322 OFFCURVE",
"208 389 OFFCURVE",
"233 440 CURVE SMOOTH",
"246 465 OFFCURVE",
"252 484 OFFCURVE",
"252 495 CURVE",
"59 495 LINE",
"58 485 LINE",
"237 485 LINE",
"237 464 OFFCURVE",
"201 404 OFFCURVE",
"171 352 CURVE SMOOTH",
"152 319 OFFCURVE",
"132 285 OFFCURVE",
"110 248 CURVE SMOOTH",
"65 175 OFFCURVE",
"26 107 OFFCURVE",
"1 55 CURVE SMOOTH",
"-12 29 OFFCURVE",
"-18 11 OFFCURVE",
"-18 0 CURVE"
);
}
);
width = 233;
}
);
leftKerningGroup = z;
note = z;
rightKerningGroup = z;
unicode = 007A;
},
{
color = 0;
glyphname = s_t;
lastChange = "2021-12-10 05:02:04 +0000";
layers = (
{
anchors = (
{
name = caret_1;
position = "{304, 0}";
}
);
background = {
paths = (
{
closed = 1;
nodes = (
"202 -6 OFFCURVE",
"258 24 OFFCURVE",
"271 114 CURVE SMOOTH",
"272 124 OFFCURVE",
"273 134 OFFCURVE",
"273 143 CURVE SMOOTH",
"273 216 OFFCURVE",
"228 236 OFFCURVE",
"167 265 CURVE SMOOTH",
"121 285 OFFCURVE",
"91 309 OFFCURVE",
"91 362 CURVE SMOOTH",
"91 374 OFFCURVE",
"92 389 OFFCURVE",
"96 405 CURVE SMOOTH",
"108 459 OFFCURVE",
"144 492 OFFCURVE",
"213 492 CURVE SMOOTH",
"257 492 OFFCURVE",
"295 473 OFFCURVE",
"295 423 CURVE SMOOTH",
"295 404 OFFCURVE",
"292 389 OFFCURVE",
"287 378 CURVE SMOOTH",
"270 344 LINE",
"281 344 LINE",
"286 351 OFFCURVE",
"297 372 OFFCURVE",
"302 396 CURVE SMOOTH",
"307 416 OFFCURVE",
"310 439 OFFCURVE",
"313 465 CURVE SMOOTH",
"316 491 OFFCURVE",
"319 517 OFFCURVE",
"323 543 CURVE SMOOTH",
"332 603 OFFCURVE",
"355 622 OFFCURVE",
"390 622 CURVE SMOOTH",
"417 622 OFFCURVE",
"454 607 OFFCURVE",
"463 600 CURVE",
"445 495 LINE",
"404 493 LINE",
"403 485 LINE",
"444 485 LINE",
"389 100 LINE SMOOTH",
"387 88 OFFCURVE",
"386 76 OFFCURVE",
"386 65 CURVE SMOOTH",
"386 27 OFFCURVE",
"400 -1 OFFCURVE",
"447 -1 CURVE SMOOTH",
"462 -1 OFFCURVE",
"475 0 OFFCURVE",
"486 2 CURVE SMOOTH",
"493 3 OFFCURVE",
"499 4 OFFCURVE",
"505 5 CURVE",
"506 14 LINE",
"501 13 OFFCURVE",
"495 12 OFFCURVE",
"488 11 CURVE SMOOTH",
"477 10 OFFCURVE",
"462 9 OFFCURVE",
"449 9 CURVE SMOOTH",
"410 9 OFFCURVE",
"398 35 OFFCURVE",
"398 69 CURVE SMOOTH",
"398 80 OFFCURVE",
"399 92 OFFCURVE",
"401 104 CURVE SMOOTH",
"455 485 LINE",
"573 485 LINE",
"574 495 LINE",
"456 495 LINE",
"472 606 LINE",
"457 614 OFFCURVE",
"421 630 OFFCURVE",
"392 630 CURVE SMOOTH",
"351 630 OFFCURVE",
"320 609 OFFCURVE",
"311 541 CURVE SMOOTH",
"300 459 LINE",
"285 490 OFFCURVE",
"249 502 OFFCURVE",
"214 502 CURVE SMOOTH",
"137 502 OFFCURVE",
"100 461 OFFCURVE",
"85 405 CURVE SMOOTH",
"81 389 OFFCURVE",
"79 374 OFFCURVE",
"79 361 CURVE SMOOTH",
"79 303 OFFCURVE",
"116 275 OFFCURVE",
"163 254 CURVE SMOOTH",
"219 229 OFFCURVE",
"261 209 OFFCURVE",
"261 139 CURVE SMOOTH",
"261 45 OFFCURVE",
"207 4 OFFCURVE",
"126 4 CURVE SMOOTH",
"65 4 OFFCURVE",
"35 35 OFFCURVE",
"35 75 CURVE SMOOTH",
"35 103 OFFCURVE",
"49 136 OFFCURVE",
"78 166 CURVE",
"65 166 LINE",
"36 137 OFFCURVE",
"23 105 OFFCURVE",
"23 77 CURVE SMOOTH",
"23 31 OFFCURVE",
"58 -6 OFFCURVE",
"124 -6 CURVE SMOOTH"
);
}
);
};
components = (
{
name = s;
},
{
name = t;
transform = "{1, 0, 0, 1, 306, 0}";
}
);
layerId = "9AA098C0-EDBC-463F-BC21-AFCD07A070D0";
userData = {
assembly = "SVTCA[0]	/* SetFreedomAndProjectionVectorToAxis */\012PUSHW[ ]	/* 1 value pushed */\0120 \012RCVT[ ]	/* ReadCVT */\012IF[ ]	/* If */\012PUSHW[ ]	/* 1 value pushed */\0128 \012MDAP[1]	/* MoveDirectAbsPt */\012ELSE[ ]	/* Else */\012PUSHW[ ]	/* 2 values pushed */\0128 9 \012MIAP[0]	/* MoveIndirectAbsPt */\012EIF[ ]	/* EndIf */\012PUSHW[ ]	/* 1 value pushed */\0120 \012RCVT[ ]	/* ReadCVT */\012IF[ ]	/* If */\012PUSHW[ ]	/* 1 value pushed */\01255 \012MDAP[1]	/* MoveDirectAbsPt */\012ELSE[ ]	/* Else */\012PUSHW[ ]	/* 2 values pushed */\01255 9 \012MIAP[0]	/* MoveIndirectAbsPt */\012EIF[ ]	/* EndIf */\012PUSHW[ ]	/* 1 value pushed */\0120 \012RCVT[ ]	/* ReadCVT */\012IF[ ]	/* If */\012PUSHW[ ]	/* 1 value pushed */\01268 \012MDAP[1]	/* MoveDirectAbsPt */\012ELSE[ ]	/* Else */\012PUSHW[ ]	/* 2 values pushed */\01268 9 \012MIAP[0]	/* MoveIndirectAbsPt */\012EIF[ ]	/* EndIf */\012PUSHW[ ]	/* 1 value pushed */\0120 \012RCVT[ ]	/* ReadCVT */\012IF[ ]	/* If */\012PUSHW[ ]	/* 1 value pushed */\01295 \012MDAP[1]	/* MoveDirectAbsPt */\012ELSE[ ]	/* Else */\012PUSHW[ ]	/* 2 values pushed */\01295 9 \012MIAP[0]	/* MoveIndirectAbsPt */\012EIF[ ]	/* EndIf */\012PUSHW[ ]	/* 1 value pushed */\0120 \012RCVT[ ]	/* ReadCVT */\012IF[ ]	/* If */\012PUSHW[ ]	/* 1 value pushed */\01239 \012MDAP[1]	/* MoveDirectAbsPt */\012ELSE[ ]	/* Else */\012PUSHW[ ]	/* 2 values pushed */\01239 5 \012MIAP[0]	/* MoveIndirectAbsPt */\012EIF[ ]	/* EndIf */\012PUSHW[ ]	/* 1 value pushed */\0120 \012RCVT[ ]	/* ReadCVT */\012IF[ ]	/* If */\012PUSHW[ ]	/* 1 value pushed */\01277 \012MDAP[1]	/* MoveDirectAbsPt */\012ELSE[ ]	/* Else */\012PUSHW[ ]	/* 2 values pushed */\01277 5 \012MIAP[0]	/* MoveIndirectAbsPt */\012EIF[ ]	/* EndIf */\012PUSHW[ ]	/* 1 value pushed */\0120 \012RCVT[ ]	/* ReadCVT */\012IF[ ]	/* If */\012PUSHW[ ]	/* 1 value pushed */\01283 \012MDAP[1]	/* MoveDirectAbsPt */\012ELSE[ ]	/* Else */\012PUSHW[ ]	/* 2 values pushed */\01283 5 \012MIAP[0]	/* MoveIndirectAbsPt */\012EIF[ ]	/* EndIf */\012PUSHW[ ]	/* 1 value pushed */\0120 \012RCVT[ ]	/* ReadCVT */\012IF[ ]	/* If */\012PUSHW[ ]	/* 1 value pushed */\01285 \012MDAP[1]	/* MoveDirectAbsPt */\012ELSE[ ]	/* Else */\012PUSHW[ ]	/* 2 values pushed */\01285 5 \012MIAP[0]	/* MoveIndirectAbsPt */\012EIF[ ]	/* EndIf */\012PUSHW[ ]	/* 1 value pushed */\0120 \012RCVT[ ]	/* ReadCVT */\012IF[ ]	/* If */\012PUSHW[ ]	/* 1 value pushed */\01287 \012MDAP[1]	/* MoveDirectAbsPt */\012ELSE[ ]	/* Else */\012PUSHW[ ]	/* 2 values pushed */\01287 5 \012MIAP[0]	/* MoveIndirectAbsPt */\012EIF[ ]	/* EndIf */\012PUSHW[ ]	/* 3 values pushed */\0120 87 55 \012SRP1[ ]	/* SetRefPoint1 */\012SRP2[ ]	/* SetRefPoint2 */\012IP[ ]	/* InterpolatePts */\012PUSHW[ ]	/* 3 values pushed */\01234 87 55 \012SRP1[ ]	/* SetRefPoint1 */\012SRP2[ ]	/* SetRefPoint2 */\012IP[ ]	/* InterpolatePts */\012PUSHW[ ]	/* 3 values pushed */\01258 87 55 \012SRP1[ ]	/* SetRefPoint1 */\012SRP2[ ]	/* SetRefPoint2 */\012IP[ ]	/* InterpolatePts */\012PUSHW[ ]	/* 3 values pushed */\01282 87 55 \012SRP1[ ]	/* SetRefPoint1 */\012SRP2[ ]	/* SetRefPoint2 */\012IP[ ]	/* InterpolatePts */\012IUP[0]	/* InterpolateUntPts */\012IUP[1]	/* InterpolateUntPts */";
};
width = 505;
}
);
leftMetricsKey = s;
note = s_t;
rightMetricsKey = t;
},
{
color = 6;
glyphname = "Be-cy";
lastChange = "2021-12-09 03:28:43 +0000";
layers = (
{
layerId = "9AA098C0-EDBC-463F-BC21-AFCD07A070D0";
paths = (
{
closed = 1;
nodes = (
"164 0 LINE SMOOTH",
"277 0 OFFCURVE",
"292 69 OFFCURVE",
"301 131 CURVE SMOOTH",
"325 304 LINE SMOOTH",
"327 319 OFFCURVE",
"329 334 OFFCURVE",
"329 349 CURVE SMOOTH",
"329 395 OFFCURVE",
"311 435 OFFCURVE",
"225 435 CURVE SMOOTH",
"116 435 LINE",
"136 580 LINE",
"366 580 LINE",
"367 591 LINE",
"126 591 LINE",
"44 0 LINE"
);
},
{
closed = 1;
nodes = (
"114 425 LINE",
"223 425 LINE SMOOTH",
"301 425 OFFCURVE",
"318 388 OFFCURVE",
"318 344 CURVE SMOOTH",
"318 330 OFFCURVE",
"316 315 OFFCURVE",
"314 301 CURVE SMOOTH",
"290 134 LINE SMOOTH",
"282 75 OFFCURVE",
"268 10 OFFCURVE",
"165 10 CURVE SMOOTH",
"56 10 LINE"
);
}
);
width = 368;
}
);
note = uni0411;
unicode = 0411;
},
{
color = 6;
glyphname = "Ge-cy";
lastChange = "2021-12-09 03:28:43 +0000";
layers = (
{
layerId = "9AA098C0-EDBC-463F-BC21-AFCD07A070D0";
paths = (
{
closed = 1;
nodes = (
"56 0 LINE",
"137 580 LINE",
"366 580 LINE",
"367 591 LINE",
"126 591 LINE",
"44 0 LINE"
);
}
);
width = 344;
}
);
note = uni0413;
unicode = 0413;
},
{
color = 6;
glyphname = "De-cy";
lastChange = "2021-12-09 03:28:43 +0000";
layers = (
{
layerId = "9AA098C0-EDBC-463F-BC21-AFCD07A070D0";
paths = (
{
closed = 1;
nodes = (
"2 -99 LINE",
"16 0 LINE",
"398 0 LINE",
"384 -99 LINE",
"395 -99 LINE",
"410 11 LINE",
"337 11 LINE",
"418 591 LINE",
"218 591 LINE",
"113 92 LINE SMOOTH",
"102 40 OFFCURVE",
"84 13 OFFCURVE",
"61 11 CURVE",
"6 11 LINE",
"-9 -99 LINE"
);
},
{
closed = 1;
nodes = (
"113 32 OFFCURVE",
"124 80 OFFCURVE",
"125 92 CURVE",
"229 580 LINE",
"405 580 LINE",
"325 11 LINE",
"86 11 LINE"
);
}
);
width = 483;
}
);
note = uni0414;
unicode = 0414;
},
{
color = 6;
glyphname = "Zhe-cy";
lastChange = "2021-12-09 03:28:43 +0000";
layers = (
{
layerId = "9AA098C0-EDBC-463F-BC21-AFCD07A070D0";
paths = (
{
closed = 1;
nodes = (
"-10 0 LINE",
"212 299 LINE",
"245 299 LINE",
"204 0 LINE",
"216 0 LINE",
"257 299 LINE",
"290 299 LINE",
"430 0 LINE",
"445 0 LINE",
"301 306 LINE",
"522 591 LINE",
"508 591 LINE",
"290 310 LINE",
"259 310 LINE",
"298 591 LINE",
"286 591 LINE",
"247 310 LINE",
"215 310 LINE",
"76 591 LINE",
"62 591 LINE",
"203 306 LINE",
"-25 0 LINE"
);
}
);
width = 492;
}
);
note = uni0416;
unicode = 0416;
},
{
color = 6;
glyphname = "Ze-cy";
lastChange = "2021-12-09 03:28:43 +0000";
layers = (
{
layerId = "9AA098C0-EDBC-463F-BC21-AFCD07A070D0";
paths = (
{
closed = 1;
nodes = (
"204 -8 OFFCURVE",
"233 3 OFFCURVE",
"259 19 CURVE SMOOTH",
"298 46 OFFCURVE",
"317 88 OFFCURVE",
"324 137 CURVE SMOOTH",
"328 163 LINE SMOOTH",
"329 173 OFFCURVE",
"330 182 OFFCURVE",
"330 192 CURVE SMOOTH",
"330 249 OFFCURVE",
"305 300 OFFCURVE",
"237 309 CURVE",
"303 321 OFFCURVE",
"351 373 OFFCURVE",
"361 442 CURVE SMOOTH",
"363 460 LINE SMOOTH",
"364 470 OFFCURVE",
"365 479 OFFCURVE",
"365 488 CURVE SMOOTH",
"365 555 OFFCURVE",
"326 595 OFFCURVE",
"247 595 CURVE SMOOTH",
"158 595 OFFCURVE",
"105 543 OFFCURVE",
"93 460 CURVE SMOOTH",
"89 429 LINE",
"102 429 LINE",
"106 459 LINE SMOOTH",
"117 534 OFFCURVE",
"162 584 OFFCURVE",
"246 584 CURVE SMOOTH",
"319 584 OFFCURVE",
"352 546 OFFCURVE",
"352 487 CURVE SMOOTH",
"352 478 OFFCURVE",
"351 469 OFFCURVE",
"350 459 CURVE SMOOTH",
"347 440 LINE SMOOTH",
"338 370 OFFCURVE",
"280 315 OFFCURVE",
"208 315 CURVE SMOOTH",
"144 315 LINE",
"142 303 LINE",
"206 303 LINE SMOOTH",
"280 303 OFFCURVE",
"318 259 OFFCURVE",
"318 190 CURVE SMOOTH",
"318 182 OFFCURVE",
"317 172 OFFCURVE",
"316 163 CURVE SMOOTH",
"312 137 LINE SMOOTH",
"305 86 OFFCURVE",
"285 49 OFFCURVE",
"252 27 CURVE SMOOTH",
"229 12 OFFCURVE",
"199 3 OFFCURVE",
"164 2 CURVE SMOOTH",
"129 3 OFFCURVE",
"103 12 OFFCURVE",
"84 27 CURVE SMOOTH",
"63 44 OFFCURVE",
"52 71 OFFCURVE",
"52 107 CURVE SMOOTH",
"52 117 OFFCURVE",
"53 126 OFFCURVE",
"54 137 CURVE SMOOTH",
"61 183 LINE",
"49 183 LINE",
"42 137 LINE SMOOTH",
"40 126 OFFCURVE",
"40 115 OFFCURVE",
"40 105 CURVE SMOOTH",
"40 70 OFFCURVE",
"50 40 OFFCURVE",
"75 19 CURVE SMOOTH",
"95 3 OFFCURVE",
"122 -8 OFFCURVE",
"163 -8 CURVE SMOOTH"
);
}
);
width = 402;
}
);
note = uni0417;
unicode = 0417;
},
{
color = 6;
glyphname = "Ii-cy";
lastChange = "2021-12-09 03:28:43 +0000";
layers = (
{
layerId = "9AA098C0-EDBC-463F-BC21-AFCD07A070D0";
paths = (
{
closed = 1;
nodes = (
"60 0 LINE",
"384 564 LINE",
"305 0 LINE",
"317 0 LINE",
"399 591 LINE",
"385 591 LINE",
"57 17 LINE",
"137 591 LINE",
"126 591 LINE",
"44 0 LINE"
);
}
);
width = 430;
}
);
note = uni0418;
unicode = 0418;
},
{
color = 6;
glyphname = "Iishort-cy";
lastChange = "2021-12-09 03:28:43 +0000";
layers = (
{
layerId = "9AA098C0-EDBC-463F-BC21-AFCD07A070D0";
paths = (
{
closed = 1;
nodes = (
"60 0 LINE",
"383 564 LINE",
"305 0 LINE",
"317 0 LINE",
"399 591 LINE",
"385 591 LINE",
"57 17 LINE",
"137 591 LINE",
"126 591 LINE",
"44 0 LINE"
);
},
{
closed = 1;
nodes = (
"339 645 OFFCURVE",
"362 689 OFFCURVE",
"372 722 CURVE",
"361 722 LINE",
"348 674 OFFCURVE",
"314 653 OFFCURVE",
"274 653 CURVE SMOOTH",
"234 653 OFFCURVE",
"206 674 OFFCURVE",
"205 722 CURVE",
"194 722 LINE",
"196 689 OFFCURVE",
"209 645 OFFCURVE",
"273 645 CURVE SMOOTH"
);
}
);
width = 430;
}
);
note = uni0419;
unicode = 0419;
},
{
glyphname = "Iigrave-cy";
lastChange = "2021-12-10 04:54:51 +0000";
layers = (
{
associatedMasterId = "9AA098C0-EDBC-463F-BC21-AFCD07A070D0";
background = {
components = (
{
name = breve;
transform = "{1, 0, 0, 1, 3, 0}";
}
);
paths = (
{
closed = 1;
nodes = (
"149 0 LINE",
"177 85 OFFCURVE",
"204 170 OFFCURVE",
"232 255 CURVE",
"232 0 LINE",
"368 0 LINE",
"368 495 LINE",
"233 495 LINE",
"161 278 LINE",
"161 495 LINE",
"25 495 LINE",
"25 0 LINE"
);
}
);
};
components = (
{
name = "Ii-cy";
},
{
name = gravecomb.case;
transform = "{1, 0, 0, 1, 52, 0}";
}
);
layerId = "84C7F3DB-6EB7-40E5-AF1F-D22350FC6E40";
name = Black;
width = 430;
},
{
components = (
{
name = "Ii-cy";
},
{
name = gravecomb.case;
}
);
layerId = "9AA098C0-EDBC-463F-BC21-AFCD07A070D0";
width = 430;
}
);
leftKerningGroup = uni0431;
note = uni0439;
unicode = 040D;
},
{
color = 6;
glyphname = "Ka-cy";
lastChange = "2021-12-09 03:28:43 +0000";
layers = (
{
layerId = "9AA098C0-EDBC-463F-BC21-AFCD07A070D0";
paths = (
{
closed = 1;
nodes = (
"56 0 LINE",
"97 299 LINE",
"130 299 LINE",
"270 0 LINE",
"285 0 LINE",
"141 306 LINE",
"362 591 LINE",
"348 591 LINE",
"130 310 LINE",
"99 310 LINE",
"138 591 LINE",
"126 591 LINE",
"44 0 LINE"
);
}
);
width = 336;
}
);
note = uni041A;
unicode = 041A;
},
{
color = 6;
glyphname = "El-cy";
lastChange = "2021-12-09 03:28:43 +0000";
layers = (
{
layerId = "9AA098C0-EDBC-463F-BC21-AFCD07A070D0";
paths = (
{
closed = 1;
nodes = (
"30 0 OFFCURVE",
"46 77 OFFCURVE",
"49 92 CURVE SMOOTH",
"152 580 LINE",
"328 580 LINE",
"247 1 LINE",
"259 1 LINE",
"341 591 LINE",
"141 591 LINE",
"37 92 LINE SMOOTH",
"25 36 OFFCURVE",
"7 11 OFFCURVE",
"-20 11 CURVE",
"-21 0 LINE"
);
}
);
width = 372;
}
);
note = uni041B;
unicode = 041B;
},
{
color = 6;
glyphname = "Pe-cy";
lastChange = "2021-12-09 03:28:43 +0000";
layers = (
{
layerId = "9AA098C0-EDBC-463F-BC21-AFCD07A070D0";
paths = (
{
closed = 1;
nodes = (
"56 0 LINE",
"137 580 LINE",
"354 580 LINE",
"273 0 LINE",
"285 0 LINE",
"367 591 LINE",
"126 591 LINE",
"44 0 LINE"
);
}
);
width = 398;
}
);
note = uni041F;
unicode = 041F;
},
{
color = 6;
glyphname = "U-cy";
lastChange = "2021-12-09 03:28:43 +0000";
layers = (
{
layerId = "9AA098C0-EDBC-463F-BC21-AFCD07A070D0";
paths = (
{
closed = 1;
nodes = (
"81 -3 OFFCURVE",
"115 43 OFFCURVE",
"142 112 CURVE SMOOTH",
"331 591 LINE",
"319 591 LINE",
"136 126 LINE",
"85 591 LINE",
"72 591 LINE",
"126 103 LINE",
"102 30 OFFCURVE",
"54 6 OFFCURVE",
"23 6 CURVE SMOOTH",
"11 6 OFFCURVE",
"0 8 OFFCURVE",
"-9 9 CURVE",
"-10 0 LINE",
"1 -1 OFFCURVE",
"10 -3 OFFCURVE",
"21 -3 CURVE SMOOTH"
);
}
);
width = 311;
}
);
note = uni0423;
unicode = 0423;
},
{
color = 6;
glyphname = "Ushort-cy";
lastChange = "2021-12-09 03:28:43 +0000";
layers = (
{
layerId = "9AA098C0-EDBC-463F-BC21-AFCD07A070D0";
paths = (
{
closed = 1;
nodes = (
"82 -3 OFFCURVE",
"116 43 OFFCURVE",
"142 112 CURVE SMOOTH",
"331 591 LINE",
"319 591 LINE",
"136 126 LINE",
"85 591 LINE",
"72 591 LINE",
"127 103 LINE",
"103 30 OFFCURVE",
"54 6 OFFCURVE",
"23 6 CURVE SMOOTH",
"11 6 OFFCURVE",
"1 8 OFFCURVE",
"-8 9 CURVE",
"-9 0 LINE",
"1 -1 OFFCURVE",
"11 -3 OFFCURVE",
"22 -3 CURVE SMOOTH"
);
},
{
closed = 1;
nodes = (
"262 632 OFFCURVE",
"285 676 OFFCURVE",
"296 709 CURVE",
"285 709 LINE",
"271 661 OFFCURVE",
"237 640 OFFCURVE",
"197 640 CURVE SMOOTH",
"157 640 OFFCURVE",
"129 661 OFFCURVE",
"129 709 CURVE",
"118 709 LINE",
"119 676 OFFCURVE",
"132 632 OFFCURVE",
"196 632 CURVE SMOOTH"
);
}
);
width = 311;
}
);
note = uni040E;
unicode = 040E;
},
{
color = 6;
glyphname = "Ef-cy";
lastChange = "2021-12-09 03:28:43 +0000";
layers = (
{
layerId = "9AA098C0-EDBC-463F-BC21-AFCD07A070D0";
paths = (
{
closed = 1;
nodes = (
"176 0 LINE",
"184 59 LINE",
"195 59 LINE SMOOTH",
"275 59 OFFCURVE",
"334 73 OFFCURVE",
"350 189 CURVE SMOOTH",
"380 403 LINE SMOOTH",
"382 416 OFFCURVE",
"383 428 OFFCURVE",
"383 438 CURVE SMOOTH",
"383 520 OFFCURVE",
"330 533 OFFCURVE",
"262 533 CURVE SMOOTH",
"250 533 LINE",
"258 591 LINE",
"246 591 LINE",
"238 533 LINE",
"225 533 LINE SMOOTH",
"148 533 OFFCURVE",
"87 519 OFFCURVE",
"71 403 CURVE SMOOTH",
"41 189 LINE SMOOTH",
"39 176 OFFCURVE",
"38 164 OFFCURVE",
"38 154 CURVE SMOOTH",
"38 72 OFFCURVE",
"91 59 OFFCURVE",
"158 59 CURVE SMOOTH",
"172 59 LINE",
"164 0 LINE"
);
},
{
closed = 1;
nodes = (
"98 69 OFFCURVE",
"50 80 OFFCURVE",
"50 153 CURVE SMOOTH",
"50 163 OFFCURVE",
"51 174 OFFCURVE",
"53 186 CURVE SMOOTH",
"83 406 LINE SMOOTH",
"98 510 OFFCURVE",
"155 523 OFFCURVE",
"224 523 CURVE SMOOTH",
"237 523 LINE",
"173 69 LINE",
"158 69 LINE SMOOTH"
);
},
{
closed = 1;
nodes = (
"249 523 LINE",
"261 523 LINE SMOOTH",
"320 523 OFFCURVE",
"370 512 OFFCURVE",
"370 437 CURVE SMOOTH",
"370 428 OFFCURVE",
"370 418 OFFCURVE",
"368 406 CURVE SMOOTH",
"338 186 LINE SMOOTH",
"323 82 OFFCURVE",
"266 69 OFFCURVE",
"196 69 CURVE SMOOTH",
"185 69 LINE"
);
}
);
width = 407;
}
);
note = uni0424;
unicode = 0424;
},
{
color = 6;
glyphname = "Che-cy";
lastChange = "2021-12-09 03:28:43 +0000";
layers = (
{
layerId = "9AA098C0-EDBC-463F-BC21-AFCD07A070D0";
paths = (
{
closed = 1;
nodes = (
"248 0 LINE",
"330 591 LINE",
"318 591 LINE",
"262 187 LINE",
"249 176 OFFCURVE",
"219 146 OFFCURVE",
"147 146 CURVE SMOOTH",
"69 146 OFFCURVE",
"53 182 OFFCURVE",
"53 225 CURVE SMOOTH",
"53 240 OFFCURVE",
"55 255 OFFCURVE",
"57 270 CURVE SMOOTH",
"102 591 LINE",
"90 591 LINE",
"45 267 LINE SMOOTH",
"43 252 OFFCURVE",
"41 237 OFFCURVE",
"41 223 CURVE SMOOTH",
"41 176 OFFCURVE",
"60 136 OFFCURVE",
"146 136 CURVE SMOOTH",
"209 136 OFFCURVE",
"249 159 OFFCURVE",
"260 174 CURVE",
"236 0 LINE"
);
}
);
width = 361;
}
);
note = uni0427;
unicode = 0427;
},
{
color = 6;
glyphname = "Tse-cy";
lastChange = "2021-12-09 03:28:43 +0000";
layers = (
{
layerId = "9AA098C0-EDBC-463F-BC21-AFCD07A070D0";
paths = (
{
closed = 1;
nodes = (
"284 -74 LINE",
"296 11 LINE",
"285 11 LINE",
"367 591 LINE",
"355 591 LINE",
"273 11 LINE",
"56 11 LINE",
"138 591 LINE",
"126 591 LINE",
"43 0 LINE",
"284 0 LINE",
"273 -74 LINE"
);
}
);
width = 380;
}
);
note = uni0426;
unicode = 0426;
},
{
color = 6;
glyphname = "Sha-cy";
lastChange = "2021-12-09 03:28:43 +0000";
layers = (
{
layerId = "9AA098C0-EDBC-463F-BC21-AFCD07A070D0";
paths = (
{
closed = 1;
nodes = (
"514 0 LINE",
"596 591 LINE",
"584 591 LINE",
"503 11 LINE",
"286 11 LINE",
"367 591 LINE",
"355 591 LINE",
"274 11 LINE",
"57 11 LINE",
"138 591 LINE",
"126 591 LINE",
"44 0 LINE"
);
}
);
width = 627;
}
);
note = uni0428;
unicode = 0428;
},
{
color = 6;
glyphname = "Shcha-cy";
lastChange = "2021-12-09 03:28:43 +0000";
layers = (
{
layerId = "9AA098C0-EDBC-463F-BC21-AFCD07A070D0";
paths = (
{
closed = 1;
nodes = (
"483 -74 LINE",
"495 11 LINE",
"484 11 LINE",
"566 591 LINE",
"554 591 LINE",
"472 11 LINE",
"255 11 LINE",
"337 591 LINE",
"325 591 LINE",
"243 11 LINE",
"26 11 LINE",
"108 591 LINE",
"96 591 LINE",
"13 0 LINE",
"483 0 LINE",
"472 -74 LINE"
);
}
);
width = 574;
}
);
note = uni0429;
unicode = 0429;
},
{
color = 6;
glyphname = "Dzhe-cy";
lastChange = "2021-12-09 03:28:43 +0000";
layers = (
{
layerId = "9AA098C0-EDBC-463F-BC21-AFCD07A070D0";
paths = (
{
closed = 1;
nodes = (
"156 -99 LINE",
"170 0 LINE",
"285 0 LINE",
"367 591 LINE",
"355 591 LINE",
"274 11 LINE",
"57 11 LINE",
"138 591 LINE",
"126 591 LINE",
"44 0 LINE",
"159 0 LINE",
"145 -99 LINE"
);
}
);
width = 398;
}
);
note = uni040F;
unicode = 040F;
},
{
color = 6;
glyphname = "Softsign-cy";
lastChange = "2021-12-09 03:28:43 +0000";
layers = (
{
layerId = "9AA098C0-EDBC-463F-BC21-AFCD07A070D0";
paths = (
{
closed = 1;
nodes = (
"150 0 LINE SMOOTH",
"263 0 OFFCURVE",
"279 69 OFFCURVE",
"287 131 CURVE SMOOTH",
"311 304 LINE SMOOTH",
"313 319 OFFCURVE",
"315 334 OFFCURVE",
"315 349 CURVE SMOOTH",
"315 395 OFFCURVE",
"297 435 OFFCURVE",
"211 435 CURVE SMOOTH",
"102 435 LINE",
"123 588 LINE",
"112 588 LINE",
"30 0 LINE"
);
},
{
closed = 1;
nodes = (
"100 425 LINE",
"209 425 LINE SMOOTH",
"287 425 OFFCURVE",
"304 388 OFFCURVE",
"304 344 CURVE SMOOTH",
"304 330 OFFCURVE",
"302 315 OFFCURVE",
"300 301 CURVE SMOOTH",
"277 134 LINE SMOOTH",
"268 75 OFFCURVE",
"254 10 OFFCURVE",
"151 10 CURVE SMOOTH",
"42 10 LINE"
);
}
);
width = 352;
}
);
note = uni042C;
unicode = 042C;
},
{
color = 6;
glyphname = "Hardsign-cy";
lastChange = "2021-12-09 03:28:43 +0000";
layers = (
{
layerId = "9AA098C0-EDBC-463F-BC21-AFCD07A070D0";
paths = (
{
closed = 1;
nodes = (
"155 0 LINE SMOOTH",
"268 0 OFFCURVE",
"283 69 OFFCURVE",
"292 131 CURVE SMOOTH",
"316 304 LINE SMOOTH",
"318 319 OFFCURVE",
"320 334 OFFCURVE",
"320 349 CURVE SMOOTH",
"320 395 OFFCURVE",
"302 435 OFFCURVE",
"216 435 CURVE SMOOTH",
"107 435 LINE",
"128 591 LINE",
"51 591 LINE",
"50 580 LINE",
"116 580 LINE",
"35 0 LINE"
);
},
{
closed = 1;
nodes = (
"105 425 LINE",
"214 425 LINE SMOOTH",
"292 425 OFFCURVE",
"309 388 OFFCURVE",
"309 344 CURVE SMOOTH",
"309 330 OFFCURVE",
"307 315 OFFCURVE",
"305 301 CURVE SMOOTH",
"281 134 LINE SMOOTH",
"273 75 OFFCURVE",
"259 10 OFFCURVE",
"156 10 CURVE SMOOTH",
"47 10 LINE"
);
}
);
width = 364;
}
);
note = uni042A;
unicode = 042A;
},
{
color = 6;
glyphname = "Yeru-cy";
lastChange = "2021-12-09 03:28:43 +0000";
layers = (
{
layerId = "9AA098C0-EDBC-463F-BC21-AFCD07A070D0";
paths = (
{
closed = 1;
nodes = (
"164 0 LINE SMOOTH",
"277 0 OFFCURVE",
"292 69 OFFCURVE",
"301 131 CURVE SMOOTH",
"325 304 LINE SMOOTH",
"327 319 OFFCURVE",
"329 334 OFFCURVE",
"329 349 CURVE SMOOTH",
"329 395 OFFCURVE",
"311 435 OFFCURVE",
"225 435 CURVE SMOOTH",
"116 435 LINE",
"137 588 LINE",
"126 588 LINE",
"44 0 LINE"
);
},
{
closed = 1;
nodes = (
"114 425 LINE",
"223 425 LINE SMOOTH",
"301 425 OFFCURVE",
"318 388 OFFCURVE",
"318 344 CURVE SMOOTH",
"318 330 OFFCURVE",
"316 315 OFFCURVE",
"314 301 CURVE SMOOTH",
"290 134 LINE SMOOTH",
"282 75 OFFCURVE",
"268 10 OFFCURVE",
"165 10 CURVE SMOOTH",
"56 10 LINE"
);
},
{
closed = 1;
nodes = (
"367 0 LINE",
"449 591 LINE",
"437 591 LINE",
"355 0 LINE"
);
}
);
width = 480;
}
);
note = uni042B;
unicode = 042B;
},
{
color = 6;
glyphname = "Lje-cy";
lastChange = "2021-12-09 03:28:43 +0000";
layers = (
{
layerId = "9AA098C0-EDBC-463F-BC21-AFCD07A070D0";
paths = (
{
closed = 1;
nodes = (
"30 0 OFFCURVE",
"46 77 OFFCURVE",
"49 92 CURVE SMOOTH",
"152 580 LINE",
"329 580 LINE",
"248 0 LINE",
"368 0 LINE SMOOTH",
"481 0 OFFCURVE",
"496 69 OFFCURVE",
"505 131 CURVE SMOOTH",
"529 304 LINE SMOOTH",
"531 319 OFFCURVE",
"533 334 OFFCURVE",
"533 349 CURVE SMOOTH",
"533 395 OFFCURVE",
"515 435 OFFCURVE",
"429 435 CURVE SMOOTH",
"320 435 LINE",
"341 591 LINE",
"141 591 LINE",
"37 92 LINE SMOOTH",
"25 36 OFFCURVE",
"7 11 OFFCURVE",
"-20 11 CURVE",
"-21 0 LINE"
);
},
{
closed = 1;
nodes = (
"318 425 LINE",
"427 425 LINE SMOOTH",
"505 425 OFFCURVE",
"522 388 OFFCURVE",
"522 344 CURVE SMOOTH",
"522 330 OFFCURVE",
"520 315 OFFCURVE",
"518 301 CURVE SMOOTH",
"494 134 LINE SMOOTH",
"486 75 OFFCURVE",
"472 10 OFFCURVE",
"369 10 CURVE SMOOTH",
"260 10 LINE"
);
}
);
width = 578;
}
);
note = uni0409;
unicode = 0409;
},
{
color = 6;
glyphname = "Nje-cy";
lastChange = "2021-12-09 03:28:43 +0000";
layers = (
{
layerId = "9AA098C0-EDBC-463F-BC21-AFCD07A070D0";
paths = (
{
closed = 1;
nodes = (
"56 0 LINE",
"98 306 LINE",
"261 306 LINE",
"219 0 LINE",
"339 0 LINE SMOOTH",
"452 0 OFFCURVE",
"467 69 OFFCURVE",
"476 131 CURVE SMOOTH",
"500 304 LINE SMOOTH",
"502 319 OFFCURVE",
"504 334 OFFCURVE",
"504 349 CURVE SMOOTH",
"504 395 OFFCURVE",
"486 435 OFFCURVE",
"400 435 CURVE SMOOTH",
"292 435 LINE",
"313 591 LINE",
"301 591 LINE",
"263 317 LINE",
"100 317 LINE",
"138 591 LINE",
"126 591 LINE",
"44 0 LINE"
);
},
{
closed = 1;
nodes = (
"290 425 LINE",
"398 425 LINE SMOOTH",
"476 425 OFFCURVE",
"493 388 OFFCURVE",
"493 344 CURVE SMOOTH",
"493 330 OFFCURVE",
"491 315 OFFCURVE",
"489 301 CURVE SMOOTH",
"465 134 LINE SMOOTH",
"457 75 OFFCURVE",
"443 10 OFFCURVE",
"340 10 CURVE SMOOTH",
"232 10 LINE"
);
}
);
width = 541;
}
);
note = uni040A;
unicode = 040A;
},
{
color = 6;
glyphname = "E-cy";
lastChange = "2021-12-09 03:28:43 +0000";
layers = (
{
layerId = "9AA098C0-EDBC-463F-BC21-AFCD07A070D0";
paths = (
{
closed = 1;
nodes = (
"246 -12 OFFCURVE",
"306 2 OFFCURVE",
"322 118 CURVE SMOOTH",
"332 189 LINE",
"320 189 LINE",
"310 116 LINE SMOOTH",
"296 12 OFFCURVE",
"239 -3 OFFCURVE",
"169 -3 CURVE SMOOTH",
"108 -3 OFFCURVE",
"59 9 OFFCURVE",
"59 85 CURVE SMOOTH",
"59 94 OFFCURVE",
"59 105 OFFCURVE",
"61 116 CURVE SMOOTH",
"86 295 LINE",
"258 295 LINE",
"260 306 LINE",
"88 306 LINE",
"110 467 LINE SMOOTH",
"125 572 OFFCURVE",
"176 589 OFFCURVE",
"251 589 CURVE SMOOTH",
"317 589 OFFCURVE",
"362 577 OFFCURVE",
"362 505 CURVE SMOOTH",
"362 495 OFFCURVE",
"362 485 OFFCURVE",
"360 473 CURVE SMOOTH",
"347 381 LINE",
"359 381 LINE",
"372 469 LINE SMOOTH",
"374 482 OFFCURVE",
"374 493 OFFCURVE",
"374 503 CURVE SMOOTH",
"374 586 OFFCURVE",
"323 599 OFFCURVE",
"254 599 CURVE SMOOTH",
"177 599 OFFCURVE",
"115 585 OFFCURVE",
"99 469 CURVE SMOOTH",
"49 118 LINE SMOOTH",
"47 105 OFFCURVE",
"47 94 OFFCURVE",
"47 84 CURVE SMOOTH",
"47 1 OFFCURVE",
"98 -12 OFFCURVE",
"166 -12 CURVE SMOOTH"
);
}
);
width = 403;
}
);
note = uni0404;
unicode = 0404;
},
{
color = 6;
glyphname = "Ereversed-cy";
lastChange = "2021-12-09 03:28:43 +0000";
layers = (
{
layerId = "9AA098C0-EDBC-463F-BC21-AFCD07A070D0";
paths = (
{
closed = 1;
nodes = (
"240 -12 OFFCURVE",
"302 4 OFFCURVE",
"317 118 CURVE SMOOTH",
"367 469 LINE SMOOTH",
"369 482 OFFCURVE",
"370 494 OFFCURVE",
"370 504 CURVE SMOOTH",
"370 588 OFFCURVE",
"316 599 OFFCURVE",
"248 599 CURVE SMOOTH",
"171 599 OFFCURVE",
"109 583 OFFCURVE",
"94 469 CURVE SMOOTH",
"81 381 LINE",
"93 381 LINE",
"106 473 LINE SMOOTH",
"120 574 OFFCURVE",
"172 589 OFFCURVE",
"247 589 CURVE SMOOTH",
"313 589 OFFCURVE",
"357 576 OFFCURVE",
"357 502 CURVE SMOOTH",
"357 492 OFFCURVE",
"356 480 OFFCURVE",
"354 467 CURVE SMOOTH",
"332 306 LINE",
"160 306 LINE",
"158 295 LINE",
"330 295 LINE",
"305 116 LINE SMOOTH",
"291 12 OFFCURVE",
"234 -3 OFFCURVE",
"165 -3 CURVE SMOOTH",
"103 -3 OFFCURVE",
"54 9 OFFCURVE",
"54 85 CURVE SMOOTH",
"54 94 OFFCURVE",
"54 105 OFFCURVE",
"56 116 CURVE SMOOTH",
"66 189 LINE",
"54 189 LINE",
"44 118 LINE SMOOTH",
"42 105 OFFCURVE",
"41 93 OFFCURVE",
"41 82 CURVE SMOOTH",
"41 -1 OFFCURVE",
"93 -12 OFFCURVE",
"164 -12 CURVE SMOOTH"
);
}
);
width = 403;
}
);
note = uni042D;
unicode = 042D;
},
{
color = 6;
glyphname = "Tshe-cy";
lastChange = "2021-12-09 03:28:43 +0000";
layers = (
{
layerId = "9AA098C0-EDBC-463F-BC21-AFCD07A070D0";
paths = (
{
closed = 1;
nodes = (
"103 0 LINE",
"151 347 LINE",
"161 382 OFFCURVE",
"198 423 OFFCURVE",
"271 423 CURVE SMOOTH",
"348 423 OFFCURVE",
"365 388 OFFCURVE",
"365 346 CURVE SMOOTH",
"365 330 OFFCURVE",
"362 315 OFFCURVE",
"360 299 CURVE SMOOTH",
"319 0 LINE",
"331 0 LINE",
"373 302 LINE SMOOTH",
"375 316 OFFCURVE",
"377 331 OFFCURVE",
"377 345 CURVE SMOOTH",
"377 392 OFFCURVE",
"359 433 OFFCURVE",
"272 433 CURVE SMOOTH",
"209 433 OFFCURVE",
"174 406 OFFCURVE",
"155 375 CURVE",
"184 580 LINE",
"298 580 LINE",
"299 591 LINE",
"60 591 LINE",
"59 580 LINE",
"172 580 LINE",
"91 0 LINE"
);
}
);
width = 420;
}
);
note = uni040B;
unicode = 040B;
},
{
color = 6;
glyphname = "Iu-cy";
lastChange = "2021-12-09 03:28:43 +0000";
layers = (
{
layerId = "9AA098C0-EDBC-463F-BC21-AFCD07A070D0";
paths = (
{
closed = 1;
nodes = (
"417 -12 OFFCURVE",
"477 2 OFFCURVE",
"493 118 CURVE SMOOTH",
"543 469 LINE SMOOTH",
"545 482 OFFCURVE",
"545 493 OFFCURVE",
"545 503 CURVE SMOOTH",
"545 586 OFFCURVE",
"494 599 OFFCURVE",
"425 599 CURVE SMOOTH",
"348 599 OFFCURVE",
"286 585 OFFCURVE",
"270 469 CURVE SMOOTH",
"248 317 LINE",
"99 317 LINE",
"138 591 LINE",
"126 591 LINE",
"43 0 LINE",
"55 0 LINE",
"98 306 LINE",
"247 306 LINE",
"220 118 LINE SMOOTH",
"218 105 OFFCURVE",
"218 94 OFFCURVE",
"218 84 CURVE SMOOTH",
"218 1 OFFCURVE",
"269 -12 OFFCURVE",
"337 -12 CURVE SMOOTH"
);
},
{
closed = 1;
nodes = (
"279 -2 OFFCURVE",
"229 8 OFFCURVE",
"229 83 CURVE SMOOTH",
"229 93 OFFCURVE",
"230 103 OFFCURVE",
"232 115 CURVE SMOOTH",
"282 472 LINE SMOOTH",
"297 576 OFFCURVE",
"353 589 OFFCURVE",
"422 589 CURVE SMOOTH",
"482 589 OFFCURVE",
"533 579 OFFCURVE",
"533 503 CURVE SMOOTH",
"533 494 OFFCURVE",
"533 484 OFFCURVE",
"531 472 CURVE SMOOTH",
"481 115 LINE SMOOTH",
"466 11 OFFCURVE",
"410 -2 OFFCURVE",
"340 -2 CURVE SMOOTH"
);
}
);
width = 579;
}
);
note = uni042E;
unicode = 042E;
},
{
color = 6;
glyphname = "Ia-cy";
lastChange = "2021-12-09 03:28:43 +0000";
layers = (
{
layerId = "9AA098C0-EDBC-463F-BC21-AFCD07A070D0";
paths = (
{
closed = 1;
nodes = (
"24 0 LINE",
"113 205 LINE SMOOTH",
"137 257 OFFCURVE",
"168 292 OFFCURVE",
"209 292 CURVE SMOOTH",
"328 292 LINE",
"287 0 LINE",
"299 0 LINE",
"381 591 LINE",
"219 591 LINE SMOOTH",
"162 591 OFFCURVE",
"110 566 OFFCURVE",
"100 494 CURVE SMOOTH",
"88 411 LINE SMOOTH",
"87 403 OFFCURVE",
"86 395 OFFCURVE",
"86 388 CURVE SMOOTH",
"86 322 OFFCURVE",
"129 296 OFFCURVE",
"186 296 CURVE",
"154 293 OFFCURVE",
"123 256 OFFCURVE",
"110 224 CURVE SMOOTH",
"10 0 LINE"
);
},
{
closed = 1;
nodes = (
"143 303 OFFCURVE",
"98 326 OFFCURVE",
"98 388 CURVE SMOOTH",
"98 394 OFFCURVE",
"99 401 OFFCURVE",
"100 409 CURVE SMOOTH",
"112 496 LINE SMOOTH",
"120 553 OFFCURVE",
"165 580 OFFCURVE",
"210 580 CURVE SMOOTH",
"368 580 LINE",
"329 303 LINE",
"204 303 LINE SMOOTH"
);
}
);
width = 412;
}
);
note = uni042F;
unicode = 042F;
},
{
color = 6;
glyphname = "Dje-cy";
lastChange = "2021-12-09 03:28:43 +0000";
layers = (
{
layerId = "9AA098C0-EDBC-463F-BC21-AFCD07A070D0";
paths = (
{
closed = 1;
nodes = (
"103 0 LINE",
"151 347 LINE",
"161 382 OFFCURVE",
"198 423 OFFCURVE",
"271 423 CURVE SMOOTH",
"348 423 OFFCURVE",
"365 388 OFFCURVE",
"365 346 CURVE SMOOTH",
"365 330 OFFCURVE",
"362 315 OFFCURVE",
"360 299 CURVE SMOOTH",
"344 179 LINE SMOOTH",
"330 82 OFFCURVE",
"303 11 OFFCURVE",
"210 11 CURVE SMOOTH",
"198 11 LINE",
"197 0 LINE",
"210 0 LINE SMOOTH",
"282 0 OFFCURVE",
"334 27 OFFCURVE",
"356 180 CURVE SMOOTH",
"373 302 LINE SMOOTH",
"375 316 OFFCURVE",
"377 331 OFFCURVE",
"377 345 CURVE SMOOTH",
"377 392 OFFCURVE",
"359 433 OFFCURVE",
"272 433 CURVE SMOOTH",
"209 433 OFFCURVE",
"174 406 OFFCURVE",
"155 375 CURVE",
"184 580 LINE",
"298 580 LINE",
"299 591 LINE",
"60 591 LINE",
"59 580 LINE",
"172 580 LINE",
"91 0 LINE"
);
}
);
width = 414;
}
);
note = uni0402;
unicode = 0402;
},
{
glyphname = "Yat-cy";
lastChange = "2021-12-09 03:28:43 +0000";
layers = (
{
associatedMasterId = "9AA098C0-EDBC-463F-BC21-AFCD07A070D0";
background = {
components = (
{
name = hyphen;
transform = "{1.53882, 0, 0, 0.70397, -30, 313}";
}
);
paths = (
{
closed = 1;
nodes = (
"293 0 LINE SMOOTH",
"369 0 OFFCURVE",
"429 10 OFFCURVE",
"429 161 CURVE SMOOTH",
"429 324 LINE SMOOTH",
"429 423 OFFCURVE",
"367 436 OFFCURVE",
"318 436 CURVE SMOOTH",
"239 436 LINE",
"239 591 LINE",
"83 591 LINE",
"83 0 LINE"
);
},
{
closed = 1;
nodes = (
"239 341 LINE",
"256 341 LINE SMOOTH",
"272 341 OFFCURVE",
"273 330 OFFCURVE",
"273 291 CURVE SMOOTH",
"273 166 LINE SMOOTH",
"273 87 OFFCURVE",
"271 80 OFFCURVE",
"257 80 CURVE SMOOTH",
"239 80 LINE"
);
}
);
};
components = (
{
name = hyphen;
transform = "{1.53882, 0, 0, 0.70397, -30, 313}";
}
);
layerId = "CB6D0AD0-A775-4B9E-AA44-BD07B40E95F7";
name = Black;
paths = (
{
closed = 1;
nodes = (
"293 0 LINE SMOOTH",
"369 0 OFFCURVE",
"429 10 OFFCURVE",
"429 161 CURVE SMOOTH",
"429 324 LINE SMOOTH",
"429 423 OFFCURVE",
"367 436 OFFCURVE",
"318 436 CURVE SMOOTH",
"239 436 LINE",
"239 591 LINE",
"83 591 LINE",
"83 0 LINE"
);
},
{
closed = 1;
nodes = (
"239 341 LINE",
"256 341 LINE SMOOTH",
"272 341 OFFCURVE",
"273 330 OFFCURVE",
"273 291 CURVE SMOOTH",
"273 166 LINE SMOOTH",
"273 87 OFFCURVE",
"271 80 OFFCURVE",
"257 80 CURVE SMOOTH",
"239 80 LINE"
);
}
);
width = 454;
},
{
components = (
{
alignment = -1;
name = hyphen;
transform = "{1.39957, 0, 0.13864, 0.99129, -42, 278}";
}
);
layerId = "9AA098C0-EDBC-463F-BC21-AFCD07A070D0";
paths = (
{
closed = 1;
nodes = (
"193 0 LINE SMOOTH",
"306 0 OFFCURVE",
"322 69 OFFCURVE",
"330 131 CURVE SMOOTH",
"354 304 LINE SMOOTH",
"356 319 OFFCURVE",
"358 334 OFFCURVE",
"358 349 CURVE SMOOTH",
"358 395 OFFCURVE",
"340 435 OFFCURVE",
"254 435 CURVE SMOOTH",
"145 435 LINE",
"166 588 LINE",
"155 588 LINE",
"73 0 LINE"
);
},
{
closed = 1;
nodes = (
"143 425 LINE",
"252 425 LINE SMOOTH",
"330 425 OFFCURVE",
"347 388 OFFCURVE",
"347 344 CURVE SMOOTH",
"347 330 OFFCURVE",
"345 315 OFFCURVE",
"343 301 CURVE SMOOTH",
"320 134 LINE SMOOTH",
"311 75 OFFCURVE",
"297 10 OFFCURVE",
"194 10 CURVE SMOOTH",
"85 10 LINE"
);
}
);
width = 400;
}
);
unicode = 0462;
},
{
color = 4;
glyphname = "Yusbig-cy";
lastChange = "2021-12-09 03:28:43 +0000";
layers = (
{
associatedMasterId = "9AA098C0-EDBC-463F-BC21-AFCD07A070D0";
background = {
paths = (
{
closed = 1;
nodes = (
"197 0 LINE",
"233 230 LINE SMOOTH",
"237 253 OFFCURVE",
"240 276 OFFCURVE",
"244 299 CURVE",
"246 299 LINE",
"247 0 LINE",
"414 0 LINE",
"414 299 LINE",
"416 299 LINE",
"420 274 OFFCURVE",
"423 249 OFFCURVE",
"427 224 CURVE SMOOTH",
"464 0 LINE",
"641 0 LINE",
"586 253 LINE SMOOTH",
"576 300 OFFCURVE",
"546 332 OFFCURVE",
"505 335 CURVE SMOOTH",
"456 339 LINE",
"632 484 LINE",
"632 591 LINE",
"22 591 LINE",
"22 484 LINE",
"199 338 LINE",
"157 336 LINE SMOOTH",
"113 334 OFFCURVE",
"85 298 OFFCURVE",
"75 253 CURVE SMOOTH",
"20 0 LINE"
);
},
{
closed = 1;
nodes = (
"204 484 LINE",
"450 484 LINE",
"327 395 LINE"
);
}
);
};
layerId = "D5BAC71A-8A72-4CB3-B9B8-4C5BCE115656";
name = Black;
paths = (
{
closed = 1;
nodes = (
"197 0 LINE",
"233 230 LINE SMOOTH",
"237 253 OFFCURVE",
"240 276 OFFCURVE",
"244 299 CURVE",
"246 299 LINE",
"247 0 LINE",
"414 0 LINE",
"414 299 LINE",
"416 299 LINE",
"420 274 OFFCURVE",
"423 249 OFFCURVE",
"427 224 CURVE SMOOTH",
"464 0 LINE",
"641 0 LINE",
"586 253 LINE SMOOTH",
"576 300 OFFCURVE",
"546 332 OFFCURVE",
"505 335 CURVE SMOOTH",
"456 339 LINE",
"632 484 LINE",
"632 591 LINE",
"22 591 LINE",
"22 484 LINE",
"199 338 LINE",
"157 336 LINE SMOOTH",
"113 334 OFFCURVE",
"85 298 OFFCURVE",
"75 253 CURVE SMOOTH",
"20 0 LINE"
);
},
{
closed = 1;
nodes = (
"204 484 LINE",
"450 484 LINE",
"327 395 LINE"
);
}
);
width = 661;
},
{
layerId = "9AA098C0-EDBC-463F-BC21-AFCD07A070D0";
paths = (
{
closed = 1;
nodes = (
"19 0 LINE",
"112 223 LINE SMOOTH",
"130 265 OFFCURVE",
"159 315 OFFCURVE",
"206 315 CURVE SMOOTH",
"320 315 LINE",
"276 0 LINE",
"288 0 LINE",
"332 315 LINE",
"447 315 LINE SMOOTH",
"507 314 OFFCURVE",
"518 265 OFFCURVE",
"524 223 CURVE SMOOTH",
"555 0 LINE",
"568 0 LINE",
"534 226 LINE SMOOTH",
"527 274 OFFCURVE",
"515 325 OFFCURVE",
"447 325 CURVE SMOOTH",
"342 325 LINE",
"670 576 LINE",
"672 591 LINE",
"65 591 LINE",
"63 576 LINE",
"313 325 LINE",
"213 325 LINE SMOOTH",
"150 325 OFFCURVE",
"122 274 OFFCURVE",
"101 226 CURVE SMOOTH",
"5 0 LINE"
);
},
{
closed = 1;
nodes = (
"76 581 LINE",
"660 581 LINE",
"328 327 LINE"
);
}
);
width = 641;
}
);
unicode = 046A;
},
{
color = 6;
glyphname = "be-cy";
lastChange = "2021-12-09 03:28:43 +0000";
layers = (
{
layerId = "9AA098C0-EDBC-463F-BC21-AFCD07A070D0";
paths = (
{
closed = 1;
nodes = (
"249 -7 OFFCURVE",
"262 62 OFFCURVE",
"271 124 CURVE SMOOTH",
"298 316 LINE SMOOTH",
"300 330 OFFCURVE",
"302 345 OFFCURVE",
"302 359 CURVE SMOOTH",
"302 406 OFFCURVE",
"284 447 OFFCURVE",
"197 447 CURVE SMOOTH",
"130 447 OFFCURVE",
"98 424 OFFCURVE",
"81 393 CURVE",
"95 495 LINE SMOOTH",
"110 580 OFFCURVE",
"151 598 OFFCURVE",
"212 598 CURVE SMOOTH",
"238 598 LINE SMOOTH",
"273 598 OFFCURVE",
"298 603 OFFCURVE",
"300 618 CURVE SMOOTH",
"301 627 LINE",
"296 619 OFFCURVE",
"279 608 OFFCURVE",
"248 608 CURVE SMOOTH",
"211 608 LINE SMOOTH",
"148 608 OFFCURVE",
"97 592 OFFCURVE",
"84 495 CURVE SMOOTH",
"32 124 LINE SMOOTH",
"30 110 OFFCURVE",
"28 96 OFFCURVE",
"28 82 CURVE SMOOTH",
"28 34 OFFCURVE",
"47 -7 OFFCURVE",
"134 -7 CURVE SMOOTH"
);
},
{
closed = 1;
nodes = (
"56 3 OFFCURVE",
"39 41 OFFCURVE",
"39 85 CURVE SMOOTH",
"39 99 OFFCURVE",
"41 113 OFFCURVE",
"43 127 CURVE SMOOTH",
"72 331 LINE SMOOTH",
"79 384 OFFCURVE",
"103 437 OFFCURVE",
"196 437 CURVE SMOOTH",
"273 437 OFFCURVE",
"290 401 OFFCURVE",
"290 358 CURVE SMOOTH",
"290 343 OFFCURVE",
"288 328 OFFCURVE",
"286 313 CURVE SMOOTH",
"260 127 LINE SMOOTH",
"252 68 OFFCURVE",
"238 3 OFFCURVE",
"135 3 CURVE SMOOTH"
);
}
);
width = 337;
}
);
leftKerningGroup = uni0431;
note = uni0431;
unicode = 0431;
},
{
color = 6;
glyphname = "ve-cy";
lastChange = "2021-12-09 03:28:43 +0000";
layers = (
{
layerId = "9AA098C0-EDBC-463F-BC21-AFCD07A070D0";
paths = (
{
closed = 1;
nodes = (
"165 0 LINE SMOOTH",
"238 0 OFFCURVE",
"289 16 OFFCURVE",
"303 120 CURVE SMOOTH",
"309 161 LINE SMOOTH",
"310 167 OFFCURVE",
"310 173 OFFCURVE",
"310 179 CURVE SMOOTH",
"310 230 OFFCURVE",
"280 264 OFFCURVE",
"230 264 CURVE",
"288 273 OFFCURVE",
"323 300 OFFCURVE",
"331 356 CURVE SMOOTH",
"337 398 LINE SMOOTH",
"338 405 OFFCURVE",
"338 411 OFFCURVE",
"338 417 CURVE SMOOTH",
"338 475 OFFCURVE",
"297 495 OFFCURVE",
"244 495 CURVE SMOOTH",
"99 495 LINE",
"29 0 LINE"
);
},
{
closed = 1;
nodes = (
"77 258 LINE",
"190 258 LINE SMOOTH",
"247 258 OFFCURVE",
"298 244 OFFCURVE",
"298 178 CURVE SMOOTH",
"298 171 OFFCURVE",
"297 164 OFFCURVE",
"296 156 CURVE SMOOTH",
"292 125 LINE SMOOTH",
"278 26 OFFCURVE",
"234 11 OFFCURVE",
"164 11 CURVE SMOOTH",
"43 11 LINE"
);
},
{
closed = 1;
nodes = (
"109 484 LINE",
"242 484 LINE SMOOTH",
"292 484 OFFCURVE",
"326 462 OFFCURVE",
"326 415 CURVE SMOOTH",
"326 410 OFFCURVE",
"326 405 OFFCURVE",
"325 400 CURVE SMOOTH",
"319 357 LINE SMOOTH",
"310 292 OFFCURVE",
"268 269 OFFCURVE",
"191 269 CURVE SMOOTH",
"79 269 LINE"
);
}
);
width = 360;
}
);
leftKerningGroup = uni0431;
note = uni0432;
rightKerningGroup = uni0432;
unicode = 0432;
},
{
color = 6;
glyphname = "ge-cy";
lastChange = "2021-12-09 03:28:43 +0000";
layers = (
{
layerId = "9AA098C0-EDBC-463F-BC21-AFCD07A070D0";
paths = (
{
closed = 1;
nodes = (
"41 0 LINE",
"109 484 LINE",
"310 484 LINE",
"312 495 LINE",
"99 495 LINE",
"29 0 LINE"
);
}
);
width = 280;
}
);
leftKerningGroup = uni0431;
note = uni0433;
unicode = 0433;
},
{
color = 6;
glyphname = "de-cy";
lastChange = "2021-12-09 03:29:48 +0000";
layers = (
{
layerId = "9AA098C0-EDBC-463F-BC21-AFCD07A070D0";
paths = (
{
closed = 1;
nodes = (
"-6 -99 LINE",
"8 0 LINE",
"390 0 LINE",
"376 -99 LINE",
"387 -99 LINE",
"403 11 LINE",
"330 11 LINE",
"398 495 LINE",
"198 495 LINE",
"106 92 LINE SMOOTH",
"95 40 OFFCURVE",
"77 13 OFFCURVE",
"54 11 CURVE",
"-1 11 LINE",
"-17 -99 LINE"
);
},
{
closed = 1;
nodes = (
"106 32 OFFCURVE",
"116 80 OFFCURVE",
"118 92 CURVE SMOOTH",
"208 484 LINE",
"384 484 LINE",
"318 11 LINE",
"79 11 LINE"
);
}
);
width = 453;
}
);
note = uni0434;
rightKerningGroup = uni0432;
unicode = 0434;
},
{
color = 6;
glyphname = "zhe-cy";
lastChange = "2021-12-09 03:28:43 +0000";
layers = (
{
layerId = "9AA098C0-EDBC-463F-BC21-AFCD07A070D0";
paths = (
{
closed = 1;
nodes = (
"3 0 LINE",
"67 95 OFFCURVE",
"126 162 OFFCURVE",
"189 257 CURVE",
"224 257 LINE",
"188 0 LINE",
"199 0 LINE",
"235 257 LINE",
"270 257 LINE",
"307 162 OFFCURVE",
"348 95 OFFCURVE",
"384 0 CURVE",
"397 0 LINE",
"282 261 LINE",
"465 495 LINE",
"450 495 LINE",
"273 267 LINE",
"237 267 LINE",
"269 495 LINE",
"258 495 LINE",
"226 267 LINE",
"190 267 LINE",
"77 495 LINE",
"62 495 LINE",
"179 261 LINE",
"-10 0 LINE"
);
}
);
width = 457;
}
);
leftKerningGroup = uni0431;
note = uni0436;
unicode = 0436;
},
{
color = 6;
glyphname = "ze-cy";
lastChange = "2021-12-09 03:28:43 +0000";
layers = (
{
layerId = "9AA098C0-EDBC-463F-BC21-AFCD07A070D0";
paths = (
{
closed = 1;
nodes = (
"268 -8 OFFCURVE",
"325 50 OFFCURVE",
"337 139 CURVE SMOOTH",
"339 149 OFFCURVE",
"339 159 OFFCURVE",
"339 168 CURVE SMOOTH",
"339 220 OFFCURVE",
"314 255 OFFCURVE",
"248 264 CURVE",
"321 279 OFFCURVE",
"357 333 OFFCURVE",
"357 400 CURVE SMOOTH",
"357 462 OFFCURVE",
"320 499 OFFCURVE",
"246 499 CURVE SMOOTH",
"162 499 OFFCURVE",
"114 451 OFFCURVE",
"103 375 CURVE SMOOTH",
"101 363 LINE",
"113 363 LINE",
"115 374 LINE SMOOTH",
"124 442 OFFCURVE",
"166 489 OFFCURVE",
"245 489 CURVE SMOOTH",
"315 489 OFFCURVE",
"345 453 OFFCURVE",
"345 397 CURVE SMOOTH",
"345 390 OFFCURVE",
"344 382 OFFCURVE",
"343 374 CURVE SMOOTH",
"335 318 OFFCURVE",
"286 269 OFFCURVE",
"214 269 CURVE SMOOTH",
"171 269 LINE",
"170 257 LINE",
"213 257 LINE SMOOTH",
"286 257 OFFCURVE",
"327 230 OFFCURVE",
"327 165 CURVE SMOOTH",
"327 157 OFFCURVE",
"326 148 OFFCURVE",
"325 138 CURVE SMOOTH",
"313 50 OFFCURVE",
"257 2 OFFCURVE",
"177 2 CURVE SMOOTH",
"142 3 OFFCURVE",
"115 12 OFFCURVE",
"96 27 CURVE SMOOTH",
"75 44 OFFCURVE",
"65 71 OFFCURVE",
"65 107 CURVE SMOOTH",
"65 116 OFFCURVE",
"66 126 OFFCURVE",
"67 137 CURVE SMOOTH",
"70 158 LINE",
"58 158 LINE",
"55 137 LINE SMOOTH",
"53 126 OFFCURVE",
"53 115 OFFCURVE",
"53 104 CURVE SMOOTH",
"53 70 OFFCURVE",
"62 40 OFFCURVE",
"87 19 CURVE SMOOTH",
"108 3 OFFCURVE",
"135 -8 OFFCURVE",
"176 -8 CURVE SMOOTH"
);
}
);
width = 424;
}
);
note = uni0437;
unicode = 0437;
},
{
color = 6;
glyphname = "ii-cy";
lastChange = "2021-12-09 03:28:43 +0000";
layers = (
{
layerId = "9AA098C0-EDBC-463F-BC21-AFCD07A070D0";
paths = (
{
closed = 1;
nodes = (
"42 0 LINE",
"317 481 LINE",
"249 0 LINE",
"259 0 LINE",
"329 495 LINE",
"315 495 LINE",
"44 23 LINE",
"110 495 LINE",
"99 495 LINE",
"29 0 LINE"
);
}
);
width = 358;
}
);
leftKerningGroup = uni0431;
note = uni0438;
unicode = 0438;
},
{
color = 6;
glyphname = "iishort-cy";
lastChange = "2021-12-09 03:28:43 +0000";
layers = (
{
layerId = "9AA098C0-EDBC-463F-BC21-AFCD07A070D0";
paths = (
{
closed = 1;
nodes = (
"42 0 LINE",
"317 481 LINE",
"249 0 LINE",
"259 0 LINE",
"329 495 LINE",
"315 495 LINE",
"44 23 LINE",
"110 495 LINE",
"99 495 LINE",
"29 0 LINE"
);
},
{
closed = 1;
nodes = (
"290 591 OFFCURVE",
"313 635 OFFCURVE",
"324 668 CURVE",
"313 668 LINE",
"299 620 OFFCURVE",
"265 599 OFFCURVE",
"225 599 CURVE SMOOTH",
"185 599 OFFCURVE",
"157 620 OFFCURVE",
"157 668 CURVE",
"146 668 LINE",
"147 635 OFFCURVE",
"160 591 OFFCURVE",
"224 591 CURVE SMOOTH"
);
}
);
width = 358;
}
);
leftKerningGroup = uni0431;
note = uni0439;
unicode = 0439;
},
{
color = 6;
glyphname = "ka-cy";
lastChange = "2021-12-09 03:28:43 +0000";
layers = (
{
layerId = "9AA098C0-EDBC-463F-BC21-AFCD07A070D0";
paths = (
{
closed = 1;
nodes = (
"40 0 LINE",
"69 204 LINE",
"72 213 OFFCURVE",
"101 261 OFFCURVE",
"130 300 CURVE",
"236 0 LINE",
"248 0 LINE",
"138 311 LINE",
"190 378 OFFCURVE",
"258 447 OFFCURVE",
"322 468 CURVE",
"323 475 LINE",
"269 462 OFFCURVE",
"157 376 OFFCURVE",
"72 224 CURVE",
"110 496 LINE",
"99 496 LINE",
"29 0 LINE"
);
}
);
width = 310;
}
);
leftKerningGroup = uni0431;
note = uni043A;
unicode = 043A;
},
{
color = 6;
glyphname = "el-cy";
lastChange = "2021-12-09 03:28:43 +0000";
layers = (
{
layerId = "9AA098C0-EDBC-463F-BC21-AFCD07A070D0";
paths = (
{
closed = 1;
nodes = (
"36 0 OFFCURVE",
"53 77 OFFCURVE",
"55 92 CURVE",
"145 484 LINE",
"321 484 LINE",
"254 1 LINE",
"266 1 LINE",
"335 495 LINE",
"135 495 LINE",
"43 92 LINE SMOOTH",
"31 36 OFFCURVE",
"14 11 OFFCURVE",
"-13 11 CURVE",
"-15 0 LINE"
);
}
);
width = 365;
}
);
leftKerningGroup = uni043B;
note = uni043B;
unicode = 043B;
},
{
color = 6;
glyphname = "em-cy";
lastChange = "2021-12-09 03:28:43 +0000";
layers = (
{
layerId = "9AA098C0-EDBC-463F-BC21-AFCD07A070D0";
paths = (
{
closed = 1;
nodes = (
"26 0 LINE",
"89 445 LINE",
"177 0 LINE",
"191 0 LINE",
"404 445 LINE",
"341 0 LINE",
"353 0 LINE",
"423 495 LINE",
"415 495 LINE",
"186 15 LINE",
"93 495 LINE",
"84 495 LINE",
"14 0 LINE"
);
}
);
width = 437;
}
);
leftKerningGroup = uni0431;
note = uni043C;
unicode = 043C;
},
{
color = 6;
glyphname = "en-cy";
lastChange = "2021-12-09 03:28:43 +0000";
layers = (
{
layerId = "9AA098C0-EDBC-463F-BC21-AFCD07A070D0";
paths = (
{
closed = 1;
nodes = (
"26 0 LINE",
"62 257 LINE",
"275 257 LINE",
"239 0 LINE",
"251 0 LINE",
"321 495 LINE",
"309 495 LINE",
"277 268 LINE",
"64 268 LINE",
"96 495 LINE",
"84 495 LINE",
"14 0 LINE"
);
}
);
width = 335;
}
);
leftKerningGroup = uni0431;
note = uni043D;
unicode = 043D;
},
{
color = 6;
glyphname = "pe-cy";
lastChange = "2021-12-09 03:28:43 +0000";
layers = (
{
layerId = "9AA098C0-EDBC-463F-BC21-AFCD07A070D0";
paths = (
{
closed = 1;
nodes = (
"26 0 LINE",
"94 484 LINE",
"311 484 LINE",
"243 0 LINE",
"255 0 LINE",
"325 495 LINE",
"84 495 LINE",
"14 0 LINE"
);
}
);
width = 339;
}
);
leftKerningGroup = uni0431;
note = uni043F;
unicode = 043F;
},
{
color = 6;
glyphname = "te-cy";
lastChange = "2021-12-09 03:28:43 +0000";
layers = (
{
layerId = "9AA098C0-EDBC-463F-BC21-AFCD07A070D0";
paths = (
{
closed = 1;
nodes = (
"100 0 LINE",
"168 484 LINE",
"282 484 LINE",
"284 495 LINE",
"45 495 LINE",
"43 484 LINE",
"156 484 LINE",
"88 0 LINE"
);
}
);
width = 259;
}
);
leftKerningGroup = uni0431;
note = uni0442;
unicode = 0442;
},
{
color = 6;
glyphname = "ushort-cy";
lastChange = "2021-12-09 03:28:43 +0000";
layers = (
{
layerId = "9AA098C0-EDBC-463F-BC21-AFCD07A070D0";
paths = (
{
closed = 1;
nodes = (
"29 -115 OFFCURVE",
"62 -69 OFFCURVE",
"89 0 CURVE SMOOTH",
"280 495 LINE",
"268 495 LINE",
"83 14 LINE",
"34 495 LINE",
"21 495 LINE",
"74 -9 LINE",
"50 -82 OFFCURVE",
"1 -106 OFFCURVE",
"-30 -106 CURVE SMOOTH",
"-53 -106 OFFCURVE",
"-75 -101 OFFCURVE",
"-78 -100 CURVE",
"-79 -109 LINE",
"-76 -110 OFFCURVE",
"-51 -115 OFFCURVE",
"-31 -115 CURVE SMOOTH"
);
},
{
closed = 1;
nodes = (
"238 553 OFFCURVE",
"261 597 OFFCURVE",
"272 630 CURVE",
"261 630 LINE",
"247 582 OFFCURVE",
"213 561 OFFCURVE",
"173 561 CURVE SMOOTH",
"133 561 OFFCURVE",
"105 582 OFFCURVE",
"105 630 CURVE",
"94 630 LINE",
"95 597 OFFCURVE",
"108 553 OFFCURVE",
"172 553 CURVE SMOOTH"
);
}
);
width = 271;
}
);
leftKerningGroup = uni0431;
note = uni045E;
unicode = 045E;
},
{
color = 6;
glyphname = "ef-cy";
lastChange = "2021-12-09 03:28:43 +0000";
layers = (
{
layerId = "9AA098C0-EDBC-463F-BC21-AFCD07A070D0";
paths = (
{
closed = 1;
nodes = (
"238 -116 LINE",
"260 48 LINE",
"269 16 OFFCURVE",
"295 -7 OFFCURVE",
"362 -7 CURVE SMOOTH",
"477 -7 OFFCURVE",
"490 62 OFFCURVE",
"499 124 CURVE SMOOTH",
"526 316 LINE SMOOTH",
"528 330 OFFCURVE",
"530 345 OFFCURVE",
"530 360 CURVE SMOOTH",
"530 406 OFFCURVE",
"511 447 OFFCURVE",
"425 447 CURVE SMOOTH",
"358 447 OFFCURVE",
"326 424 OFFCURVE",
"309 393 CURVE",
"336 591 LINE",
"325 591 LINE",
"297 391 LINE",
"287 423 OFFCURVE",
"263 447 OFFCURVE",
"196 447 CURVE SMOOTH",
"81 447 OFFCURVE",
"68 377 OFFCURVE",
"59 316 CURVE SMOOTH",
"32 124 LINE SMOOTH",
"30 109 OFFCURVE",
"28 94 OFFCURVE",
"28 80 CURVE SMOOTH",
"28 33 OFFCURVE",
"47 -7 OFFCURVE",
"133 -7 CURVE SMOOTH",
"200 -7 OFFCURVE",
"232 16 OFFCURVE",
"249 47 CURVE",
"227 -116 LINE"
);
},
{
closed = 1;
nodes = (
"57 3 OFFCURVE",
"40 39 OFFCURVE",
"40 82 CURVE SMOOTH",
"40 97 OFFCURVE",
"42 112 OFFCURVE",
"44 127 CURVE SMOOTH",
"70 313 LINE SMOOTH",
"78 372 OFFCURVE",
"92 437 OFFCURVE",
"195 437 CURVE SMOOTH",
"274 437 OFFCURVE",
"291 399 OFFCURVE",
"291 355 CURVE SMOOTH",
"291 341 OFFCURVE",
"289 327 OFFCURVE",
"287 313 CURVE SMOOTH",
"258 109 LINE SMOOTH",
"251 56 OFFCURVE",
"227 3 OFFCURVE",
"134 3 CURVE SMOOTH"
);
},
{
closed = 1;
nodes = (
"286 3 OFFCURVE",
"267 39 OFFCURVE",
"267 82 CURVE SMOOTH",
"267 92 OFFCURVE",
"268 103 OFFCURVE",
"270 113 CURVE SMOOTH",
"300 331 LINE SMOOTH",
"307 384 OFFCURVE",
"331 437 OFFCURVE",
"424 437 CURVE SMOOTH",
"502 437 OFFCURVE",
"519 400 OFFCURVE",
"519 356 CURVE SMOOTH",
"519 342 OFFCURVE",
"517 327 OFFCURVE",
"515 313 CURVE SMOOTH",
"489 127 LINE SMOOTH",
"480 68 OFFCURVE",
"466 3 OFFCURVE",
"363 3 CURVE SMOOTH"
);
}
);
width = 565;
}
);
note = uni0444;
unicode = 0444;
},
{
color = 6;
glyphname = "che-cy";
lastChange = "2021-12-09 03:28:43 +0000";
layers = (
{
layerId = "9AA098C0-EDBC-463F-BC21-AFCD07A070D0";
paths = (
{
closed = 1;
nodes = (
"201 0 LINE",
"271 495 LINE",
"259 495 LINE",
"223 239 LINE",
"213 204 OFFCURVE",
"181 163 OFFCURVE",
"120 163 CURVE SMOOTH",
"58 163 OFFCURVE",
"43 197 OFFCURVE",
"43 239 CURVE SMOOTH",
"43 254 OFFCURVE",
"46 271 OFFCURVE",
"48 287 CURVE SMOOTH",
"77 495 LINE",
"65 495 LINE",
"35 284 LINE SMOOTH",
"33 269 OFFCURVE",
"31 253 OFFCURVE",
"31 238 CURVE SMOOTH",
"31 192 OFFCURVE",
"48 153 OFFCURVE",
"119 153 CURVE SMOOTH",
"171 153 OFFCURVE",
"203 180 OFFCURVE",
"219 211 CURVE",
"189 0 LINE"
);
}
);
width = 300;
}
);
note = uni0447;
unicode = 0447;
},
{
color = 6;
glyphname = "tse-cy";
lastChange = "2021-12-09 03:28:43 +0000";
layers = (
{
layerId = "9AA098C0-EDBC-463F-BC21-AFCD07A070D0";
paths = (
{
closed = 1;
nodes = (
"285 -65 LINE",
"295 11 LINE",
"271 11 LINE",
"339 495 LINE",
"327 495 LINE",
"259 11 LINE",
"43 11 LINE",
"111 495 LINE",
"99 495 LINE",
"30 0 LINE",
"283 0 LINE",
"274 -65 LINE"
);
}
);
width = 373;
}
);
leftKerningGroup = uni0431;
note = uni0446;
rightKerningGroup = uni0432;
unicode = 0446;
},
{
color = 6;
glyphname = "sha-cy";
lastChange = "2021-12-09 03:28:43 +0000";
layers = (
{
layerId = "9AA098C0-EDBC-463F-BC21-AFCD07A070D0";
paths = (
{
closed = 1;
nodes = (
"433 0 LINE",
"503 495 LINE",
"491 495 LINE",
"423 11 LINE",
"239 11 LINE",
"307 495 LINE",
"295 495 LINE",
"227 11 LINE",
"43 11 LINE",
"111 495 LINE",
"99 495 LINE",
"29 0 LINE"
);
}
);
width = 532;
}
);
leftKerningGroup = uni0431;
note = uni0448;
unicode = 0448;
},
{
color = 6;
glyphname = "shcha-cy";
lastChange = "2021-12-09 03:28:43 +0000";
layers = (
{
layerId = "9AA098C0-EDBC-463F-BC21-AFCD07A070D0";
paths = (
{
closed = 1;
nodes = (
"449 -65 LINE",
"459 11 LINE",
"435 11 LINE",
"503 495 LINE",
"491 495 LINE",
"423 11 LINE",
"239 11 LINE",
"307 495 LINE",
"295 495 LINE",
"227 11 LINE",
"43 11 LINE",
"111 495 LINE",
"99 495 LINE",
"30 0 LINE",
"447 0 LINE",
"438 -65 LINE"
);
}
);
width = 557;
}
);
leftKerningGroup = uni0431;
note = uni0449;
rightKerningGroup = uni0432;
unicode = 0449;
},
{
color = 6;
glyphname = "dzhe-cy";
lastChange = "2021-12-09 03:28:43 +0000";
layers = (
{
layerId = "9AA098C0-EDBC-463F-BC21-AFCD07A070D0";
paths = (
{
closed = 1;
nodes = (
"140 -113 LINE",
"156 0 LINE",
"269 0 LINE",
"339 495 LINE",
"327 495 LINE",
"259 11 LINE",
"43 11 LINE",
"111 495 LINE",
"99 495 LINE",
"29 0 LINE",
"145 0 LINE",
"129 -113 LINE"
);
}
);
width = 368;
}
);
leftKerningGroup = uni0431;
note = uni045F;
unicode = 045F;
},
{
color = 6;
glyphname = "softsign-cy";
lastChange = "2021-12-09 03:28:43 +0000";
layers = (
{
layerId = "9AA098C0-EDBC-463F-BC21-AFCD07A070D0";
paths = (
{
closed = 1;
nodes = (
"150 0 LINE SMOOTH",
"263 0 OFFCURVE",
"278 69 OFFCURVE",
"287 131 CURVE SMOOTH",
"298 208 LINE SMOOTH",
"300 222 OFFCURVE",
"302 237 OFFCURVE",
"302 251 CURVE SMOOTH",
"302 298 OFFCURVE",
"284 339 OFFCURVE",
"197 339 CURVE SMOOTH",
"88 339 LINE",
"109 492 LINE",
"98 492 LINE",
"30 0 LINE"
);
},
{
closed = 1;
nodes = (
"87 329 LINE",
"196 329 LINE SMOOTH",
"273 329 OFFCURVE",
"290 293 OFFCURVE",
"290 250 CURVE SMOOTH",
"290 235 OFFCURVE",
"288 220 OFFCURVE",
"286 205 CURVE SMOOTH",
"276 134 LINE SMOOTH",
"268 75 OFFCURVE",
"254 10 OFFCURVE",
"151 10 CURVE SMOOTH",
"42 10 LINE"
);
}
);
width = 353;
}
);
leftKerningGroup = uni0431;
note = uni044C;
unicode = 044C;
},
{
color = 6;
glyphname = "hardsign-cy";
lastChange = "2021-12-09 03:28:43 +0000";
layers = (
{
layerId = "9AA098C0-EDBC-463F-BC21-AFCD07A070D0";
paths = (
{
closed = 1;
nodes = (
"154 0 LINE SMOOTH",
"267 0 OFFCURVE",
"283 69 OFFCURVE",
"292 131 CURVE SMOOTH",
"302 208 LINE SMOOTH",
"304 223 OFFCURVE",
"306 238 OFFCURVE",
"306 253 CURVE SMOOTH",
"306 299 OFFCURVE",
"288 339 OFFCURVE",
"202 339 CURVE SMOOTH",
"93 339 LINE",
"115 495 LINE",
"38 495 LINE",
"36 484 LINE",
"102 484 LINE",
"34 0 LINE"
);
},
{
closed = 1;
nodes = (
"91 329 LINE",
"200 329 LINE SMOOTH",
"278 329 OFFCURVE",
"295 292 OFFCURVE",
"295 248 CURVE SMOOTH",
"295 234 OFFCURVE",
"293 219 OFFCURVE",
"291 205 CURVE SMOOTH",
"281 134 LINE SMOOTH",
"273 75 OFFCURVE",
"259 10 OFFCURVE",
"156 10 CURVE SMOOTH",
"47 10 LINE"
);
}
);
width = 352;
}
);
leftKerningGroup = uni0431;
note = uni044A;
unicode = 044A;
},
{
color = 6;
glyphname = "lje-cy";
lastChange = "2021-12-09 03:28:43 +0000";
layers = (
{
layerId = "9AA098C0-EDBC-463F-BC21-AFCD07A070D0";
paths = (
{
closed = 1;
nodes = (
"36 0 OFFCURVE",
"53 77 OFFCURVE",
"55 92 CURVE",
"145 484 LINE",
"301 484 LINE",
"233 0 LINE",
"353 0 LINE SMOOTH",
"466 0 OFFCURVE",
"482 69 OFFCURVE",
"491 131 CURVE SMOOTH",
"501 208 LINE SMOOTH",
"503 223 OFFCURVE",
"505 238 OFFCURVE",
"505 253 CURVE SMOOTH",
"505 299 OFFCURVE",
"487 339 OFFCURVE",
"401 339 CURVE SMOOTH",
"293 339 LINE",
"315 495 LINE",
"135 495 LINE",
"43 92 LINE SMOOTH",
"31 36 OFFCURVE",
"14 11 OFFCURVE",
"-13 11 CURVE",
"-15 0 LINE"
);
},
{
closed = 1;
nodes = (
"291 329 LINE",
"399 329 LINE SMOOTH",
"477 329 OFFCURVE",
"494 292 OFFCURVE",
"494 248 CURVE SMOOTH",
"494 234 OFFCURVE",
"492 219 OFFCURVE",
"490 205 CURVE SMOOTH",
"480 134 LINE SMOOTH",
"472 75 OFFCURVE",
"458 10 OFFCURVE",
"355 10 CURVE SMOOTH",
"247 10 LINE"
);
}
);
width = 551;
}
);
leftKerningGroup = uni043B;
note = uni0459;
unicode = 0459;
},
{
color = 6;
glyphname = "nje-cy";
lastChange = "2021-12-09 03:28:43 +0000";
layers = (
{
layerId = "9AA098C0-EDBC-463F-BC21-AFCD07A070D0";
paths = (
{
closed = 1;
nodes = (
"25 0 LINE",
"60 246 LINE",
"147 246 LINE",
"112 0 LINE",
"232 0 LINE SMOOTH",
"345 0 OFFCURVE",
"361 69 OFFCURVE",
"370 131 CURVE SMOOTH",
"380 208 LINE SMOOTH",
"382 223 OFFCURVE",
"384 238 OFFCURVE",
"384 253 CURVE SMOOTH",
"384 299 OFFCURVE",
"366 339 OFFCURVE",
"280 339 CURVE SMOOTH",
"171 339 LINE",
"192 492 LINE",
"181 492 LINE",
"148 255 LINE",
"61 255 LINE",
"95 495 LINE",
"84 495 LINE",
"14 0 LINE"
);
},
{
closed = 1;
nodes = (
"169 329 LINE",
"278 329 LINE SMOOTH",
"356 329 OFFCURVE",
"373 292 OFFCURVE",
"373 248 CURVE SMOOTH",
"373 234 OFFCURVE",
"371 219 OFFCURVE",
"369 205 CURVE SMOOTH",
"359 134 LINE SMOOTH",
"351 75 OFFCURVE",
"337 10 OFFCURVE",
"234 10 CURVE SMOOTH",
"125 10 LINE"
);
}
);
width = 430;
}
);
leftKerningGroup = uni0431;
note = uni045A;
unicode = 045A;
},
{
color = 6;
glyphname = "e-cy";
lastChange = "2021-12-09 03:28:43 +0000";
layers = (
{
layerId = "9AA098C0-EDBC-463F-BC21-AFCD07A070D0";
paths = (
{
closed = 1;
nodes = (
"246 -7 OFFCURVE",
"262 62 OFFCURVE",
"271 124 CURVE SMOOTH",
"277 167 LINE",
"266 167 LINE",
"260 127 LINE SMOOTH",
"252 68 OFFCURVE",
"238 3 OFFCURVE",
"135 3 CURVE SMOOTH",
"56 3 OFFCURVE",
"39 40 OFFCURVE",
"39 84 CURVE SMOOTH",
"39 98 OFFCURVE",
"41 113 OFFCURVE",
"43 127 CURVE SMOOTH",
"60 246 LINE",
"221 246 LINE",
"222 255 LINE",
"61 255 LINE",
"77 369 LINE SMOOTH",
"85 428 OFFCURVE",
"99 493 OFFCURVE",
"203 493 CURVE SMOOTH",
"281 493 OFFCURVE",
"298 456 OFFCURVE",
"298 412 CURVE SMOOTH",
"298 398 OFFCURVE",
"296 383 OFFCURVE",
"294 369 CURVE SMOOTH",
"288 328 LINE",
"299 328 LINE",
"305 372 LINE SMOOTH",
"307 387 OFFCURVE",
"309 402 OFFCURVE",
"309 417 CURVE SMOOTH",
"309 463 OFFCURVE",
"291 503 OFFCURVE",
"205 503 CURVE SMOOTH",
"90 503 OFFCURVE",
"75 433 OFFCURVE",
"66 372 CURVE SMOOTH",
"32 124 LINE SMOOTH",
"30 109 OFFCURVE",
"28 93 OFFCURVE",
"28 78 CURVE SMOOTH",
"28 32 OFFCURVE",
"46 -7 OFFCURVE",
"133 -7 CURVE SMOOTH"
);
}
);
width = 337;
}
);
leftKerningGroup = uni0431;
note = uni0454;
unicode = 0454;
},
{
color = 6;
glyphname = "ereversed-cy";
lastChange = "2021-12-09 03:28:43 +0000";
layers = (
{
layerId = "9AA098C0-EDBC-463F-BC21-AFCD07A070D0";
paths = (
{
closed = 1;
nodes = (
"247 -7 OFFCURVE",
"262 62 OFFCURVE",
"271 124 CURVE SMOOTH",
"305 372 LINE SMOOTH",
"307 387 OFFCURVE",
"309 403 OFFCURVE",
"309 418 CURVE SMOOTH",
"309 463 OFFCURVE",
"291 503 OFFCURVE",
"204 503 CURVE SMOOTH",
"91 503 OFFCURVE",
"75 433 OFFCURVE",
"66 372 CURVE SMOOTH",
"60 328 LINE",
"71 328 LINE",
"77 369 LINE SMOOTH",
"85 428 OFFCURVE",
"99 493 OFFCURVE",
"202 493 CURVE SMOOTH",
"281 493 OFFCURVE",
"298 456 OFFCURVE",
"298 412 CURVE SMOOTH",
"298 398 OFFCURVE",
"296 383 OFFCURVE",
"294 369 CURVE SMOOTH",
"278 255 LINE",
"135 255 LINE",
"134 246 LINE",
"277 246 LINE",
"260 127 LINE SMOOTH",
"252 68 OFFCURVE",
"238 3 OFFCURVE",
"134 3 CURVE SMOOTH",
"56 3 OFFCURVE",
"39 40 OFFCURVE",
"39 84 CURVE SMOOTH",
"39 98 OFFCURVE",
"41 113 OFFCURVE",
"43 127 CURVE SMOOTH",
"49 167 LINE",
"38 167 LINE",
"32 124 LINE SMOOTH",
"30 109 OFFCURVE",
"28 94 OFFCURVE",
"28 79 CURVE SMOOTH",
"28 33 OFFCURVE",
"46 -7 OFFCURVE",
"132 -7 CURVE SMOOTH"
);
}
);
width = 337;
}
);
note = uni044D;
unicode = 044D;
},
{
color = 6;
glyphname = "tshe-cy";
lastChange = "2021-12-09 03:28:43 +0000";
layers = (
{
layerId = "9AA098C0-EDBC-463F-BC21-AFCD07A070D0";
paths = (
{
closed = 1;
nodes = (
"62 0 LINE",
"112 359 LINE",
"122 394 OFFCURVE",
"159 435 OFFCURVE",
"232 435 CURVE SMOOTH",
"309 435 OFFCURVE",
"326 400 OFFCURVE",
"326 358 CURVE SMOOTH",
"326 342 OFFCURVE",
"323 327 OFFCURVE",
"321 311 CURVE SMOOTH",
"278 0 LINE",
"290 0 LINE",
"334 314 LINE SMOOTH",
"336 328 OFFCURVE",
"338 343 OFFCURVE",
"338 357 CURVE SMOOTH",
"338 404 OFFCURVE",
"320 445 OFFCURVE",
"233 445 CURVE SMOOTH",
"170 445 OFFCURVE",
"135 418 OFFCURVE",
"116 387 CURVE",
"137 537 LINE",
"253 537 LINE",
"255 548 LINE",
"139 548 LINE",
"150 630 LINE",
"138 630 LINE",
"127 548 LINE",
"82 548 LINE",
"80 537 LINE",
"125 537 LINE",
"50 0 LINE"
);
}
);
width = 384;
}
);
leftKerningGroup = uni0431;
note = uni045B;
unicode = 045B;
},
{
color = 6;
glyphname = "iu-cy";
lastChange = "2021-12-09 03:28:43 +0000";
layers = (
{
layerId = "9AA098C0-EDBC-463F-BC21-AFCD07A070D0";
paths = (
{
closed = 1;
nodes = (
"435 -7 OFFCURVE",
"451 62 OFFCURVE",
"460 124 CURVE SMOOTH",
"494 372 LINE SMOOTH",
"496 387 OFFCURVE",
"498 402 OFFCURVE",
"498 417 CURVE SMOOTH",
"498 463 OFFCURVE",
"480 503 OFFCURVE",
"394 503 CURVE SMOOTH",
"279 503 OFFCURVE",
"264 433 OFFCURVE",
"255 372 CURVE SMOOTH",
"239 255 LINE",
"61 255 LINE",
"95 495 LINE",
"84 495 LINE",
"14 0 LINE",
"25 0 LINE",
"60 246 LINE",
"238 246 LINE",
"221 124 LINE SMOOTH",
"219 109 OFFCURVE",
"217 93 OFFCURVE",
"217 78 CURVE SMOOTH",
"217 32 OFFCURVE",
"235 -7 OFFCURVE",
"322 -7 CURVE SMOOTH"
);
},
{
closed = 1;
nodes = (
"245 3 OFFCURVE",
"228 40 OFFCURVE",
"228 84 CURVE SMOOTH",
"228 98 OFFCURVE",
"230 113 OFFCURVE",
"232 127 CURVE SMOOTH",
"266 369 LINE SMOOTH",
"274 428 OFFCURVE",
"288 493 OFFCURVE",
"392 493 CURVE SMOOTH",
"470 493 OFFCURVE",
"487 456 OFFCURVE",
"487 412 CURVE SMOOTH",
"487 398 OFFCURVE",
"485 383 OFFCURVE",
"483 369 CURVE SMOOTH",
"449 127 LINE SMOOTH",
"441 68 OFFCURVE",
"427 3 OFFCURVE",
"324 3 CURVE SMOOTH"
);
}
);
width = 526;
}
);
leftKerningGroup = uni0431;
note = uni044E;
unicode = 044E;
},
{
color = 6;
glyphname = "ia-cy";
lastChange = "2021-12-09 03:28:43 +0000";
layers = (
{
layerId = "9AA098C0-EDBC-463F-BC21-AFCD07A070D0";
paths = (
{
closed = 1;
nodes = (
"28 0 LINE",
"111 156 LINE SMOOTH",
"138 207 OFFCURVE",
"165 243 OFFCURVE",
"206 243 CURVE SMOOTH",
"293 243 LINE",
"259 0 LINE",
"271 0 LINE",
"341 495 LINE",
"211 495 LINE SMOOTH",
"154 495 OFFCURVE",
"101 470 OFFCURVE",
"91 398 CURVE SMOOTH",
"86 362 LINE SMOOTH",
"85 353 OFFCURVE",
"84 345 OFFCURVE",
"84 337 CURVE SMOOTH",
"84 273 OFFCURVE",
"128 247 OFFCURVE",
"184 247 CURVE",
"153 244 OFFCURVE",
"122 206 OFFCURVE",
"108 175 CURVE",
"14 0 LINE"
);
},
{
closed = 1;
nodes = (
"141 254 OFFCURVE",
"96 277 OFFCURVE",
"96 339 CURVE SMOOTH",
"96 345 OFFCURVE",
"97 352 OFFCURVE",
"98 360 CURVE SMOOTH",
"103 400 LINE SMOOTH",
"111 457 OFFCURVE",
"156 484 OFFCURVE",
"201 484 CURVE SMOOTH",
"327 484 LINE",
"295 254 LINE",
"202 254 LINE SMOOTH"
);
}
);
width = 356;
}
);
leftKerningGroup = uni043B;
note = uni044F;
unicode = 044F;
},
{
color = 6;
glyphname = "dje-cy";
lastChange = "2021-12-09 03:28:43 +0000";
layers = (
{
layerId = "9AA098C0-EDBC-463F-BC21-AFCD07A070D0";
paths = (
{
closed = 1;
nodes = (
"215 -94 OFFCURVE",
"268 -86 OFFCURVE",
"289 61 CURVE SMOOTH",
"323 302 LINE SMOOTH",
"325 316 OFFCURVE",
"327 331 OFFCURVE",
"327 345 CURVE SMOOTH",
"327 392 OFFCURVE",
"309 433 OFFCURVE",
"222 433 CURVE SMOOTH",
"159 433 OFFCURVE",
"124 406 OFFCURVE",
"105 375 CURVE",
"128 537 LINE",
"231 537 LINE",
"232 548 LINE",
"129 548 LINE",
"141 630 LINE",
"129 630 LINE",
"117 548 LINE",
"59 548 LINE",
"58 537 LINE",
"116 537 LINE",
"41 0 LINE",
"53 0 LINE",
"101 347 LINE",
"111 382 OFFCURVE",
"148 423 OFFCURVE",
"221 423 CURVE SMOOTH",
"298 423 OFFCURVE",
"315 388 OFFCURVE",
"315 346 CURVE SMOOTH",
"315 330 OFFCURVE",
"312 315 OFFCURVE",
"310 299 CURVE SMOOTH",
"278 66 LINE SMOOTH",
"265 -26 OFFCURVE",
"245 -84 OFFCURVE",
"168 -84 CURVE SMOOTH",
"145 -84 OFFCURVE",
"130 -78 OFFCURVE",
"121 -73 CURVE",
"115 -82 LINE",
"125 -89 OFFCURVE",
"142 -94 OFFCURVE",
"165 -94 CURVE SMOOTH"
);
}
);
width = 367;
}
);
leftKerningGroup = uni0431;
note = uni0452;
unicode = 0452;
},
{
glyphname = "yat-cy";
lastChange = "2021-12-09 03:28:43 +0000";
layers = (
{
associatedMasterId = "9AA098C0-EDBC-463F-BC21-AFCD07A070D0";
background = {
components = (
{
name = hyphen;
transform = "{1.49953, 0, 0, 0.66803, -40, 220}";
}
);
paths = (
{
closed = 1;
nodes = (
"272 0 LINE SMOOTH",
"348 0 OFFCURVE",
"408 10 OFFCURVE",
"408 161 CURVE SMOOTH",
"408 228 LINE SMOOTH",
"408 327 OFFCURVE",
"346 340 OFFCURVE",
"297 340 CURVE SMOOTH",
"218 340 LINE",
"218 495 LINE",
"62 495 LINE",
"62 0 LINE"
);
},
{
closed = 1;
nodes = (
"218 245 LINE",
"235 245 LINE SMOOTH",
"251 245 OFFCURVE",
"252 238 OFFCURVE",
"252 206 CURVE SMOOTH",
"252 110 LINE SMOOTH",
"252 87 OFFCURVE",
"250 79 OFFCURVE",
"235 79 CURVE SMOOTH",
"218 79 LINE"
);
}
);
};
components = (
{
name = hyphen;
transform = "{1.49953, 0, 0, 0.66803, -40, 220}";
}
);
layerId = "DA1A7CB5-B64A-4C5F-A375-0D8C044C4D62";
name = Black;
paths = (
{
closed = 1;
nodes = (
"272 0 LINE SMOOTH",
"348 0 OFFCURVE",
"408 10 OFFCURVE",
"408 161 CURVE SMOOTH",
"408 228 LINE SMOOTH",
"408 327 OFFCURVE",
"346 340 OFFCURVE",
"297 340 CURVE SMOOTH",
"218 340 LINE",
"218 495 LINE",
"62 495 LINE",
"62 0 LINE"
);
},
{
closed = 1;
nodes = (
"218 245 LINE",
"235 245 LINE SMOOTH",
"251 245 OFFCURVE",
"252 238 OFFCURVE",
"252 206 CURVE SMOOTH",
"252 110 LINE SMOOTH",
"252 87 OFFCURVE",
"250 79 OFFCURVE",
"235 79 CURVE SMOOTH",
"218 79 LINE"
);
}
);
width = 433;
},
{
components = (
{
name = "softsign-cy";
},
{
alignment = -1;
name = hyphen;
transform = "{1.01469, 0, 0, 0.99024, -16, 159}";
}
);
layerId = "9AA098C0-EDBC-463F-BC21-AFCD07A070D0";
width = 352;
}
);
unicode = 0463;
},
{
glyphname = "yusbig-cy";
lastChange = "2021-12-09 03:28:43 +0000";
layers = (
{
associatedMasterId = "9AA098C0-EDBC-463F-BC21-AFCD07A070D0";
background = {
paths = (
{
closed = 1;
nodes = (
"168 0 LINE",
"200 193 LINE SMOOTH",
"202 201 OFFCURVE",
"203 210 OFFCURVE",
"204 219 CURVE SMOOTH",
"209 250 LINE",
"210 0 LINE",
"350 0 LINE",
"350 251 LINE",
"358 209 LINE",
"358 202 OFFCURVE",
"360 194 OFFCURVE",
"361 188 CURVE SMOOTH",
"392 0 LINE",
"540 0 LINE",
"494 212 LINE",
"478 255 OFFCURVE",
"453 279 OFFCURVE",
"430 281 CURVE SMOOTH",
"385 284 LINE",
"533 405 LINE",
"533 495 LINE",
"22 495 LINE",
"22 405 LINE",
"170 283 LINE",
"130 281 LINE SMOOTH",
"107 279 OFFCURVE",
"82 255 OFFCURVE",
"66 212 CURVE",
"20 0 LINE"
);
},
{
closed = 1;
nodes = (
"174 405 LINE",
"380 405 LINE",
"277 331 LINE"
);
}
);
};
layerId = "6041B8E9-AF18-4464-85E8-7138698DC5D5";
name = Black;
paths = (
{
closed = 1;
nodes = (
"168 0 LINE",
"200 193 LINE SMOOTH",
"202 201 OFFCURVE",
"203 210 OFFCURVE",
"204 219 CURVE SMOOTH",
"209 250 LINE",
"210 0 LINE",
"350 0 LINE",
"350 251 LINE",
"358 209 LINE",
"358 202 OFFCURVE",
"360 194 OFFCURVE",
"361 188 CURVE SMOOTH",
"392 0 LINE",
"540 0 LINE",
"494 212 LINE",
"478 255 OFFCURVE",
"453 279 OFFCURVE",
"430 281 CURVE SMOOTH",
"385 284 LINE",
"533 405 LINE",
"533 495 LINE",
"22 495 LINE",
"22 405 LINE",
"170 283 LINE",
"130 281 LINE SMOOTH",
"107 279 OFFCURVE",
"82 255 OFFCURVE",
"66 212 CURVE",
"20 0 LINE"
);
},
{
closed = 1;
nodes = (
"174 405 LINE",
"380 405 LINE",
"277 331 LINE"
);
}
);
width = 661;
},
{
layerId = "9AA098C0-EDBC-463F-BC21-AFCD07A070D0";
paths = (
{
closed = 1;
nodes = (
"90 0 LINE",
"143 187 LINE SMOOTH",
"153 221 OFFCURVE",
"164 262 OFFCURVE",
"220 262 CURVE SMOOTH",
"308 262 LINE",
"308 0 LINE",
"320 0 LINE",
"320 262 LINE",
"400 262 LINE SMOOTH",
"455 262 OFFCURVE",
"476 226 OFFCURVE",
"487 187 CURVE SMOOTH",
"538 0 LINE",
"550 0 LINE",
"496 189 LINE SMOOTH",
"484 230 OFFCURVE",
"471 272 OFFCURVE",
"392 272 CURVE SMOOTH",
"327 272 LINE",
"568 483 LINE",
"568 495 LINE",
"60 495 LINE",
"60 483 LINE",
"302 272 LINE",
"222 272 LINE SMOOTH",
"162 272 OFFCURVE",
"144 230 OFFCURVE",
"133 189 CURVE SMOOTH",
"78 0 LINE"
);
},
{
closed = 1;
nodes = (
"78 484 LINE",
"551 484 LINE",
"315 275 LINE"
);
}
);
width = 709;
}
);
unicode = 046B;
},
{
color = 6;
glyphname = Omega;
lastChange = "2021-12-09 03:28:43 +0000";
layers = (
{
layerId = "9AA098C0-EDBC-463F-BC21-AFCD07A070D0";
paths = (
{
closed = 1;
nodes = (
"241 0 LINE",
"241 6 LINE",
"95 109 OFFCURVE",
"88 226 OFFCURVE",
"88 322 CURVE SMOOTH",
"88 458 OFFCURVE",
"153 554 OFFCURVE",
"283 554 CURVE SMOOTH",
"414 554 OFFCURVE",
"477 459 OFFCURVE",
"477 347 CURVE SMOOTH",
"477 227 OFFCURVE",
"472 113 OFFCURVE",
"323 6 CURVE",
"323 0 LINE",
"532 0 LINE",
"532 11 LINE",
"351 11 LINE",
"492 128 OFFCURVE",
"492 234 OFFCURVE",
"492 337 CURVE SMOOTH",
"492 465 OFFCURVE",
"421 564 OFFCURVE",
"283 564 CURVE SMOOTH",
"144 564 OFFCURVE",
"73 466 OFFCURVE",
"73 331 CURVE SMOOTH",
"73 231 OFFCURVE",
"73 129 OFFCURVE",
"215 11 CURVE",
"34 11 LINE",
"34 0 LINE"
);
}
);
width = 582;
}
);
note = uni03A9;
unicode = 03A9;
},
{
color = 6;
glyphname = pi;
lastChange = "2021-12-09 03:28:43 +0000";
layers = (
{
layerId = "9AA098C0-EDBC-463F-BC21-AFCD07A070D0";
paths = (
{
closed = 1;
nodes = (
"67 0 LINE",
"96 84 OFFCURVE",
"125 171 OFFCURVE",
"149 254 CURVE SMOOTH",
"173 337 OFFCURVE",
"191 416 OFFCURVE",
"200 483 CURVE",
"408 483 LINE",
"341 0 LINE",
"353 0 LINE",
"420 483 LINE",
"505 483 LINE",
"507 495 LINE",
"219 495 LINE SMOOTH",
"142 495 OFFCURVE",
"94 487 OFFCURVE",
"51 470 CURVE",
"49 459 LINE",
"92 475 OFFCURVE",
"130 481 OFFCURVE",
"189 484 CURVE",
"177 405 OFFCURVE",
"155 312 OFFCURVE",
"129 225 CURVE SMOOTH",
"103 137 OFFCURVE",
"75 56 OFFCURVE",
"55 0 CURVE"
);
}
);
userData = {
assembly = "SVTCA[0]	/* SetFreedomAndProjectionVectorToAxis */\012PUSHW[ ]	/* 1 value pushed */\0120 \012RCVT[ ]	/* ReadCVT */\012IF[ ]	/* If */\012PUSHW[ ]	/* 1 value pushed */\0129 \012MDAP[1]	/* MoveDirectAbsPt */\012ELSE[ ]	/* Else */\012PUSHW[ ]	/* 2 values pushed */\0129 5 \012MIAP[0]	/* MoveIndirectAbsPt */\012EIF[ ]	/* EndIf */\012PUSHW[ ]	/* 1 value pushed */\0120 \012RCVT[ ]	/* ReadCVT */\012IF[ ]	/* If */\012PUSHW[ ]	/* 1 value pushed */\01217 \012MDAP[1]	/* MoveDirectAbsPt */\012ELSE[ ]	/* Else */\012PUSHW[ ]	/* 2 values pushed */\01217 5 \012MIAP[0]	/* MoveIndirectAbsPt */\012EIF[ ]	/* EndIf */\012IUP[0]	/* InterpolateUntPts */\012IUP[1]	/* InterpolateUntPts */";
};
width = 596;
}
);
note = pi;
unicode = 03C0;
},
{
color = 6;
glyphname = zero;
lastChange = "2021-12-09 03:28:43 +0000";
layers = (
{
layerId = "9AA098C0-EDBC-463F-BC21-AFCD07A070D0";
paths = (
{
closed = 1;
nodes = (
"248 -12 OFFCURVE",
"313 48 OFFCURVE",
"328 158 CURVE SMOOTH",
"366 428 LINE SMOOTH",
"368 441 OFFCURVE",
"369 454 OFFCURVE",
"369 466 CURVE SMOOTH",
"369 550 OFFCURVE",
"324 599 OFFCURVE",
"250 599 CURVE SMOOTH",
"166 599 OFFCURVE",
"99 538 OFFCURVE",
"84 428 CURVE SMOOTH",
"46 158 LINE SMOOTH",
"44 145 OFFCURVE",
"43 133 OFFCURVE",
"43 121 CURVE SMOOTH",
"43 35 OFFCURVE",
"90 -12 OFFCURVE",
"163 -12 CURVE SMOOTH"
);
},
{
closed = 1;
nodes = (
"102 -2 OFFCURVE",
"58 44 OFFCURVE",
"58 125 CURVE SMOOTH",
"58 136 OFFCURVE",
"59 148 OFFCURVE",
"61 161 CURVE SMOOTH",
"98 426 LINE SMOOTH",
"113 530 OFFCURVE",
"176 589 OFFCURVE",
"248 589 CURVE SMOOTH",
"311 589 OFFCURVE",
"355 543 OFFCURVE",
"355 462 CURVE SMOOTH",
"355 451 OFFCURVE",
"354 439 OFFCURVE",
"352 426 CURVE SMOOTH",
"315 161 LINE SMOOTH",
"300 57 OFFCURVE",
"238 -2 OFFCURVE",
"165 -2 CURVE SMOOTH"
);
}
);
width = 399;
}
);
leftKerningGroup = zero;
note = zero;
rightKerningGroup = zero;
unicode = 0030;
},
{
color = 6;
glyphname = one;
lastChange = "2021-12-09 03:28:43 +0000";
layers = (
{
layerId = "9AA098C0-EDBC-463F-BC21-AFCD07A070D0";
paths = (
{
closed = 1;
nodes = (
"97 0 LINE",
"180 591 LINE",
"169 591 LINE",
"162 546 LINE SMOOTH",
"158 515 OFFCURVE",
"139 498 OFFCURVE",
"110 498 CURVE SMOOTH",
"69 498 LINE",
"68 488 LINE",
"153 488 LINE",
"85 0 LINE"
);
}
);
userData = {
assembly = "SVTCA[0]	/* SetFreedomAndProjectionVectorToAxis */\012PUSHW[ ]	/* 1 value pushed */\0120 \012RCVT[ ]	/* ReadCVT */\012IF[ ]	/* If */\012PUSHW[ ]	/* 1 value pushed */\0124 \012MDAP[1]	/* MoveDirectAbsPt */\012ELSE[ ]	/* Else */\012PUSHW[ ]	/* 2 values pushed */\0124 9 \012MIAP[0]	/* MoveIndirectAbsPt */\012EIF[ ]	/* EndIf */\012PUSHW[ ]	/* 1 value pushed */\0120 \012RCVT[ ]	/* ReadCVT */\012IF[ ]	/* If */\012PUSHW[ ]	/* 1 value pushed */\0120 \012MDAP[1]	/* MoveDirectAbsPt */\012ELSE[ ]	/* Else */\012PUSHW[ ]	/* 2 values pushed */\0120 5 \012MIAP[0]	/* MoveIndirectAbsPt */\012EIF[ ]	/* EndIf */\012IUP[0]	/* InterpolateUntPts */\012IUP[1]	/* InterpolateUntPts */";
};
width = 210;
}
);
leftKerningGroup = one;
note = one;
rightKerningGroup = one;
unicode = 0031;
},
{
color = 6;
glyphname = two;
lastChange = "2021-12-09 03:28:43 +0000";
layers = (
{
layerId = "9AA098C0-EDBC-463F-BC21-AFCD07A070D0";
paths = (
{
closed = 1;
nodes = (
"292 0 LINE",
"293 11 LINE",
"35 11 LINE",
"48 105 LINE SMOOTH",
"61 194 OFFCURVE",
"112 213 OFFCURVE",
"183 250 CURVE SMOOTH",
"282 301 OFFCURVE",
"337 358 OFFCURVE",
"350 450 CURVE SMOOTH",
"352 462 OFFCURVE",
"353 474 OFFCURVE",
"353 485 CURVE SMOOTH",
"353 557 OFFCURVE",
"314 595 OFFCURVE",
"233 595 CURVE SMOOTH",
"149 595 OFFCURVE",
"93 551 OFFCURVE",
"80 458 CURVE SMOOTH",
"73 409 LINE",
"86 409 LINE",
"93 462 LINE SMOOTH",
"105 543 OFFCURVE",
"158 583 OFFCURVE",
"231 583 CURVE SMOOTH",
"303 583 OFFCURVE",
"338 549 OFFCURVE",
"338 485 CURVE SMOOTH",
"338 475 OFFCURVE",
"338 465 OFFCURVE",
"336 454 CURVE SMOOTH",
"334 440 LINE SMOOTH",
"324 358 OFFCURVE",
"253 299 OFFCURVE",
"180 261 CURVE SMOOTH",
"98 220 OFFCURVE",
"47 194 OFFCURVE",
"34 105 CURVE SMOOTH",
"20 0 LINE"
);
}
);
userData = {
assembly = "SVTCA[0]	/* SetFreedomAndProjectionVectorToAxis */\012PUSHW[ ]	/* 1 value pushed */\0120 \012RCVT[ ]	/* ReadCVT */\012IF[ ]	/* If */\012PUSHW[ ]	/* 1 value pushed */\01227 \012MDAP[1]	/* MoveDirectAbsPt */\012ELSE[ ]	/* Else */\012PUSHW[ ]	/* 2 values pushed */\01227 11 \012MIAP[0]	/* MoveIndirectAbsPt */\012EIF[ ]	/* EndIf */\012PUSHW[ ]	/* 1 value pushed */\0120 \012RCVT[ ]	/* ReadCVT */\012IF[ ]	/* If */\012PUSHW[ ]	/* 1 value pushed */\01211 \012MDAP[1]	/* MoveDirectAbsPt */\012ELSE[ ]	/* Else */\012PUSHW[ ]	/* 2 values pushed */\01211 5 \012MIAP[0]	/* MoveIndirectAbsPt */\012EIF[ ]	/* EndIf */\012IUP[0]	/* InterpolateUntPts */\012IUP[1]	/* InterpolateUntPts */";
};
width = 362;
}
);
leftKerningGroup = two;
note = two;
rightKerningGroup = two;
unicode = 0032;
},
{
color = 6;
glyphname = three;
lastChange = "2021-12-09 03:28:43 +0000";
layers = (
{
layerId = "9AA098C0-EDBC-463F-BC21-AFCD07A070D0";
paths = (
{
closed = 1;
nodes = (
"196 -8 OFFCURVE",
"226 3 OFFCURVE",
"250 19 CURVE SMOOTH",
"290 46 OFFCURVE",
"309 88 OFFCURVE",
"316 137 CURVE SMOOTH",
"320 163 LINE SMOOTH",
"321 173 OFFCURVE",
"322 182 OFFCURVE",
"322 191 CURVE SMOOTH",
"322 252 OFFCURVE",
"296 300 OFFCURVE",
"229 309 CURVE",
"294 321 OFFCURVE",
"342 373 OFFCURVE",
"353 442 CURVE SMOOTH",
"355 460 LINE SMOOTH",
"356 470 OFFCURVE",
"357 479 OFFCURVE",
"357 488 CURVE SMOOTH",
"357 554 OFFCURVE",
"318 595 OFFCURVE",
"239 595 CURVE SMOOTH",
"150 595 OFFCURVE",
"97 543 OFFCURVE",
"85 460 CURVE SMOOTH",
"81 429 LINE",
"94 429 LINE",
"98 459 LINE SMOOTH",
"109 534 OFFCURVE",
"154 584 OFFCURVE",
"238 584 CURVE SMOOTH",
"311 584 OFFCURVE",
"344 546 OFFCURVE",
"344 486 CURVE SMOOTH",
"344 478 OFFCURVE",
"343 468 OFFCURVE",
"342 459 CURVE SMOOTH",
"339 440 LINE SMOOTH",
"331 369 OFFCURVE",
"271 315 OFFCURVE",
"200 315 CURVE SMOOTH",
"136 315 LINE",
"134 303 LINE",
"198 303 LINE SMOOTH",
"272 303 OFFCURVE",
"310 259 OFFCURVE",
"310 190 CURVE SMOOTH",
"310 181 OFFCURVE",
"309 172 OFFCURVE",
"308 163 CURVE SMOOTH",
"304 137 LINE SMOOTH",
"297 86 OFFCURVE",
"276 49 OFFCURVE",
"243 27 CURVE SMOOTH",
"220 12 OFFCURVE",
"191 3 OFFCURVE",
"156 2 CURVE SMOOTH",
"121 3 OFFCURVE",
"94 12 OFFCURVE",
"75 27 CURVE SMOOTH",
"54 44 OFFCURVE",
"44 71 OFFCURVE",
"44 106 CURVE SMOOTH",
"44 116 OFFCURVE",
"44 126 OFFCURVE",
"46 137 CURVE SMOOTH",
"52 183 LINE",
"40 183 LINE",
"34 137 LINE SMOOTH",
"32 126 OFFCURVE",
"32 115 OFFCURVE",
"32 105 CURVE SMOOTH",
"32 69 OFFCURVE",
"41 40 OFFCURVE",
"66 19 CURVE SMOOTH",
"86 3 OFFCURVE",
"114 -8 OFFCURVE",
"155 -8 CURVE SMOOTH"
);
}
);
userData = {
assembly = "PUSHW[ ]	/* 3 values pushed */\01236 46 3 \012CALL[ ]	/* CallFunction */\012IUP[0]	/* InterpolateUntPts */\012IUP[1]	/* InterpolateUntPts */";
};
width = 385;
}
);
leftKerningGroup = three;
note = three;
rightKerningGroup = three;
unicode = 0033;
},
{
color = 6;
glyphname = four;
lastChange = "2021-12-09 03:28:43 +0000";
layers = (
{
background = {
paths = (
{
closed = 1;
nodes = (
"224 0 LINE",
"241 124 LINE",
"293 124 LINE",
"294 135 LINE",
"242 135 LINE",
"307 591 LINE",
"299 591 LINE",
"4 134 LINE",
"3 124 LINE",
"229 124 LINE",
"212 0 LINE"
);
},
{
closed = 1;
nodes = (
"17 135 LINE",
"290 559 LINE",
"230 135 LINE"
);
}
);
};
layerId = "9AA098C0-EDBC-463F-BC21-AFCD07A070D0";
paths = (
{
closed = 1;
nodes = (
"224 0 LINE",
"241 124 LINE",
"293 124 LINE",
"294 134 LINE",
"242 134 LINE",
"307 591 LINE",
"299 591 LINE",
"4 134 LINE",
"3 124 LINE",
"229 124 LINE",
"212 0 LINE"
);
},
{
closed = 1;
nodes = (
"18 135 LINE",
"290 558 LINE",
"230 134 LINE"
);
}
);
userData = {
assembly = "SVTCA[0]	/* SetFreedomAndProjectionVectorToAxis */\012PUSHW[ ]	/* 1 value pushed */\0120 \012RCVT[ ]	/* ReadCVT */\012IF[ ]	/* If */\012PUSHW[ ]	/* 1 value pushed */\0127 \012MDAP[1]	/* MoveDirectAbsPt */\012ELSE[ ]	/* Else */\012PUSHW[ ]	/* 2 values pushed */\0127 5 \012MIAP[0]	/* MoveIndirectAbsPt */\012EIF[ ]	/* EndIf */\012IUP[0]	/* InterpolateUntPts */\012IUP[1]	/* InterpolateUntPts */";
};
width = 332;
}
);
leftKerningGroup = four;
note = four;
rightKerningGroup = parenright;
unicode = 0034;
},
{
color = 6;
glyphname = five;
lastChange = "2021-12-09 03:28:43 +0000";
layers = (
{
layerId = "9AA098C0-EDBC-463F-BC21-AFCD07A070D0";
paths = (
{
closed = 1;
nodes = (
"244 -8 OFFCURVE",
"309 35 OFFCURVE",
"328 163 CURVE SMOOTH",
"338 241 LINE SMOOTH",
"340 256 OFFCURVE",
"341 269 OFFCURVE",
"341 281 CURVE SMOOTH",
"341 362 OFFCURVE",
"299 392 OFFCURVE",
"220 392 CURVE SMOOTH",
"164 392 OFFCURVE",
"114 369 OFFCURVE",
"85 328 CURVE",
"120 580 LINE",
"366 580 LINE",
"368 591 LINE",
"111 591 LINE",
"69 296 LINE",
"79 296 LINE",
"89 338 OFFCURVE",
"149 383 OFFCURVE",
"218 383 CURVE SMOOTH",
"301 383 OFFCURVE",
"331 341 OFFCURVE",
"331 278 CURVE SMOOTH",
"331 267 OFFCURVE",
"330 255 OFFCURVE",
"328 242 CURVE SMOOTH",
"316 160 LINE SMOOTH",
"301 56 OFFCURVE",
"242 4 OFFCURVE",
"162 4 CURVE SMOOTH",
"71 4 OFFCURVE",
"49 50 OFFCURVE",
"49 109 CURVE SMOOTH",
"49 124 OFFCURVE",
"50 139 OFFCURVE",
"52 154 CURVE SMOOTH",
"54 168 LINE",
"43 168 LINE",
"41 151 LINE SMOOTH",
"39 135 OFFCURVE",
"38 120 OFFCURVE",
"38 106 CURVE SMOOTH",
"38 12 OFFCURVE",
"92 -8 OFFCURVE",
"160 -8 CURVE SMOOTH"
);
}
);
userData = {
assembly = "SVTCA[0]	/* SetFreedomAndProjectionVectorToAxis */\012PUSHW[ ]	/* 1 value pushed */\0126 \012MDAP[1]	/* MoveDirectAbsPt */\012IUP[0]	/* InterpolateUntPts */\012IUP[1]	/* InterpolateUntPts */";
};
width = 393;
}
);
leftKerningGroup = five;
note = five;
rightKerningGroup = five;
unicode = 0035;
},
{
color = 6;
glyphname = six;
lastChange = "2021-12-09 03:28:43 +0000";
layers = (
{
layerId = "9AA098C0-EDBC-463F-BC21-AFCD07A070D0";
paths = (
{
closed = 1;
nodes = (
"253 -9 OFFCURVE",
"316 29 OFFCURVE",
"335 158 CURVE SMOOTH",
"342 205 LINE SMOOTH",
"344 219 OFFCURVE",
"345 233 OFFCURVE",
"345 245 CURVE SMOOTH",
"345 324 OFFCURVE",
"304 355 OFFCURVE",
"229 355 CURVE SMOOTH",
"161 355 OFFCURVE",
"115 326 OFFCURVE",
"76 282 CURVE",
"101 459 LINE SMOOTH",
"111 532 OFFCURVE",
"169 587 OFFCURVE",
"248 587 CURVE SMOOTH",
"314 587 OFFCURVE",
"351 555 OFFCURVE",
"351 492 CURVE SMOOTH",
"351 484 OFFCURVE",
"350 475 OFFCURVE",
"349 465 CURVE SMOOTH",
"348 454 LINE",
"360 454 LINE",
"361 461 LINE SMOOTH",
"363 472 OFFCURVE",
"363 483 OFFCURVE",
"363 493 CURVE SMOOTH",
"363 564 OFFCURVE",
"322 598 OFFCURVE",
"249 598 CURVE SMOOTH",
"164 598 OFFCURVE",
"100 543 OFFCURVE",
"88 455 CURVE SMOOTH",
"46 149 LINE SMOOTH",
"44 132 OFFCURVE",
"43 118 OFFCURVE",
"43 104 CURVE SMOOTH",
"43 8 OFFCURVE",
"99 -9 OFFCURVE",
"174 -9 CURVE SMOOTH"
);
},
{
closed = 1;
nodes = (
"81 1 OFFCURVE",
"54 49 OFFCURVE",
"54 112 CURVE SMOOTH",
"54 125 OFFCURVE",
"55 138 OFFCURVE",
"57 152 CURVE SMOOTH",
"72 256 LINE",
"85 298 OFFCURVE",
"156 346 OFFCURVE",
"227 346 CURVE SMOOTH",
"307 346 OFFCURVE",
"332 305 OFFCURVE",
"332 241 CURVE SMOOTH",
"332 228 OFFCURVE",
"331 213 OFFCURVE",
"329 197 CURVE SMOOTH",
"324 158 LINE SMOOTH",
"311 54 OFFCURVE",
"251 1 OFFCURVE",
"175 1 CURVE SMOOTH"
);
}
);
userData = {
assembly = "SVTCA[0]	/* SetFreedomAndProjectionVectorToAxis */\012PUSHW[ ]	/* 4 values pushed */\01252 2 0 4 \012CALL[ ]	/* CallFunction */\012IUP[0]	/* InterpolateUntPts */\012IUP[1]	/* InterpolateUntPts */";
};
width = 403;
}
);
leftKerningGroup = six;
note = six;
rightKerningGroup = six;
unicode = 0036;
},
{
color = 6;
glyphname = seven;
lastChange = "2021-12-09 03:28:43 +0000";
layers = (
{
layerId = "9AA098C0-EDBC-463F-BC21-AFCD07A070D0";
paths = (
{
closed = 1;
nodes = (
"40 0 LINE",
"290 581 LINE",
"292 591 LINE",
"64 591 LINE",
"62 580 LINE",
"277 580 LINE",
"28 0 LINE"
);
}
);
userData = {
assembly = "SVTCA[0]	/* SetFreedomAndProjectionVectorToAxis */\012PUSHW[ ]	/* 1 value pushed */\0120 \012RCVT[ ]	/* ReadCVT */\012IF[ ]	/* If */\012PUSHW[ ]	/* 1 value pushed */\0120 \012MDAP[1]	/* MoveDirectAbsPt */\012ELSE[ ]	/* Else */\012PUSHW[ ]	/* 2 values pushed */\0120 5 \012MIAP[0]	/* MoveIndirectAbsPt */\012EIF[ ]	/* EndIf */\012IUP[0]	/* InterpolateUntPts */\012IUP[1]	/* InterpolateUntPts */";
};
width = 270;
}
);
leftKerningGroup = seven;
note = seven;
rightKerningGroup = seven;
unicode = 0037;
},
{
color = 6;
glyphname = eight;
lastChange = "2021-12-09 03:28:43 +0000";
layers = (
{
layerId = "9AA098C0-EDBC-463F-BC21-AFCD07A070D0";
paths = (
{
closed = 1;
nodes = (
"201 -8 OFFCURVE",
"231 3 OFFCURVE",
"255 19 CURVE SMOOTH",
"295 46 OFFCURVE",
"314 88 OFFCURVE",
"321 137 CURVE SMOOTH",
"325 163 LINE SMOOTH",
"326 173 OFFCURVE",
"327 182 OFFCURVE",
"327 191 CURVE SMOOTH",
"327 252 OFFCURVE",
"301 300 OFFCURVE",
"234 309 CURVE",
"299 321 OFFCURVE",
"347 373 OFFCURVE",
"358 442 CURVE SMOOTH",
"360 460 LINE SMOOTH",
"361 470 OFFCURVE",
"362 479 OFFCURVE",
"362 488 CURVE SMOOTH",
"362 554 OFFCURVE",
"323 595 OFFCURVE",
"244 595 CURVE SMOOTH",
"155 595 OFFCURVE",
"102 543 OFFCURVE",
"90 460 CURVE SMOOTH",
"88 442 LINE SMOOTH",
"87 434 OFFCURVE",
"86 426 OFFCURVE",
"86 418 CURVE SMOOTH",
"86 361 OFFCURVE",
"120 320 OFFCURVE",
"174 309 CURVE",
"98 299 OFFCURVE",
"51 235 OFFCURVE",
"43 163 CURVE SMOOTH",
"39 137 LINE SMOOTH",
"37 126 OFFCURVE",
"37 115 OFFCURVE",
"37 105 CURVE SMOOTH",
"37 69 OFFCURVE",
"46 40 OFFCURVE",
"71 19 CURVE SMOOTH",
"91 3 OFFCURVE",
"119 -8 OFFCURVE",
"160 -8 CURVE SMOOTH"
);
},
{
closed = 1;
nodes = (
"126 3 OFFCURVE",
"99 12 OFFCURVE",
"80 27 CURVE SMOOTH",
"59 44 OFFCURVE",
"49 71 OFFCURVE",
"49 106 CURVE SMOOTH",
"49 116 OFFCURVE",
"49 126 OFFCURVE",
"51 137 CURVE SMOOTH",
"55 163 LINE SMOOTH",
"66 247 OFFCURVE",
"120 303 OFFCURVE",
"203 303 CURVE SMOOTH",
"277 303 OFFCURVE",
"315 259 OFFCURVE",
"315 190 CURVE SMOOTH",
"315 181 OFFCURVE",
"314 172 OFFCURVE",
"313 163 CURVE SMOOTH",
"309 137 LINE SMOOTH",
"302 86 OFFCURVE",
"281 49 OFFCURVE",
"248 27 CURVE SMOOTH",
"225 12 OFFCURVE",
"196 3 OFFCURVE",
"161 2 CURVE SMOOTH"
);
},
{
closed = 1;
nodes = (
"139 315 OFFCURVE",
"99 360 OFFCURVE",
"99 422 CURVE SMOOTH",
"99 428 OFFCURVE",
"99 434 OFFCURVE",
"100 440 CURVE SMOOTH",
"103 459 LINE SMOOTH",
"114 534 OFFCURVE",
"159 584 OFFCURVE",
"243 584 CURVE SMOOTH",
"316 584 OFFCURVE",
"349 546 OFFCURVE",
"349 486 CURVE SMOOTH",
"349 478 OFFCURVE",
"348 468 OFFCURVE",
"347 459 CURVE SMOOTH",
"344 440 LINE SMOOTH",
"336 369 OFFCURVE",
"276 315 OFFCURVE",
"205 315 CURVE SMOOTH"
);
}
);
userData = {
assembly = "PUSHW[ ]	/* 4 values pushed */\0127 4 66 4 \012CALL[ ]	/* CallFunction */\012PUSHW[ ]	/* 3 values pushed */\01231 66 7 \012SRP1[ ]	/* SetRefPoint1 */\012SRP2[ ]	/* SetRefPoint2 */\012IP[ ]	/* InterpolatePts */\012SVTCA[0]	/* SetFreedomAndProjectionVectorToAxis */\012PUSHW[ ]	/* 1 value pushed */\0120 \012RCVT[ ]	/* ReadCVT */\012IF[ ]	/* If */\012PUSHW[ ]	/* 1 value pushed */\01263 \012MDAP[1]	/* MoveDirectAbsPt */\012ELSE[ ]	/* Else */\012PUSHW[ ]	/* 2 values pushed */\01263 11 \012MIAP[0]	/* MoveIndirectAbsPt */\012EIF[ ]	/* EndIf */\012PUSHW[ ]	/* 1 value pushed */\0120 \012RCVT[ ]	/* ReadCVT */\012IF[ ]	/* If */\012PUSHW[ ]	/* 1 value pushed */\01238 \012MDAP[1]	/* MoveDirectAbsPt */\012ELSE[ ]	/* Else */\012PUSHW[ ]	/* 2 values pushed */\01238 5 \012MIAP[0]	/* MoveIndirectAbsPt */\012EIF[ ]	/* EndIf */\012PUSHW[ ]	/* 3 values pushed */\0127 38 63 \012SRP1[ ]	/* SetRefPoint1 */\012SRP2[ ]	/* SetRefPoint2 */\012IP[ ]	/* InterpolatePts */\012PUSHW[ ]	/* 3 values pushed */\01231 38 63 \012SRP1[ ]	/* SetRefPoint1 */\012SRP2[ ]	/* SetRefPoint2 */\012IP[ ]	/* InterpolatePts */\012IUP[0]	/* InterpolateUntPts */\012IUP[1]	/* InterpolateUntPts */";
};
width = 390;
}
);
leftKerningGroup = eight;
note = eight;
rightKerningGroup = eight;
unicode = 0038;
},
{
color = 6;
glyphname = nine;
lastChange = "2021-12-09 03:28:43 +0000";
layers = (
{
layerId = "9AA098C0-EDBC-463F-BC21-AFCD07A070D0";
paths = (
{
closed = 1;
nodes = (
"250 -9 OFFCURVE",
"314 46 OFFCURVE",
"326 134 CURVE SMOOTH",
"368 435 LINE SMOOTH",
"370 451 OFFCURVE",
"371 466 OFFCURVE",
"371 480 CURVE SMOOTH",
"371 569 OFFCURVE",
"314 593 OFFCURVE",
"240 593 CURVE SMOOTH",
"164 593 OFFCURVE",
"98 555 OFFCURVE",
"79 426 CURVE SMOOTH",
"72 379 LINE SMOOTH",
"70 364 OFFCURVE",
"69 351 OFFCURVE",
"69 338 CURVE SMOOTH",
"69 260 OFFCURVE",
"109 229 OFFCURVE",
"185 229 CURVE SMOOTH",
"253 229 OFFCURVE",
"298 258 OFFCURVE",
"337 302 CURVE",
"313 130 LINE SMOOTH",
"303 57 OFFCURVE",
"245 2 OFFCURVE",
"166 2 CURVE SMOOTH",
"100 2 OFFCURVE",
"62 35 OFFCURVE",
"62 99 CURVE SMOOTH",
"62 107 OFFCURVE",
"62 115 OFFCURVE",
"64 124 CURVE SMOOTH",
"66 135 LINE",
"54 135 LINE",
"53 128 LINE SMOOTH",
"51 117 OFFCURVE",
"51 106 OFFCURVE",
"51 96 CURVE SMOOTH",
"51 25 OFFCURVE",
"92 -9 OFFCURVE",
"165 -9 CURVE SMOOTH"
);
},
{
closed = 1;
nodes = (
"106 238 OFFCURVE",
"81 279 OFFCURVE",
"81 343 CURVE SMOOTH",
"81 356 OFFCURVE",
"82 371 OFFCURVE",
"84 387 CURVE SMOOTH",
"90 426 LINE SMOOTH",
"106 530 OFFCURVE",
"163 583 OFFCURVE",
"239 583 CURVE SMOOTH",
"334 583 OFFCURVE",
"359 540 OFFCURVE",
"359 474 CURVE SMOOTH",
"359 460 OFFCURVE",
"358 446 OFFCURVE",
"356 432 CURVE SMOOTH",
"342 328 LINE",
"327 286 OFFCURVE",
"259 238 OFFCURVE",
"186 238 CURVE SMOOTH"
);
}
);
width = 400;
}
);
leftKerningGroup = nine;
note = nine;
rightKerningGroup = nine;
unicode = 0039;
},
